<?xml version="1.0" encoding="UTF-8" standalone="no"?>
<svg
   xmlns:dc="http://purl.org/dc/elements/1.1/"
   xmlns:cc="http://creativecommons.org/ns#"
   xmlns:rdf="http://www.w3.org/1999/02/22-rdf-syntax-ns#"
   xmlns:svg="http://www.w3.org/2000/svg"
   xmlns="http://www.w3.org/2000/svg"
   xmlns:sodipodi="http://sodipodi.sourceforge.net/DTD/sodipodi-0.dtd"
   xmlns:inkscape="http://www.inkscape.org/namespaces/inkscape"
   inkscape:version="1.0 (4035a4fb49, 2020-05-01)"
   sodipodi:docname="s_6.first10000_tails.svg"
   id="svg54"
   version="1.2"
   viewBox="0 0 1294.5542 239.23585"
   height="84.397011mm"
   width="456.69037mm">
  <metadata
     id="metadata58">
    <rdf:RDF>
      <cc:Work
         rdf:about="">
        <dc:format>image/svg+xml</dc:format>
        <dc:type
           rdf:resource="http://purl.org/dc/dcmitype/StillImage" />
        <dc:title>Qt SVG Document</dc:title>
      </cc:Work>
    </rdf:RDF>
  </metadata>
  <sodipodi:namedview
     inkscape:current-layer="svg54"
     inkscape:window-maximized="1"
     inkscape:window-y="-9"
     inkscape:window-x="-9"
     inkscape:cy="233.26754"
     inkscape:cx="947.37844"
     inkscape:zoom="0.33544336"
     fit-margin-bottom="0"
     fit-margin-right="0"
     fit-margin-left="0"
     fit-margin-top="0"
     showgrid="false"
     id="namedview56"
     inkscape:window-height="1001"
     inkscape:window-width="1920"
     inkscape:pageshadow="2"
     inkscape:pageopacity="0"
     guidetolerance="10"
     gridtolerance="10"
     objecttolerance="10"
     borderopacity="1"
     bordercolor="#666666"
     pagecolor="#ffffff" />
  <title
     id="title2">Qt SVG Document</title>
  <desc
     id="desc4">Generated with Qt</desc>
  <defs
     id="defs6">
    <clipPath
       id="clipPath62"
       clipPathUnits="userSpaceOnUse">
      <rect
         y="301.83963"
         x="51.423233"
         height="239.23586"
         width="1294.5566"
         id="rect64"
         style="fill:none;stroke:#000000;stroke-width:0.750001" />
    </clipPath>
  </defs>
  <g
     clip-path="url(#clipPath62)"
     transform="translate(-51.424547,-301.83963)"
     id="g52"
     stroke-linejoin="bevel"
     stroke-linecap="square"
     fill-rule="evenodd"
     stroke-width="1"
     stroke="#000000"
     fill="none">
    <g
       id="g10"
       font-style="normal"
       font-weight="400"
       font-size="7.8px"
       font-family="'MS Shell Dlg 2'"
       stroke="none"
       fill-opacity="1"
       fill="#ffffff">
      <rect
         id="rect8"
         height="948"
         width="1388"
         y="0"
         x="0" />
    </g>
    <g
       id="g12"
       font-style="normal"
       font-weight="400"
       font-size="7.8px"
       font-family="'MS Shell Dlg 2'"
       stroke-linejoin="bevel"
       stroke-linecap="square"
       stroke-width="1"
       stroke-opacity="1"
       stroke="#000000"
       fill="none" />
    <g
       id="g14"
       font-style="normal"
       font-weight="400"
       font-size="7.8px"
       font-family="'MS Shell Dlg 2'"
       stroke-linejoin="bevel"
       stroke-linecap="square"
       stroke-width="1"
       stroke-opacity="1"
       stroke="#000000"
       fill="none" />
    <g
       id="g16"
       font-style="normal"
       font-weight="400"
       font-size="7.8px"
       font-family="'MS Shell Dlg 2'"
       stroke-linejoin="bevel"
       stroke-linecap="square"
       stroke-width="1"
       stroke-opacity="1"
       stroke="#000000"
       fill="none" />
    <g
       id="g18"
       font-style="normal"
       font-weight="400"
       font-size="7.8px"
       font-family="'MS Shell Dlg 2'"
       transform="matrix(5.01268,0,0,5.01268,-57,223)"
       stroke-linejoin="bevel"
       stroke-linecap="square"
       stroke-width="1"
       stroke-opacity="1"
       stroke="#000000"
       fill="none" />
    <g
       id="g22"
       font-style="normal"
       font-weight="400"
       font-size="7.8px"
       font-family="'MS Shell Dlg 2'"
       transform="matrix(5.01268,0,0,5.01268,-57,223)"
       stroke="none"
       fill-opacity="1"
       fill="#cb6294">
      <path
         id="path20"
         d="m 25,22.5 h 17.7234 18.1719 18.9927 19.6239 20.0391 20.274 20.35 20.274 20.039 19.624 18.993 18.172 H 275 v 5 H 257.277 239.105 220.112 200.488 180.449 160.175 139.825 119.551 99.5119 79.888 60.8953 42.7234 25 v -5"
         fill-rule="nonzero"
         vector-effect="none" />
    </g>
    <g
       id="g26"
       font-style="normal"
       font-weight="400"
       font-size="7.8px"
       font-family="'MS Shell Dlg 2'"
       transform="matrix(1.31605,0,0,1.31605,694.901,364.916)"
       stroke-linejoin="round"
       stroke-linecap="square"
       stroke-width="3"
       stroke-opacity="1"
       stroke="#ffffff"
       fill="none">
      <path
         id="path24"
         d="m -22.457,-13 h -4.6084 v -0.9648 h 1.7138 v -6.335 h -1.7138 v -0.8633 c 0.6474,0 1.1246,-0.092 1.4314,-0.2761 0.3068,-0.1841 0.4792,-0.5322 0.5173,-1.0442 h 0.9839 v 8.5186 h 1.6758 V -13 m 7.5268,-4.729 c 0,1.6969 -0.2465,2.9421 -0.7395,3.7356 -0.493,0.7934 -1.2536,1.1902 -2.282,1.1902 -1.041,0 -1.8048,-0.4042 -2.2915,-1.2124 -0.4866,-0.8083 -0.7299,-2.0419 -0.7299,-3.7007 0,-1.7054 0.2465,-2.9527 0.7395,-3.742 0.493,-0.7892 1.2536,-1.1838 2.2819,-1.1838 1.0411,0 1.8049,0.4084 2.2915,1.2251 0.4867,0.8167 0.73,2.0461 0.73,3.688 m -1.625,2.8818 c 0.1227,-0.3131 0.2095,-0.7088 0.2603,-1.187 0.0508,-0.4782 0.0761,-1.0431 0.0761,-1.6948 0,-0.6475 -0.0253,-1.2103 -0.0761,-1.6885 -0.0508,-0.4782 -0.1397,-0.876 -0.2666,-1.1933 -0.127,-0.3217 -0.3015,-0.566 -0.5237,-0.7332 -0.2222,-0.1671 -0.511,-0.2507 -0.8665,-0.2507 -0.3512,0 -0.64,0.0836 -0.8664,0.2507 -0.2264,0.1672 -0.4052,0.4158 -0.5364,0.7459 -0.1269,0.3216 -0.2137,0.7278 -0.2602,1.2187 -0.0466,0.4909 -0.0699,1.0453 -0.0699,1.6631 0,0.6601 0.0201,1.2124 0.0603,1.6567 0.0402,0.4444 0.128,0.8422 0.2635,1.1934 0.1227,0.3258 0.2972,0.5766 0.5236,0.7522 0.2264,0.1756 0.5216,0.2634 0.8855,0.2634 0.3513,0 0.6401,-0.0836 0.8665,-0.2507 0.2264,-0.1672 0.4031,-0.4158 0.53,-0.7459 m 12.62502,-2.8818 c 0,1.6969 -0.2465,2.9421 -0.7395,3.7356 -0.493,0.7934 -1.25366,1.1902 -2.28198,1.1902 -1.04102,0 -1.80485,-0.4042 -2.2915,-1.2124 -0.48666,-0.8083 -0.72998,-2.0419 -0.72998,-3.7007 0,-1.7054 0.2465,-2.9527 0.7395,-3.742 0.493,-0.7892 1.25366,-1.1838 2.28198,-1.1838 1.04102,0 1.80485,0.4084 2.2915,1.2251 0.48666,0.8167 0.72998,2.0461 0.72998,3.688 m -1.625,2.8818 c 0.12273,-0.3131 0.20948,-0.7088 0.26026,-1.187 0.05078,-0.4782 0.07617,-1.0431 0.07617,-1.6948 0,-0.6475 -0.02539,-1.2103 -0.07617,-1.6885 -0.05078,-0.4782 -0.13965,-0.876 -0.2666,-1.1933 -0.12696,-0.3217 -0.30152,-0.566 -0.52369,-0.7332 -0.22216,-0.1671 -0.51098,-0.2507 -0.86645,-0.2507 -0.35124,0 -0.64006,0.0836 -0.86646,0.2507 -0.22639,0.1672 -0.40519,0.4158 -0.53637,0.7459 -0.12696,0.3216 -0.21371,0.7278 -0.26026,1.2187 -0.04655,0.4909 -0.06982,1.0453 -0.06982,1.6631 0,0.6601 0.0201,1.2124 0.0603,1.6567 0.0402,0.4444 0.12801,0.8422 0.26343,1.1934 0.12272,0.3258 0.29728,0.5766 0.52368,0.7522 0.2264,0.1756 0.52157,0.2634 0.8855,0.2634 0.35124,0 0.64006,-0.0836 0.86645,-0.2507 0.2264,-0.1672 0.40308,-0.4158 0.53003,-0.7459 m 8.625,-2.8818 c 0,1.6969 -0.2465,2.9421 -0.7395,3.7356 -0.493,0.7934 -1.25366,1.1902 -2.2819802,1.1902 -1.0410158,0 -1.8048498,-0.4042 -2.2914998,-1.2124 -0.48666,-0.8083 -0.72998,-2.0419 -0.72998,-3.7007 0,-1.7054 0.2465,-2.9527 0.7395,-3.742 0.493,-0.7892 1.25366,-1.1838 2.2819798,-1.1838 1.0410202,0 1.8048502,0.4084 2.2915002,1.2251 0.48666,0.8167 0.72998,2.0461 0.72998,3.688 m -1.625,2.8818 c 0.12273,-0.3131 0.20948,-0.7088 0.26026,-1.187 0.05078,-0.4782 0.07617,-1.0431 0.07617,-1.6948 0,-0.6475 -0.02539,-1.2103 -0.07617,-1.6885 -0.05078,-0.4782 -0.13965,-0.876 -0.2666,-1.1933 -0.12696,-0.3217 -0.30152,-0.566 -0.523685,-0.7332 -0.222168,-0.1671 -0.510986,-0.2507 -0.8664552,-0.2507 -0.3512368,0 -0.6400548,0.0836 -0.8664548,0.2507 -0.226395,0.1672 -0.405195,0.4158 -0.536375,0.7459 -0.12696,0.3216 -0.21371,0.7278 -0.26026,1.2187 -0.04655,0.4909 -0.06982,1.0453 -0.06982,1.6631 0,0.6601 0.0201,1.2124 0.0603,1.6567 0.0402,0.4444 0.12801,0.8422 0.26343,1.1934 0.12272,0.3258 0.29728,0.5766 0.523682,0.7522 0.2264,0.1756 0.521566,0.2634 0.8854978,0.2634 0.3512372,0 0.6400552,-0.0836 0.8664552,-0.2507 0.226395,-0.1672 0.403075,-0.4158 0.530025,-0.7459 m 8.62498,-2.8818 c 0,1.6969 -0.24648,2.9421 -0.73948,3.7356 -0.493,0.7934 -1.25366,1.1902 -2.28198,1.1902 -1.04102,0 -1.80485,-0.4042 -2.2915,-1.2124 -0.48666,-0.8083 -0.72998,-2.0419 -0.72998,-3.7007 0,-1.7054 0.2465,-2.9527 0.7395,-3.742 0.493,-0.7892 1.25366,-1.1838 2.28198,-1.1838 1.04102,0 1.80485,0.4084 2.2915,1.2251 0.48666,0.8167 0.72996,2.0461 0.72996,3.688 m -1.62498,2.8818 c 0.12273,-0.3131 0.20948,-0.7088 0.26026,-1.187 0.05078,-0.4782 0.07617,-1.0431 0.07617,-1.6948 0,-0.6475 -0.02539,-1.2103 -0.07617,-1.6885 -0.05078,-0.4782 -0.13965,-0.876 -0.2666,-1.1933 -0.12696,-0.3217 -0.30152,-0.566 -0.52369,-0.7332 -0.22216,-0.1671 -0.51098,-0.2507 -0.86645,-0.2507 -0.35124,0 -0.64006,0.0836 -0.86646,0.2507 -0.22639,0.1672 -0.40519,0.4158 -0.53637,0.7459 -0.12696,0.3216 -0.21371,0.7278 -0.26026,1.2187 -0.04655,0.4909 -0.06982,1.0453 -0.06982,1.6631 0,0.6601 0.0201,1.2124 0.0603,1.6567 0.0402,0.4444 0.12801,0.8422 0.26343,1.1934 0.12272,0.3258 0.29728,0.5766 0.52368,0.7522 0.2264,0.1756 0.52157,0.2634 0.8855,0.2634 0.35124,0 0.64006,-0.0836 0.86645,-0.2507 0.2264,-0.1672 0.40308,-0.4158 0.53003,-0.7459 m 11.63478,-1.7202 c 0,-0.8463 -0.1291,-1.4885 -0.3872,-1.9265 -0.2582,-0.438 -0.6729,-0.657 -1.2442,-0.657 -0.3258,0 -0.6548,0.0762 -0.987,0.2285 -0.3322,0.1524 -0.6337,0.3449 -0.9046,0.5777 v 4.0625 c 0.3005,0.1481 0.5671,0.2528 0.7998,0.3142 0.2328,0.0613 0.4888,0.092 0.7681,0.092 0.6094,0 1.0876,-0.2158 1.4346,-0.6474 0.347,-0.4317 0.5205,-1.113 0.5205,-2.044 m 1.2314,-0.0952 c 0,1.1595 -0.2814,2.0926 -0.8442,2.7993 -0.5628,0.7067 -1.2674,1.0601 -2.1138,1.0601 -0.3851,0 -0.7141,-0.0476 -0.987,-0.1428 -0.273,-0.0953 -0.5428,-0.2233 -0.8094,-0.3841 L 16.4805,-13 h -1.1172 v -9.877 h 1.1933 v 3.5293 c 0.3005,-0.2708 0.6263,-0.4951 0.9776,-0.6728 0.3512,-0.1777 0.749,-0.2666 1.1933,-0.2666 0.7998,0 1.4304,0.3205 1.8916,0.9617 0.4613,0.6411 0.6919,1.5287 0.6919,2.6628 m 7,-0.0698 c 0,1.1806 -0.2824,2.1212 -0.8474,2.8215 -0.5649,0.7004 -1.279,1.0505 -2.1423,1.0505 -0.3512,0 -0.6623,-0.0402 -0.9331,-0.1206 -0.2708,-0.0804 -0.548,-0.2052 -0.8316,-0.3745 v 2.9707 h -1.1933 v -9.7055 h 1.1933 v 0.7426 c 0.2963,-0.2666 0.6253,-0.4898 0.9871,-0.6696 0.3618,-0.1799 0.7564,-0.2698 1.1838,-0.2698 0.8125,0 1.4462,0.3216 1.9012,0.9648 0.4549,0.6433 0.6823,1.5065 0.6823,2.5899 m -1.2314,0.1333 c 0,-0.8083 -0.1291,-1.4356 -0.3872,-1.8821 -0.2582,-0.4465 -0.6771,-0.6697 -1.2569,-0.6697 -0.3385,0 -0.6654,0.0751 -0.9807,0.2254 -0.3152,0.1502 -0.6146,0.3438 -0.8982,0.5808 v 4.018 c 0.3132,0.1524 0.5809,0.2561 0.803,0.3111 0.2222,0.055 0.4772,0.0825 0.7649,0.0825 0.6179,0 1.0982,-0.2264 1.4409,-0.6792 0.3428,-0.4528 0.5142,-1.1151 0.5142,-1.9868 m -37.2984,11.03221 c 0,-0.64323 -0.0592,-1.16692 -0.1777,-1.57105 -0.1185,-0.40413 -0.2814,-0.71623 -0.4888,-0.93628 -0.1862,-0.20312 -0.3745,-0.34277 -0.5649,-0.41894 -0.1904,-0.07618 -0.3999,-0.11426 -0.6284,-0.11426 -0.5205,0 -0.9352,0.1862 -1.2442,0.55859 -0.3089,0.3724 -0.4633,0.91195 -0.4633,1.61865 0,0.39779 0.0507,0.72575 0.1523,0.98389 0.1016,0.25814 0.2666,0.48031 0.4951,0.6665 0.1608,0.13119 0.3428,0.219 0.5459,0.26343 0.2032,0.04444 0.4211,0.06665 0.6538,0.06665 0.2709,0 0.5629,-0.0476 0.876,-0.14282 0.3132,-0.09521 0.5861,-0.22111 0.8189,-0.37768 0.0042,-0.06348 0.0095,-0.14706 0.0158,-0.25074 0.0064,-0.10368 0.0095,-0.21899 0.0095,-0.34594 m -4.8559,-0.8125 c 0,-0.48666 0.0793,-0.93099 0.238,-1.33301 0.1587,-0.40202 0.3756,-0.74903 0.6507,-1.04102 0.2623,-0.27929 0.5829,-0.49723 0.9616,-0.65381 0.3788,-0.15657 0.7628,-0.23486 1.1521,-0.23486 0.4359,0 0.8305,0.073 1.1839,0.21899 0.3533,0.146 0.6591,0.35653 0.91721,0.6316 0.32584,0.347 0.57869,0.80192 0.75854,1.36474 0.17985,0.56283 0.26978,1.27377 0.26978,2.13281 0,0.78288 -0.08781,1.5245 -0.26343,2.22486 -0.17562,0.70036 -0.43481,1.28117 -0.77759,1.74243 -0.36391,0.490885 -0.80081,0.865397 -1.31081,1.123535 -0.5099,0.258138 -1.1394,0.387207 -1.8884,0.387207 -0.1693,0 -0.3491,-0.009521 -0.5396,-0.028564 -0.1904,-0.019043 -0.3681,-0.053955 -0.5332,-0.1047367 V -1.16162 h 0.0635 c 0.1058,0.05924 0.2709,0.11637 0.4951,0.171386 0.2243,0.055013 0.4528,0.082519 0.6856,0.082519 0.8294,0 1.4811,-0.272945 1.9551,-0.818845 0.4739,-0.5459 0.7426,-1.32666 0.8061,-2.34229 -0.3385,0.22852 -0.6612,0.39567 -0.968,0.50147 -0.3068,0.10579 -0.6401,0.15869 -0.9998,0.15869 -0.3512,0 -0.6707,-0.03809 -0.9585,-0.11426 -0.2877,-0.07617 -0.5776,-0.22428 -0.8696,-0.44434 -0.3385,-0.25813 -0.5946,-0.58504 -0.7681,-0.98071 -0.1735,-0.39567 -0.2602,-0.8728 -0.2602,-1.43139 m 11.72265,-0.86963 c 0,-0.42318 -0.14177,-0.77653 -0.42529,-1.06006 -0.28353,-0.28353 -0.67709,-0.4253 -1.18067,-0.4253 -0.46126,0 -0.83895,0.12696 -1.13305,0.38086 -0.29411,0.25391 -0.44117,0.59668 -0.44117,1.02832 0,0.31316 0.07512,0.57764 0.22535,0.79346 0.15022,0.21582 0.37556,0.41048 0.67602,0.58399 0.13119,0.07194 0.33114,0.17138 0.59985,0.29834 0.26872,0.12695 0.51311,0.2264 0.73316,0.29834 0.36816,-0.28353 0.61784,-0.57447 0.74902,-0.87281 0.13119,-0.29834 0.19678,-0.64005 0.19678,-1.02514 m 0.17773,4.73535 c 0,-0.38932 -0.07617,-0.69824 -0.22851,-0.92676 -0.15235,-0.22852 -0.44645,-0.46126 -0.88233,-0.69824 -0.14388,-0.08041 -0.33536,-0.16716 -0.57446,-0.26026 -0.23909,-0.09309 -0.50887,-0.20312 -0.80933,-0.33007 -0.35123,0.23274 -0.61995,0.51945 -0.80615,0.8601 -0.1862,0.34066 -0.27929,0.72893 -0.27929,1.1648 0,0.57129 0.17244,1.04313 0.51733,1.41553 0.34489,0.372392 0.77759,0.55859 1.2981,0.55859 0.5332,0 0.96061,-0.15975 1.28222,-0.47925 0.32162,-0.3195 0.48242,-0.75431 0.48242,-1.30444 m -1.77734,2.72949 c -0.46973,0 -0.89714,-0.069824 -1.28223,-0.20947234 C -6.61898,-0.133301 -6.94694,-0.33431 -7.21777,-0.59668 c -0.26661,-0.253906 -0.46867,-0.55542 -0.6062,-0.90454 -0.13754,-0.34912 -0.2063,-0.71834 -0.2063,-1.10767 0,-0.51204 0.13647,-0.98283 0.40942,-1.41235 0.27295,-0.42952 0.66968,-0.77124 1.19019,-1.02515 v -0.03808 c -0.4655,-0.27084 -0.81039,-0.56706 -1.03467,-0.88867 -0.22429,-0.32162 -0.33643,-0.72364 -0.33643,-1.20606 0,-0.71094 0.26872,-1.30338 0.80615,-1.77734 0.53744,-0.47396 1.21875,-0.71094 2.04395,-0.71094 0.85905,0 1.54777,0.22534 2.06616,0.67602 0.51839,0.45069 0.77759,1.02727 0.77759,1.72974 0,0.42318 -0.12378,0.84212 -0.37134,1.25684 -0.24756,0.41471 -0.60408,0.73844 -1.06958,0.97119 v 0.03808 c 0.55013,0.25814 0.96696,0.57129 1.25049,0.93946 0.28353,0.36816 0.42529,0.84212 0.42529,1.42187 0,0.80827 -0.29305,1.48535 -0.87915,2.031253 -0.5861,0.5458981 -1.31925,0.818847 -2.19946,0.818847 m 6.62549,-2.0249 -1.777346,4.15771 H -1.03027 L 0.0869141,-1.80908 H 1.67383 M 9.12695,-8.03613 5.03906,0 H 3.68701 l 4.3291,-8.34082 H 3.12842 v -1.11084 h 5.99853 v 1.41553 M 15.873,0 H 14.4067 L 12.6865,-2.67871 10.9155,0 H 9.56348 L 12.0264,-3.5166 9.58887,-7.09033 h 1.46633 l 1.7075,2.65332 1.7519,-2.65332 H 15.873 L 13.4229,-3.59912 15.873,0"
         fill-rule="evenodd"
         vector-effect="none" />
    </g>
    <g
       id="g30"
       font-style="normal"
       font-weight="400"
       font-size="7.8px"
       font-family="'MS Shell Dlg 2'"
       transform="matrix(1.31605,0,0,1.31605,694.901,364.916)"
       stroke="none"
       fill-opacity="1"
       fill="#000000">
      <path
         id="path28"
         d="m -22.457,-13 h -4.6084 v -0.9648 h 1.7138 v -6.335 h -1.7138 v -0.8633 c 0.6474,0 1.1246,-0.092 1.4314,-0.2761 0.3068,-0.1841 0.4792,-0.5322 0.5173,-1.0442 h 0.9839 v 8.5186 h 1.6758 V -13 m 7.5268,-4.729 c 0,1.6969 -0.2465,2.9421 -0.7395,3.7356 -0.493,0.7934 -1.2536,1.1902 -2.282,1.1902 -1.041,0 -1.8048,-0.4042 -2.2915,-1.2124 -0.4866,-0.8083 -0.7299,-2.0419 -0.7299,-3.7007 0,-1.7054 0.2465,-2.9527 0.7395,-3.742 0.493,-0.7892 1.2536,-1.1838 2.2819,-1.1838 1.0411,0 1.8049,0.4084 2.2915,1.2251 0.4867,0.8167 0.73,2.0461 0.73,3.688 m -1.625,2.8818 c 0.1227,-0.3131 0.2095,-0.7088 0.2603,-1.187 0.0508,-0.4782 0.0761,-1.0431 0.0761,-1.6948 0,-0.6475 -0.0253,-1.2103 -0.0761,-1.6885 -0.0508,-0.4782 -0.1397,-0.876 -0.2666,-1.1933 -0.127,-0.3217 -0.3015,-0.566 -0.5237,-0.7332 -0.2222,-0.1671 -0.511,-0.2507 -0.8665,-0.2507 -0.3512,0 -0.64,0.0836 -0.8664,0.2507 -0.2264,0.1672 -0.4052,0.4158 -0.5364,0.7459 -0.1269,0.3216 -0.2137,0.7278 -0.2602,1.2187 -0.0466,0.4909 -0.0699,1.0453 -0.0699,1.6631 0,0.6601 0.0201,1.2124 0.0603,1.6567 0.0402,0.4444 0.128,0.8422 0.2635,1.1934 0.1227,0.3258 0.2972,0.5766 0.5236,0.7522 0.2264,0.1756 0.5216,0.2634 0.8855,0.2634 0.3513,0 0.6401,-0.0836 0.8665,-0.2507 0.2264,-0.1672 0.4031,-0.4158 0.53,-0.7459 m 12.62502,-2.8818 c 0,1.6969 -0.2465,2.9421 -0.7395,3.7356 -0.493,0.7934 -1.25366,1.1902 -2.28198,1.1902 -1.04102,0 -1.80485,-0.4042 -2.2915,-1.2124 -0.48666,-0.8083 -0.72998,-2.0419 -0.72998,-3.7007 0,-1.7054 0.2465,-2.9527 0.7395,-3.742 0.493,-0.7892 1.25366,-1.1838 2.28198,-1.1838 1.04102,0 1.80485,0.4084 2.2915,1.2251 0.48666,0.8167 0.72998,2.0461 0.72998,3.688 m -1.625,2.8818 c 0.12273,-0.3131 0.20948,-0.7088 0.26026,-1.187 0.05078,-0.4782 0.07617,-1.0431 0.07617,-1.6948 0,-0.6475 -0.02539,-1.2103 -0.07617,-1.6885 -0.05078,-0.4782 -0.13965,-0.876 -0.2666,-1.1933 -0.12696,-0.3217 -0.30152,-0.566 -0.52369,-0.7332 -0.22216,-0.1671 -0.51098,-0.2507 -0.86645,-0.2507 -0.35124,0 -0.64006,0.0836 -0.86646,0.2507 -0.22639,0.1672 -0.40519,0.4158 -0.53637,0.7459 -0.12696,0.3216 -0.21371,0.7278 -0.26026,1.2187 -0.04655,0.4909 -0.06982,1.0453 -0.06982,1.6631 0,0.6601 0.0201,1.2124 0.0603,1.6567 0.0402,0.4444 0.12801,0.8422 0.26343,1.1934 0.12272,0.3258 0.29728,0.5766 0.52368,0.7522 0.2264,0.1756 0.52157,0.2634 0.8855,0.2634 0.35124,0 0.64006,-0.0836 0.86645,-0.2507 0.2264,-0.1672 0.40308,-0.4158 0.53003,-0.7459 m 8.625,-2.8818 c 0,1.6969 -0.2465,2.9421 -0.7395,3.7356 -0.493,0.7934 -1.25366,1.1902 -2.2819802,1.1902 -1.0410158,0 -1.8048498,-0.4042 -2.2914998,-1.2124 -0.48666,-0.8083 -0.72998,-2.0419 -0.72998,-3.7007 0,-1.7054 0.2465,-2.9527 0.7395,-3.742 0.493,-0.7892 1.25366,-1.1838 2.2819798,-1.1838 1.0410202,0 1.8048502,0.4084 2.2915002,1.2251 0.48666,0.8167 0.72998,2.0461 0.72998,3.688 m -1.625,2.8818 c 0.12273,-0.3131 0.20948,-0.7088 0.26026,-1.187 0.05078,-0.4782 0.07617,-1.0431 0.07617,-1.6948 0,-0.6475 -0.02539,-1.2103 -0.07617,-1.6885 -0.05078,-0.4782 -0.13965,-0.876 -0.2666,-1.1933 -0.12696,-0.3217 -0.30152,-0.566 -0.523685,-0.7332 -0.222168,-0.1671 -0.510986,-0.2507 -0.8664552,-0.2507 -0.3512368,0 -0.6400548,0.0836 -0.8664548,0.2507 -0.226395,0.1672 -0.405195,0.4158 -0.536375,0.7459 -0.12696,0.3216 -0.21371,0.7278 -0.26026,1.2187 -0.04655,0.4909 -0.06982,1.0453 -0.06982,1.6631 0,0.6601 0.0201,1.2124 0.0603,1.6567 0.0402,0.4444 0.12801,0.8422 0.26343,1.1934 0.12272,0.3258 0.29728,0.5766 0.523682,0.7522 0.2264,0.1756 0.521566,0.2634 0.8854978,0.2634 0.3512372,0 0.6400552,-0.0836 0.8664552,-0.2507 0.226395,-0.1672 0.403075,-0.4158 0.530025,-0.7459 m 8.62498,-2.8818 c 0,1.6969 -0.24648,2.9421 -0.73948,3.7356 -0.493,0.7934 -1.25366,1.1902 -2.28198,1.1902 -1.04102,0 -1.80485,-0.4042 -2.2915,-1.2124 -0.48666,-0.8083 -0.72998,-2.0419 -0.72998,-3.7007 0,-1.7054 0.2465,-2.9527 0.7395,-3.742 0.493,-0.7892 1.25366,-1.1838 2.28198,-1.1838 1.04102,0 1.80485,0.4084 2.2915,1.2251 0.48666,0.8167 0.72996,2.0461 0.72996,3.688 m -1.62498,2.8818 c 0.12273,-0.3131 0.20948,-0.7088 0.26026,-1.187 0.05078,-0.4782 0.07617,-1.0431 0.07617,-1.6948 0,-0.6475 -0.02539,-1.2103 -0.07617,-1.6885 -0.05078,-0.4782 -0.13965,-0.876 -0.2666,-1.1933 -0.12696,-0.3217 -0.30152,-0.566 -0.52369,-0.7332 -0.22216,-0.1671 -0.51098,-0.2507 -0.86645,-0.2507 -0.35124,0 -0.64006,0.0836 -0.86646,0.2507 -0.22639,0.1672 -0.40519,0.4158 -0.53637,0.7459 -0.12696,0.3216 -0.21371,0.7278 -0.26026,1.2187 -0.04655,0.4909 -0.06982,1.0453 -0.06982,1.6631 0,0.6601 0.0201,1.2124 0.0603,1.6567 0.0402,0.4444 0.12801,0.8422 0.26343,1.1934 0.12272,0.3258 0.29728,0.5766 0.52368,0.7522 0.2264,0.1756 0.52157,0.2634 0.8855,0.2634 0.35124,0 0.64006,-0.0836 0.86645,-0.2507 0.2264,-0.1672 0.40308,-0.4158 0.53003,-0.7459 m 11.63478,-1.7202 c 0,-0.8463 -0.1291,-1.4885 -0.3872,-1.9265 -0.2582,-0.438 -0.6729,-0.657 -1.2442,-0.657 -0.3258,0 -0.6548,0.0762 -0.987,0.2285 -0.3322,0.1524 -0.6337,0.3449 -0.9046,0.5777 v 4.0625 c 0.3005,0.1481 0.5671,0.2528 0.7998,0.3142 0.2328,0.0613 0.4888,0.092 0.7681,0.092 0.6094,0 1.0876,-0.2158 1.4346,-0.6474 0.347,-0.4317 0.5205,-1.113 0.5205,-2.044 m 1.2314,-0.0952 c 0,1.1595 -0.2814,2.0926 -0.8442,2.7993 -0.5628,0.7067 -1.2674,1.0601 -2.1138,1.0601 -0.3851,0 -0.7141,-0.0476 -0.987,-0.1428 -0.273,-0.0953 -0.5428,-0.2233 -0.8094,-0.3841 L 16.4805,-13 h -1.1172 v -9.877 h 1.1933 v 3.5293 c 0.3005,-0.2708 0.6263,-0.4951 0.9776,-0.6728 0.3512,-0.1777 0.749,-0.2666 1.1933,-0.2666 0.7998,0 1.4304,0.3205 1.8916,0.9617 0.4613,0.6411 0.6919,1.5287 0.6919,2.6628 m 7,-0.0698 c 0,1.1806 -0.2824,2.1212 -0.8474,2.8215 -0.5649,0.7004 -1.279,1.0505 -2.1423,1.0505 -0.3512,0 -0.6623,-0.0402 -0.9331,-0.1206 -0.2708,-0.0804 -0.548,-0.2052 -0.8316,-0.3745 v 2.9707 h -1.1933 v -9.7055 h 1.1933 v 0.7426 c 0.2963,-0.2666 0.6253,-0.4898 0.9871,-0.6696 0.3618,-0.1799 0.7564,-0.2698 1.1838,-0.2698 0.8125,0 1.4462,0.3216 1.9012,0.9648 0.4549,0.6433 0.6823,1.5065 0.6823,2.5899 m -1.2314,0.1333 c 0,-0.8083 -0.1291,-1.4356 -0.3872,-1.8821 -0.2582,-0.4465 -0.6771,-0.6697 -1.2569,-0.6697 -0.3385,0 -0.6654,0.0751 -0.9807,0.2254 -0.3152,0.1502 -0.6146,0.3438 -0.8982,0.5808 v 4.018 c 0.3132,0.1524 0.5809,0.2561 0.803,0.3111 0.2222,0.055 0.4772,0.0825 0.7649,0.0825 0.6179,0 1.0982,-0.2264 1.4409,-0.6792 0.3428,-0.4528 0.5142,-1.1151 0.5142,-1.9868 m -37.2984,11.03221 c 0,-0.64323 -0.0592,-1.16692 -0.1777,-1.57105 -0.1185,-0.40413 -0.2814,-0.71623 -0.4888,-0.93628 -0.1862,-0.20312 -0.3745,-0.34277 -0.5649,-0.41894 -0.1904,-0.07618 -0.3999,-0.11426 -0.6284,-0.11426 -0.5205,0 -0.9352,0.1862 -1.2442,0.55859 -0.3089,0.3724 -0.4633,0.91195 -0.4633,1.61865 0,0.39779 0.0507,0.72575 0.1523,0.98389 0.1016,0.25814 0.2666,0.48031 0.4951,0.6665 0.1608,0.13119 0.3428,0.219 0.5459,0.26343 0.2032,0.04444 0.4211,0.06665 0.6538,0.06665 0.2709,0 0.5629,-0.0476 0.876,-0.14282 0.3132,-0.09521 0.5861,-0.22111 0.8189,-0.37768 0.0042,-0.06348 0.0095,-0.14706 0.0158,-0.25074 0.0064,-0.10368 0.0095,-0.21899 0.0095,-0.34594 m -4.8559,-0.8125 c 0,-0.48666 0.0793,-0.93099 0.238,-1.33301 0.1587,-0.40202 0.3756,-0.74903 0.6507,-1.04102 0.2623,-0.27929 0.5829,-0.49723 0.9616,-0.65381 0.3788,-0.15657 0.7628,-0.23486 1.1521,-0.23486 0.4359,0 0.8305,0.073 1.1839,0.21899 0.3533,0.146 0.6591,0.35653 0.91721,0.6316 0.32584,0.347 0.57869,0.80192 0.75854,1.36474 0.17985,0.56283 0.26978,1.27377 0.26978,2.13281 0,0.78288 -0.08781,1.5245 -0.26343,2.22486 -0.17562,0.70036 -0.43481,1.28117 -0.77759,1.74243 -0.36391,0.490885 -0.80081,0.865397 -1.31081,1.123535 -0.5099,0.258138 -1.1394,0.387207 -1.8884,0.387207 -0.1693,0 -0.3491,-0.009521 -0.5396,-0.028564 -0.1904,-0.019043 -0.3681,-0.053955 -0.5332,-0.1047367 V -1.16162 h 0.0635 c 0.1058,0.05924 0.2709,0.11637 0.4951,0.171386 0.2243,0.055013 0.4528,0.082519 0.6856,0.082519 0.8294,0 1.4811,-0.272945 1.9551,-0.818845 0.4739,-0.5459 0.7426,-1.32666 0.8061,-2.34229 -0.3385,0.22852 -0.6612,0.39567 -0.968,0.50147 -0.3068,0.10579 -0.6401,0.15869 -0.9998,0.15869 -0.3512,0 -0.6707,-0.03809 -0.9585,-0.11426 -0.2877,-0.07617 -0.5776,-0.22428 -0.8696,-0.44434 -0.3385,-0.25813 -0.5946,-0.58504 -0.7681,-0.98071 -0.1735,-0.39567 -0.2602,-0.8728 -0.2602,-1.43139 m 11.72265,-0.86963 c 0,-0.42318 -0.14177,-0.77653 -0.42529,-1.06006 -0.28353,-0.28353 -0.67709,-0.4253 -1.18067,-0.4253 -0.46126,0 -0.83895,0.12696 -1.13305,0.38086 -0.29411,0.25391 -0.44117,0.59668 -0.44117,1.02832 0,0.31316 0.07512,0.57764 0.22535,0.79346 0.15022,0.21582 0.37556,0.41048 0.67602,0.58399 0.13119,0.07194 0.33114,0.17138 0.59985,0.29834 0.26872,0.12695 0.51311,0.2264 0.73316,0.29834 0.36816,-0.28353 0.61784,-0.57447 0.74902,-0.87281 0.13119,-0.29834 0.19678,-0.64005 0.19678,-1.02514 m 0.17773,4.73535 c 0,-0.38932 -0.07617,-0.69824 -0.22851,-0.92676 -0.15235,-0.22852 -0.44645,-0.46126 -0.88233,-0.69824 -0.14388,-0.08041 -0.33536,-0.16716 -0.57446,-0.26026 -0.23909,-0.09309 -0.50887,-0.20312 -0.80933,-0.33007 -0.35123,0.23274 -0.61995,0.51945 -0.80615,0.8601 -0.1862,0.34066 -0.27929,0.72893 -0.27929,1.1648 0,0.57129 0.17244,1.04313 0.51733,1.41553 0.34489,0.372392 0.77759,0.55859 1.2981,0.55859 0.5332,0 0.96061,-0.15975 1.28222,-0.47925 0.32162,-0.3195 0.48242,-0.75431 0.48242,-1.30444 m -1.77734,2.72949 c -0.46973,0 -0.89714,-0.069824 -1.28223,-0.20947234 C -6.61898,-0.133301 -6.94694,-0.33431 -7.21777,-0.59668 c -0.26661,-0.253906 -0.46867,-0.55542 -0.6062,-0.90454 -0.13754,-0.34912 -0.2063,-0.71834 -0.2063,-1.10767 0,-0.51204 0.13647,-0.98283 0.40942,-1.41235 0.27295,-0.42952 0.66968,-0.77124 1.19019,-1.02515 v -0.03808 c -0.4655,-0.27084 -0.81039,-0.56706 -1.03467,-0.88867 -0.22429,-0.32162 -0.33643,-0.72364 -0.33643,-1.20606 0,-0.71094 0.26872,-1.30338 0.80615,-1.77734 0.53744,-0.47396 1.21875,-0.71094 2.04395,-0.71094 0.85905,0 1.54777,0.22534 2.06616,0.67602 0.51839,0.45069 0.77759,1.02727 0.77759,1.72974 0,0.42318 -0.12378,0.84212 -0.37134,1.25684 -0.24756,0.41471 -0.60408,0.73844 -1.06958,0.97119 v 0.03808 c 0.55013,0.25814 0.96696,0.57129 1.25049,0.93946 0.28353,0.36816 0.42529,0.84212 0.42529,1.42187 0,0.80827 -0.29305,1.48535 -0.87915,2.031253 -0.5861,0.5458981 -1.31925,0.818847 -2.19946,0.818847 m 6.62549,-2.0249 -1.777346,4.15771 H -1.03027 L 0.0869141,-1.80908 H 1.67383 M 9.12695,-8.03613 5.03906,0 H 3.68701 l 4.3291,-8.34082 H 3.12842 v -1.11084 h 5.99853 v 1.41553 M 15.873,0 H 14.4067 L 12.6865,-2.67871 10.9155,0 H 9.56348 L 12.0264,-3.5166 9.58887,-7.09033 h 1.46633 l 1.7075,2.65332 1.7519,-2.65332 H 15.873 L 13.4229,-3.59912 15.873,0"
         fill-rule="evenodd"
         vector-effect="none" />
    </g>
    <g
       id="g32"
       font-style="normal"
       font-weight="400"
       font-size="7.8px"
       font-family="'MS Shell Dlg 2'"
       transform="matrix(5.01268,0,0,5.01268,-57,223)"
       stroke-linejoin="bevel"
       stroke-linecap="square"
       stroke-width="1"
       stroke-opacity="1"
       stroke="#000000"
       fill="none" />
    <g
       id="g34"
       font-style="normal"
       font-weight="400"
       font-size="7.8px"
       font-family="'MS Shell Dlg 2'"
       transform="matrix(5.01268,0,0,5.01268,-57,223)"
       stroke-linejoin="bevel"
       stroke-linecap="square"
       stroke-width="1"
       stroke-opacity="1"
       stroke="#000000"
       fill="none" />
    <g
       id="g38"
       font-style="normal"
       font-weight="400"
       font-size="7.8px"
       font-family="'MS Shell Dlg 2'"
       transform="matrix(5.01268,0,0,5.01268,-57,223)"
       stroke="none"
       fill-opacity="1"
       fill="#cbc962">
      <path
         id="path36"
         d="m 25.1837,54.776 17.7374,-1.17 c 0.004,-4e-4 0.0081,-6e-4 0.0116,-9e-4 l 6e-4,1e-4 18.1837,-1.1102 c 0.0055,-4e-4 0.0111,-7e-4 0.0162,-10e-4 l 6e-4,1e-4 19.0016,-1.0315 c 0.0052,-4e-4 0.0104,-6e-4 0.0151,-9e-4 l 6e-4,10e-5 19.6288,-0.9422 c 0.0066,-3e-4 0.0133,-6e-4 0.0195,-9e-4 h 5e-4 l 20.0411,-0.8009 c 0.008,-4e-4 0.016,-7e-4 0.024,-9e-4 v 0 l 20.272,-0.6129 c 0.011,-3e-4 0.021,-6e-4 0.031,-7e-4 h 0.001 l 20.344,-0.3619 c 0.015,-2e-4 0.03,-4e-4 0.045,-4e-4 1.38,0 2.5,1.1193 2.5,2.5 0,1.3808 -1.12,2.5001 -2.5,2.5001 -1.381,0 -2.5,-1.1193 -2.5,-2.5001 0,-1.3508 1.071,-2.4514 2.41,-2.4984 l 0.09,-0.0016 20.265,0.003 c 0.011,0 0.022,1e-4 0.033,2e-4 v 0 l 20.028,0.2655 c 0.009,10e-5 0.018,3e-4 0.027,5e-4 v 0 l 19.61,0.4768 c 0.009,2e-4 0.017,4e-4 0.026,7e-4 v 0 l 18.976,0.6566 c 0.009,3e-4 0.018,6e-4 0.025,9e-4 v 10e-5 l 18.155,0.8088 c 0.007,3e-4 0.014,6e-4 0.02,9e-4 v 1e-4 l 17.705,0.9352 -0.263,4.993 -17.705,-0.9351 0.132,-2.4966 -0.112,2.4976 -18.154,-0.8088 0.111,-2.4976 -0.086,2.4985 -18.977,-0.6565 0.086,-2.4985 -0.061,2.4993 -19.609,-0.4768 0.06,-2.4993 -0.033,2.4998 -20.027,-0.2655 0.033,-2.4998 -0.001,2.5001 -20.265,-0.003 0.001,-2.5001 0.044,2.4997 -20.344,0.3618 -0.045,-2.4996 0.076,2.4989 -20.273,0.6129 -0.075,-2.4989 0.1,2.498 -20.0414,0.801 -0.0999,-2.498 0.1203,2.4971 -19.6292,0.9421 -0.1199,-2.4971 0.1355,2.4963 -19.0016,1.0315 -0.1355,-2.4963 0.1524,2.4954 -18.1837,1.1101 -0.1523,-2.4953 0.1645,2.4946 -17.7374,1.17 -0.3291,-4.9892"
         fill-rule="nonzero"
         vector-effect="none" />
    </g>
    <g
       id="g42"
       font-style="normal"
       font-weight="400"
       font-size="7.8px"
       font-family="'MS Shell Dlg 2'"
       transform="matrix(1.31605,0,0,1.31605,696.3,497.37)"
       stroke-linejoin="round"
       stroke-linecap="square"
       stroke-width="3"
       stroke-opacity="1"
       stroke="#ffffff"
       fill="none">
      <path
         id="path40"
         d="m -22.457,-13 h -4.6084 v -0.9648 h 1.7138 v -6.335 h -1.7138 v -0.8633 c 0.6474,0 1.1246,-0.092 1.4314,-0.2761 0.3068,-0.1841 0.4792,-0.5322 0.5173,-1.0442 h 0.9839 v 8.5186 h 1.6758 V -13 m 7.5268,-4.729 c 0,1.6969 -0.2465,2.9421 -0.7395,3.7356 -0.493,0.7934 -1.2536,1.1902 -2.282,1.1902 -1.041,0 -1.8048,-0.4042 -2.2915,-1.2124 -0.4866,-0.8083 -0.7299,-2.0419 -0.7299,-3.7007 0,-1.7054 0.2465,-2.9527 0.7395,-3.742 0.493,-0.7892 1.2536,-1.1838 2.2819,-1.1838 1.0411,0 1.8049,0.4084 2.2915,1.2251 0.4867,0.8167 0.73,2.0461 0.73,3.688 m -1.625,2.8818 c 0.1227,-0.3131 0.2095,-0.7088 0.2603,-1.187 0.0508,-0.4782 0.0761,-1.0431 0.0761,-1.6948 0,-0.6475 -0.0253,-1.2103 -0.0761,-1.6885 -0.0508,-0.4782 -0.1397,-0.876 -0.2666,-1.1933 -0.127,-0.3217 -0.3015,-0.566 -0.5237,-0.7332 -0.2222,-0.1671 -0.511,-0.2507 -0.8665,-0.2507 -0.3512,0 -0.64,0.0836 -0.8664,0.2507 -0.2264,0.1672 -0.4052,0.4158 -0.5364,0.7459 -0.1269,0.3216 -0.2137,0.7278 -0.2602,1.2187 -0.0466,0.4909 -0.0699,1.0453 -0.0699,1.6631 0,0.6601 0.0201,1.2124 0.0603,1.6567 0.0402,0.4444 0.128,0.8422 0.2635,1.1934 0.1227,0.3258 0.2972,0.5766 0.5236,0.7522 0.2264,0.1756 0.5216,0.2634 0.8855,0.2634 0.3513,0 0.6401,-0.0836 0.8665,-0.2507 0.2264,-0.1672 0.4031,-0.4158 0.53,-0.7459 m 12.62502,-2.8818 c 0,1.6969 -0.2465,2.9421 -0.7395,3.7356 -0.493,0.7934 -1.25366,1.1902 -2.28198,1.1902 -1.04102,0 -1.80485,-0.4042 -2.2915,-1.2124 -0.48666,-0.8083 -0.72998,-2.0419 -0.72998,-3.7007 0,-1.7054 0.2465,-2.9527 0.7395,-3.742 0.493,-0.7892 1.25366,-1.1838 2.28198,-1.1838 1.04102,0 1.80485,0.4084 2.2915,1.2251 0.48666,0.8167 0.72998,2.0461 0.72998,3.688 m -1.625,2.8818 c 0.12273,-0.3131 0.20948,-0.7088 0.26026,-1.187 0.05078,-0.4782 0.07617,-1.0431 0.07617,-1.6948 0,-0.6475 -0.02539,-1.2103 -0.07617,-1.6885 -0.05078,-0.4782 -0.13965,-0.876 -0.2666,-1.1933 -0.12696,-0.3217 -0.30152,-0.566 -0.52369,-0.7332 -0.22216,-0.1671 -0.51098,-0.2507 -0.86645,-0.2507 -0.35124,0 -0.64006,0.0836 -0.86646,0.2507 -0.22639,0.1672 -0.40519,0.4158 -0.53637,0.7459 -0.12696,0.3216 -0.21371,0.7278 -0.26026,1.2187 -0.04655,0.4909 -0.06982,1.0453 -0.06982,1.6631 0,0.6601 0.0201,1.2124 0.0603,1.6567 0.0402,0.4444 0.12801,0.8422 0.26343,1.1934 0.12272,0.3258 0.29728,0.5766 0.52368,0.7522 0.2264,0.1756 0.52157,0.2634 0.8855,0.2634 0.35124,0 0.64006,-0.0836 0.86645,-0.2507 0.2264,-0.1672 0.40308,-0.4158 0.53003,-0.7459 m 8.625,-2.8818 c 0,1.6969 -0.2465,2.9421 -0.7395,3.7356 -0.493,0.7934 -1.25366,1.1902 -2.2819802,1.1902 -1.0410158,0 -1.8048498,-0.4042 -2.2914998,-1.2124 -0.48666,-0.8083 -0.72998,-2.0419 -0.72998,-3.7007 0,-1.7054 0.2465,-2.9527 0.7395,-3.742 0.493,-0.7892 1.25366,-1.1838 2.2819798,-1.1838 1.0410202,0 1.8048502,0.4084 2.2915002,1.2251 0.48666,0.8167 0.72998,2.0461 0.72998,3.688 m -1.625,2.8818 c 0.12273,-0.3131 0.20948,-0.7088 0.26026,-1.187 0.05078,-0.4782 0.07617,-1.0431 0.07617,-1.6948 0,-0.6475 -0.02539,-1.2103 -0.07617,-1.6885 -0.05078,-0.4782 -0.13965,-0.876 -0.2666,-1.1933 -0.12696,-0.3217 -0.30152,-0.566 -0.523685,-0.7332 -0.222168,-0.1671 -0.510986,-0.2507 -0.8664552,-0.2507 -0.3512368,0 -0.6400548,0.0836 -0.8664548,0.2507 -0.226395,0.1672 -0.405195,0.4158 -0.536375,0.7459 -0.12696,0.3216 -0.21371,0.7278 -0.26026,1.2187 -0.04655,0.4909 -0.06982,1.0453 -0.06982,1.6631 0,0.6601 0.0201,1.2124 0.0603,1.6567 0.0402,0.4444 0.12801,0.8422 0.26343,1.1934 0.12272,0.3258 0.29728,0.5766 0.523682,0.7522 0.2264,0.1756 0.521566,0.2634 0.8854978,0.2634 0.3512372,0 0.6400552,-0.0836 0.8664552,-0.2507 0.226395,-0.1672 0.403075,-0.4158 0.530025,-0.7459 m 8.62498,-2.8818 c 0,1.6969 -0.24648,2.9421 -0.73948,3.7356 -0.493,0.7934 -1.25366,1.1902 -2.28198,1.1902 -1.04102,0 -1.80485,-0.4042 -2.2915,-1.2124 -0.48666,-0.8083 -0.72998,-2.0419 -0.72998,-3.7007 0,-1.7054 0.2465,-2.9527 0.7395,-3.742 0.493,-0.7892 1.25366,-1.1838 2.28198,-1.1838 1.04102,0 1.80485,0.4084 2.2915,1.2251 0.48666,0.8167 0.72996,2.0461 0.72996,3.688 m -1.62498,2.8818 c 0.12273,-0.3131 0.20948,-0.7088 0.26026,-1.187 0.05078,-0.4782 0.07617,-1.0431 0.07617,-1.6948 0,-0.6475 -0.02539,-1.2103 -0.07617,-1.6885 -0.05078,-0.4782 -0.13965,-0.876 -0.2666,-1.1933 -0.12696,-0.3217 -0.30152,-0.566 -0.52369,-0.7332 -0.22216,-0.1671 -0.51098,-0.2507 -0.86645,-0.2507 -0.35124,0 -0.64006,0.0836 -0.86646,0.2507 -0.22639,0.1672 -0.40519,0.4158 -0.53637,0.7459 -0.12696,0.3216 -0.21371,0.7278 -0.26026,1.2187 -0.04655,0.4909 -0.06982,1.0453 -0.06982,1.6631 0,0.6601 0.0201,1.2124 0.0603,1.6567 0.0402,0.4444 0.12801,0.8422 0.26343,1.1934 0.12272,0.3258 0.29728,0.5766 0.52368,0.7522 0.2264,0.1756 0.52157,0.2634 0.8855,0.2634 0.35124,0 0.64006,-0.0836 0.86645,-0.2507 0.2264,-0.1672 0.40308,-0.4158 0.53003,-0.7459 m 11.63478,-1.7202 c 0,-0.8463 -0.1291,-1.4885 -0.3872,-1.9265 -0.2582,-0.438 -0.6729,-0.657 -1.2442,-0.657 -0.3258,0 -0.6548,0.0762 -0.987,0.2285 -0.3322,0.1524 -0.6337,0.3449 -0.9046,0.5777 v 4.0625 c 0.3005,0.1481 0.5671,0.2528 0.7998,0.3142 0.2328,0.0613 0.4888,0.092 0.7681,0.092 0.6094,0 1.0876,-0.2158 1.4346,-0.6474 0.347,-0.4317 0.5205,-1.113 0.5205,-2.044 m 1.2314,-0.0952 c 0,1.1595 -0.2814,2.0926 -0.8442,2.7993 -0.5628,0.7067 -1.2674,1.0601 -2.1138,1.0601 -0.3851,0 -0.7141,-0.0476 -0.987,-0.1428 -0.273,-0.0953 -0.5428,-0.2233 -0.8094,-0.3841 L 16.4805,-13 h -1.1172 v -9.877 h 1.1933 v 3.5293 c 0.3005,-0.2708 0.6263,-0.4951 0.9776,-0.6728 0.3512,-0.1777 0.749,-0.2666 1.1933,-0.2666 0.7998,0 1.4304,0.3205 1.8916,0.9617 0.4613,0.6411 0.6919,1.5287 0.6919,2.6628 m 7,-0.0698 c 0,1.1806 -0.2824,2.1212 -0.8474,2.8215 -0.5649,0.7004 -1.279,1.0505 -2.1423,1.0505 -0.3512,0 -0.6623,-0.0402 -0.9331,-0.1206 -0.2708,-0.0804 -0.548,-0.2052 -0.8316,-0.3745 v 2.9707 h -1.1933 v -9.7055 h 1.1933 v 0.7426 c 0.2963,-0.2666 0.6253,-0.4898 0.9871,-0.6696 0.3618,-0.1799 0.7564,-0.2698 1.1838,-0.2698 0.8125,0 1.4462,0.3216 1.9012,0.9648 0.4549,0.6433 0.6823,1.5065 0.6823,2.5899 m -1.2314,0.1333 c 0,-0.8083 -0.1291,-1.4356 -0.3872,-1.8821 -0.2582,-0.4465 -0.6771,-0.6697 -1.2569,-0.6697 -0.3385,0 -0.6654,0.0751 -0.9807,0.2254 -0.3152,0.1502 -0.6146,0.3438 -0.8982,0.5808 v 4.018 c 0.3132,0.1524 0.5809,0.2561 0.803,0.3111 0.2222,0.055 0.4772,0.0825 0.7649,0.0825 0.6179,0 1.0982,-0.2264 1.4409,-0.6792 0.3428,-0.4528 0.5142,-1.1151 0.5142,-1.9868 m -37.2984,11.03221 c 0,-0.64323 -0.0592,-1.16692 -0.1777,-1.57105 -0.1185,-0.40413 -0.2814,-0.71623 -0.4888,-0.93628 -0.1862,-0.20312 -0.3745,-0.34277 -0.5649,-0.41894 -0.1904,-0.07618 -0.3999,-0.11426 -0.6284,-0.11426 -0.5205,0 -0.9352,0.1862 -1.2442,0.55859 -0.3089,0.3724 -0.4633,0.91195 -0.4633,1.61865 0,0.39779 0.0507,0.72575 0.1523,0.98389 0.1016,0.25814 0.2666,0.48031 0.4951,0.6665 0.1608,0.13119 0.3428,0.219 0.5459,0.26343 0.2032,0.04444 0.4211,0.06665 0.6538,0.06665 0.2709,0 0.5629,-0.0476 0.876,-0.14282 0.3132,-0.09521 0.5861,-0.22111 0.8189,-0.37768 0.0042,-0.06348 0.0095,-0.14706 0.0158,-0.25074 0.0064,-0.10368 0.0095,-0.21899 0.0095,-0.34594 m -4.8559,-0.8125 c 0,-0.48666 0.0793,-0.93099 0.238,-1.33301 0.1587,-0.40202 0.3756,-0.74903 0.6507,-1.04102 0.2623,-0.27929 0.5829,-0.49723 0.9616,-0.65381 0.3788,-0.15657 0.7628,-0.23486 1.1521,-0.23486 0.4359,0 0.8305,0.073 1.1839,0.21899 0.3533,0.146 0.6591,0.35653 0.91721,0.6316 0.32584,0.347 0.57869,0.80192 0.75854,1.36474 0.17985,0.56283 0.26978,1.27377 0.26978,2.13281 0,0.78288 -0.08781,1.5245 -0.26343,2.22486 -0.17562,0.70036 -0.43481,1.28117 -0.77759,1.74243 -0.36391,0.490885 -0.80081,0.865397 -1.31081,1.123535 -0.5099,0.258138 -1.1394,0.387207 -1.8884,0.387207 -0.1693,0 -0.3491,-0.009521 -0.5396,-0.028564 -0.1904,-0.019043 -0.3681,-0.053955 -0.5332,-0.1047367 V -1.16162 h 0.0635 c 0.1058,0.05924 0.2709,0.11637 0.4951,0.171386 0.2243,0.055013 0.4528,0.082519 0.6856,0.082519 0.8294,0 1.4811,-0.272945 1.9551,-0.818845 0.4739,-0.5459 0.7426,-1.32666 0.8061,-2.34229 -0.3385,0.22852 -0.6612,0.39567 -0.968,0.50147 -0.3068,0.10579 -0.6401,0.15869 -0.9998,0.15869 -0.3512,0 -0.6707,-0.03809 -0.9585,-0.11426 -0.2877,-0.07617 -0.5776,-0.22428 -0.8696,-0.44434 -0.3385,-0.25813 -0.5946,-0.58504 -0.7681,-0.98071 -0.1735,-0.39567 -0.2602,-0.8728 -0.2602,-1.43139 m 11.72265,-0.86963 c 0,-0.42318 -0.14177,-0.77653 -0.42529,-1.06006 -0.28353,-0.28353 -0.67709,-0.4253 -1.18067,-0.4253 -0.46126,0 -0.83895,0.12696 -1.13305,0.38086 -0.29411,0.25391 -0.44117,0.59668 -0.44117,1.02832 0,0.31316 0.07512,0.57764 0.22535,0.79346 0.15022,0.21582 0.37556,0.41048 0.67602,0.58399 0.13119,0.07194 0.33114,0.17138 0.59985,0.29834 0.26872,0.12695 0.51311,0.2264 0.73316,0.29834 0.36816,-0.28353 0.61784,-0.57447 0.74902,-0.87281 0.13119,-0.29834 0.19678,-0.64005 0.19678,-1.02514 m 0.17773,4.73535 c 0,-0.38932 -0.07617,-0.69824 -0.22851,-0.92676 -0.15235,-0.22852 -0.44645,-0.46126 -0.88233,-0.69824 -0.14388,-0.08041 -0.33536,-0.16716 -0.57446,-0.26026 -0.23909,-0.09309 -0.50887,-0.20312 -0.80933,-0.33007 -0.35123,0.23274 -0.61995,0.51945 -0.80615,0.8601 -0.1862,0.34066 -0.27929,0.72893 -0.27929,1.1648 0,0.57129 0.17244,1.04313 0.51733,1.41553 0.34489,0.372392 0.77759,0.55859 1.2981,0.55859 0.5332,0 0.96061,-0.15975 1.28222,-0.47925 0.32162,-0.3195 0.48242,-0.75431 0.48242,-1.30444 m -1.77734,2.72949 c -0.46973,0 -0.89714,-0.069824 -1.28223,-0.20947234 C -6.61898,-0.133301 -6.94694,-0.33431 -7.21777,-0.59668 c -0.26661,-0.253906 -0.46867,-0.55542 -0.6062,-0.90454 -0.13754,-0.34912 -0.2063,-0.71834 -0.2063,-1.10767 0,-0.51204 0.13647,-0.98283 0.40942,-1.41235 0.27295,-0.42952 0.66968,-0.77124 1.19019,-1.02515 v -0.03808 c -0.4655,-0.27084 -0.81039,-0.56706 -1.03467,-0.88867 -0.22429,-0.32162 -0.33643,-0.72364 -0.33643,-1.20606 0,-0.71094 0.26872,-1.30338 0.80615,-1.77734 0.53744,-0.47396 1.21875,-0.71094 2.04395,-0.71094 0.85905,0 1.54777,0.22534 2.06616,0.67602 0.51839,0.45069 0.77759,1.02727 0.77759,1.72974 0,0.42318 -0.12378,0.84212 -0.37134,1.25684 -0.24756,0.41471 -0.60408,0.73844 -1.06958,0.97119 v 0.03808 c 0.55013,0.25814 0.96696,0.57129 1.25049,0.93946 0.28353,0.36816 0.42529,0.84212 0.42529,1.42187 0,0.80827 -0.29305,1.48535 -0.87915,2.031253 -0.5861,0.5458981 -1.31925,0.818847 -2.19946,0.818847 m 6.62549,-2.0249 -1.777346,4.15771 H -1.03027 L 0.0869141,-1.80908 H 1.67383 M 9.12695,-8.03613 5.03906,0 H 3.68701 l 4.3291,-8.34082 H 3.12842 v -1.11084 h 5.99853 v 1.41553 M 15.873,0 H 14.4067 L 12.6865,-2.67871 10.9155,0 H 9.56348 L 12.0264,-3.5166 9.58887,-7.09033 h 1.46633 l 1.7075,2.65332 1.7519,-2.65332 H 15.873 L 13.4229,-3.59912 15.873,0"
         fill-rule="evenodd"
         vector-effect="none" />
    </g>
    <g
       id="g46"
       font-style="normal"
       font-weight="400"
       font-size="7.8px"
       font-family="'MS Shell Dlg 2'"
       transform="matrix(1.31605,0,0,1.31605,696.3,497.37)"
       stroke="none"
       fill-opacity="1"
       fill="#000000">
      <path
         id="path44"
         d="m -22.457,-13 h -4.6084 v -0.9648 h 1.7138 v -6.335 h -1.7138 v -0.8633 c 0.6474,0 1.1246,-0.092 1.4314,-0.2761 0.3068,-0.1841 0.4792,-0.5322 0.5173,-1.0442 h 0.9839 v 8.5186 h 1.6758 V -13 m 7.5268,-4.729 c 0,1.6969 -0.2465,2.9421 -0.7395,3.7356 -0.493,0.7934 -1.2536,1.1902 -2.282,1.1902 -1.041,0 -1.8048,-0.4042 -2.2915,-1.2124 -0.4866,-0.8083 -0.7299,-2.0419 -0.7299,-3.7007 0,-1.7054 0.2465,-2.9527 0.7395,-3.742 0.493,-0.7892 1.2536,-1.1838 2.2819,-1.1838 1.0411,0 1.8049,0.4084 2.2915,1.2251 0.4867,0.8167 0.73,2.0461 0.73,3.688 m -1.625,2.8818 c 0.1227,-0.3131 0.2095,-0.7088 0.2603,-1.187 0.0508,-0.4782 0.0761,-1.0431 0.0761,-1.6948 0,-0.6475 -0.0253,-1.2103 -0.0761,-1.6885 -0.0508,-0.4782 -0.1397,-0.876 -0.2666,-1.1933 -0.127,-0.3217 -0.3015,-0.566 -0.5237,-0.7332 -0.2222,-0.1671 -0.511,-0.2507 -0.8665,-0.2507 -0.3512,0 -0.64,0.0836 -0.8664,0.2507 -0.2264,0.1672 -0.4052,0.4158 -0.5364,0.7459 -0.1269,0.3216 -0.2137,0.7278 -0.2602,1.2187 -0.0466,0.4909 -0.0699,1.0453 -0.0699,1.6631 0,0.6601 0.0201,1.2124 0.0603,1.6567 0.0402,0.4444 0.128,0.8422 0.2635,1.1934 0.1227,0.3258 0.2972,0.5766 0.5236,0.7522 0.2264,0.1756 0.5216,0.2634 0.8855,0.2634 0.3513,0 0.6401,-0.0836 0.8665,-0.2507 0.2264,-0.1672 0.4031,-0.4158 0.53,-0.7459 m 12.62502,-2.8818 c 0,1.6969 -0.2465,2.9421 -0.7395,3.7356 -0.493,0.7934 -1.25366,1.1902 -2.28198,1.1902 -1.04102,0 -1.80485,-0.4042 -2.2915,-1.2124 -0.48666,-0.8083 -0.72998,-2.0419 -0.72998,-3.7007 0,-1.7054 0.2465,-2.9527 0.7395,-3.742 0.493,-0.7892 1.25366,-1.1838 2.28198,-1.1838 1.04102,0 1.80485,0.4084 2.2915,1.2251 0.48666,0.8167 0.72998,2.0461 0.72998,3.688 m -1.625,2.8818 c 0.12273,-0.3131 0.20948,-0.7088 0.26026,-1.187 0.05078,-0.4782 0.07617,-1.0431 0.07617,-1.6948 0,-0.6475 -0.02539,-1.2103 -0.07617,-1.6885 -0.05078,-0.4782 -0.13965,-0.876 -0.2666,-1.1933 -0.12696,-0.3217 -0.30152,-0.566 -0.52369,-0.7332 -0.22216,-0.1671 -0.51098,-0.2507 -0.86645,-0.2507 -0.35124,0 -0.64006,0.0836 -0.86646,0.2507 -0.22639,0.1672 -0.40519,0.4158 -0.53637,0.7459 -0.12696,0.3216 -0.21371,0.7278 -0.26026,1.2187 -0.04655,0.4909 -0.06982,1.0453 -0.06982,1.6631 0,0.6601 0.0201,1.2124 0.0603,1.6567 0.0402,0.4444 0.12801,0.8422 0.26343,1.1934 0.12272,0.3258 0.29728,0.5766 0.52368,0.7522 0.2264,0.1756 0.52157,0.2634 0.8855,0.2634 0.35124,0 0.64006,-0.0836 0.86645,-0.2507 0.2264,-0.1672 0.40308,-0.4158 0.53003,-0.7459 m 8.625,-2.8818 c 0,1.6969 -0.2465,2.9421 -0.7395,3.7356 -0.493,0.7934 -1.25366,1.1902 -2.2819802,1.1902 -1.0410158,0 -1.8048498,-0.4042 -2.2914998,-1.2124 -0.48666,-0.8083 -0.72998,-2.0419 -0.72998,-3.7007 0,-1.7054 0.2465,-2.9527 0.7395,-3.742 0.493,-0.7892 1.25366,-1.1838 2.2819798,-1.1838 1.0410202,0 1.8048502,0.4084 2.2915002,1.2251 0.48666,0.8167 0.72998,2.0461 0.72998,3.688 m -1.625,2.8818 c 0.12273,-0.3131 0.20948,-0.7088 0.26026,-1.187 0.05078,-0.4782 0.07617,-1.0431 0.07617,-1.6948 0,-0.6475 -0.02539,-1.2103 -0.07617,-1.6885 -0.05078,-0.4782 -0.13965,-0.876 -0.2666,-1.1933 -0.12696,-0.3217 -0.30152,-0.566 -0.523685,-0.7332 -0.222168,-0.1671 -0.510986,-0.2507 -0.8664552,-0.2507 -0.3512368,0 -0.6400548,0.0836 -0.8664548,0.2507 -0.226395,0.1672 -0.405195,0.4158 -0.536375,0.7459 -0.12696,0.3216 -0.21371,0.7278 -0.26026,1.2187 -0.04655,0.4909 -0.06982,1.0453 -0.06982,1.6631 0,0.6601 0.0201,1.2124 0.0603,1.6567 0.0402,0.4444 0.12801,0.8422 0.26343,1.1934 0.12272,0.3258 0.29728,0.5766 0.523682,0.7522 0.2264,0.1756 0.521566,0.2634 0.8854978,0.2634 0.3512372,0 0.6400552,-0.0836 0.8664552,-0.2507 0.226395,-0.1672 0.403075,-0.4158 0.530025,-0.7459 m 8.62498,-2.8818 c 0,1.6969 -0.24648,2.9421 -0.73948,3.7356 -0.493,0.7934 -1.25366,1.1902 -2.28198,1.1902 -1.04102,0 -1.80485,-0.4042 -2.2915,-1.2124 -0.48666,-0.8083 -0.72998,-2.0419 -0.72998,-3.7007 0,-1.7054 0.2465,-2.9527 0.7395,-3.742 0.493,-0.7892 1.25366,-1.1838 2.28198,-1.1838 1.04102,0 1.80485,0.4084 2.2915,1.2251 0.48666,0.8167 0.72996,2.0461 0.72996,3.688 m -1.62498,2.8818 c 0.12273,-0.3131 0.20948,-0.7088 0.26026,-1.187 0.05078,-0.4782 0.07617,-1.0431 0.07617,-1.6948 0,-0.6475 -0.02539,-1.2103 -0.07617,-1.6885 -0.05078,-0.4782 -0.13965,-0.876 -0.2666,-1.1933 -0.12696,-0.3217 -0.30152,-0.566 -0.52369,-0.7332 -0.22216,-0.1671 -0.51098,-0.2507 -0.86645,-0.2507 -0.35124,0 -0.64006,0.0836 -0.86646,0.2507 -0.22639,0.1672 -0.40519,0.4158 -0.53637,0.7459 -0.12696,0.3216 -0.21371,0.7278 -0.26026,1.2187 -0.04655,0.4909 -0.06982,1.0453 -0.06982,1.6631 0,0.6601 0.0201,1.2124 0.0603,1.6567 0.0402,0.4444 0.12801,0.8422 0.26343,1.1934 0.12272,0.3258 0.29728,0.5766 0.52368,0.7522 0.2264,0.1756 0.52157,0.2634 0.8855,0.2634 0.35124,0 0.64006,-0.0836 0.86645,-0.2507 0.2264,-0.1672 0.40308,-0.4158 0.53003,-0.7459 m 11.63478,-1.7202 c 0,-0.8463 -0.1291,-1.4885 -0.3872,-1.9265 -0.2582,-0.438 -0.6729,-0.657 -1.2442,-0.657 -0.3258,0 -0.6548,0.0762 -0.987,0.2285 -0.3322,0.1524 -0.6337,0.3449 -0.9046,0.5777 v 4.0625 c 0.3005,0.1481 0.5671,0.2528 0.7998,0.3142 0.2328,0.0613 0.4888,0.092 0.7681,0.092 0.6094,0 1.0876,-0.2158 1.4346,-0.6474 0.347,-0.4317 0.5205,-1.113 0.5205,-2.044 m 1.2314,-0.0952 c 0,1.1595 -0.2814,2.0926 -0.8442,2.7993 -0.5628,0.7067 -1.2674,1.0601 -2.1138,1.0601 -0.3851,0 -0.7141,-0.0476 -0.987,-0.1428 -0.273,-0.0953 -0.5428,-0.2233 -0.8094,-0.3841 L 16.4805,-13 h -1.1172 v -9.877 h 1.1933 v 3.5293 c 0.3005,-0.2708 0.6263,-0.4951 0.9776,-0.6728 0.3512,-0.1777 0.749,-0.2666 1.1933,-0.2666 0.7998,0 1.4304,0.3205 1.8916,0.9617 0.4613,0.6411 0.6919,1.5287 0.6919,2.6628 m 7,-0.0698 c 0,1.1806 -0.2824,2.1212 -0.8474,2.8215 -0.5649,0.7004 -1.279,1.0505 -2.1423,1.0505 -0.3512,0 -0.6623,-0.0402 -0.9331,-0.1206 -0.2708,-0.0804 -0.548,-0.2052 -0.8316,-0.3745 v 2.9707 h -1.1933 v -9.7055 h 1.1933 v 0.7426 c 0.2963,-0.2666 0.6253,-0.4898 0.9871,-0.6696 0.3618,-0.1799 0.7564,-0.2698 1.1838,-0.2698 0.8125,0 1.4462,0.3216 1.9012,0.9648 0.4549,0.6433 0.6823,1.5065 0.6823,2.5899 m -1.2314,0.1333 c 0,-0.8083 -0.1291,-1.4356 -0.3872,-1.8821 -0.2582,-0.4465 -0.6771,-0.6697 -1.2569,-0.6697 -0.3385,0 -0.6654,0.0751 -0.9807,0.2254 -0.3152,0.1502 -0.6146,0.3438 -0.8982,0.5808 v 4.018 c 0.3132,0.1524 0.5809,0.2561 0.803,0.3111 0.2222,0.055 0.4772,0.0825 0.7649,0.0825 0.6179,0 1.0982,-0.2264 1.4409,-0.6792 0.3428,-0.4528 0.5142,-1.1151 0.5142,-1.9868 m -37.2984,11.03221 c 0,-0.64323 -0.0592,-1.16692 -0.1777,-1.57105 -0.1185,-0.40413 -0.2814,-0.71623 -0.4888,-0.93628 -0.1862,-0.20312 -0.3745,-0.34277 -0.5649,-0.41894 -0.1904,-0.07618 -0.3999,-0.11426 -0.6284,-0.11426 -0.5205,0 -0.9352,0.1862 -1.2442,0.55859 -0.3089,0.3724 -0.4633,0.91195 -0.4633,1.61865 0,0.39779 0.0507,0.72575 0.1523,0.98389 0.1016,0.25814 0.2666,0.48031 0.4951,0.6665 0.1608,0.13119 0.3428,0.219 0.5459,0.26343 0.2032,0.04444 0.4211,0.06665 0.6538,0.06665 0.2709,0 0.5629,-0.0476 0.876,-0.14282 0.3132,-0.09521 0.5861,-0.22111 0.8189,-0.37768 0.0042,-0.06348 0.0095,-0.14706 0.0158,-0.25074 0.0064,-0.10368 0.0095,-0.21899 0.0095,-0.34594 m -4.8559,-0.8125 c 0,-0.48666 0.0793,-0.93099 0.238,-1.33301 0.1587,-0.40202 0.3756,-0.74903 0.6507,-1.04102 0.2623,-0.27929 0.5829,-0.49723 0.9616,-0.65381 0.3788,-0.15657 0.7628,-0.23486 1.1521,-0.23486 0.4359,0 0.8305,0.073 1.1839,0.21899 0.3533,0.146 0.6591,0.35653 0.91721,0.6316 0.32584,0.347 0.57869,0.80192 0.75854,1.36474 0.17985,0.56283 0.26978,1.27377 0.26978,2.13281 0,0.78288 -0.08781,1.5245 -0.26343,2.22486 -0.17562,0.70036 -0.43481,1.28117 -0.77759,1.74243 -0.36391,0.490885 -0.80081,0.865397 -1.31081,1.123535 -0.5099,0.258138 -1.1394,0.387207 -1.8884,0.387207 -0.1693,0 -0.3491,-0.009521 -0.5396,-0.028564 -0.1904,-0.019043 -0.3681,-0.053955 -0.5332,-0.1047367 V -1.16162 h 0.0635 c 0.1058,0.05924 0.2709,0.11637 0.4951,0.171386 0.2243,0.055013 0.4528,0.082519 0.6856,0.082519 0.8294,0 1.4811,-0.272945 1.9551,-0.818845 0.4739,-0.5459 0.7426,-1.32666 0.8061,-2.34229 -0.3385,0.22852 -0.6612,0.39567 -0.968,0.50147 -0.3068,0.10579 -0.6401,0.15869 -0.9998,0.15869 -0.3512,0 -0.6707,-0.03809 -0.9585,-0.11426 -0.2877,-0.07617 -0.5776,-0.22428 -0.8696,-0.44434 -0.3385,-0.25813 -0.5946,-0.58504 -0.7681,-0.98071 -0.1735,-0.39567 -0.2602,-0.8728 -0.2602,-1.43139 m 11.72265,-0.86963 c 0,-0.42318 -0.14177,-0.77653 -0.42529,-1.06006 -0.28353,-0.28353 -0.67709,-0.4253 -1.18067,-0.4253 -0.46126,0 -0.83895,0.12696 -1.13305,0.38086 -0.29411,0.25391 -0.44117,0.59668 -0.44117,1.02832 0,0.31316 0.07512,0.57764 0.22535,0.79346 0.15022,0.21582 0.37556,0.41048 0.67602,0.58399 0.13119,0.07194 0.33114,0.17138 0.59985,0.29834 0.26872,0.12695 0.51311,0.2264 0.73316,0.29834 0.36816,-0.28353 0.61784,-0.57447 0.74902,-0.87281 0.13119,-0.29834 0.19678,-0.64005 0.19678,-1.02514 m 0.17773,4.73535 c 0,-0.38932 -0.07617,-0.69824 -0.22851,-0.92676 -0.15235,-0.22852 -0.44645,-0.46126 -0.88233,-0.69824 -0.14388,-0.08041 -0.33536,-0.16716 -0.57446,-0.26026 -0.23909,-0.09309 -0.50887,-0.20312 -0.80933,-0.33007 -0.35123,0.23274 -0.61995,0.51945 -0.80615,0.8601 -0.1862,0.34066 -0.27929,0.72893 -0.27929,1.1648 0,0.57129 0.17244,1.04313 0.51733,1.41553 0.34489,0.372392 0.77759,0.55859 1.2981,0.55859 0.5332,0 0.96061,-0.15975 1.28222,-0.47925 0.32162,-0.3195 0.48242,-0.75431 0.48242,-1.30444 m -1.77734,2.72949 c -0.46973,0 -0.89714,-0.069824 -1.28223,-0.20947234 C -6.61898,-0.133301 -6.94694,-0.33431 -7.21777,-0.59668 c -0.26661,-0.253906 -0.46867,-0.55542 -0.6062,-0.90454 -0.13754,-0.34912 -0.2063,-0.71834 -0.2063,-1.10767 0,-0.51204 0.13647,-0.98283 0.40942,-1.41235 0.27295,-0.42952 0.66968,-0.77124 1.19019,-1.02515 v -0.03808 c -0.4655,-0.27084 -0.81039,-0.56706 -1.03467,-0.88867 -0.22429,-0.32162 -0.33643,-0.72364 -0.33643,-1.20606 0,-0.71094 0.26872,-1.30338 0.80615,-1.77734 0.53744,-0.47396 1.21875,-0.71094 2.04395,-0.71094 0.85905,0 1.54777,0.22534 2.06616,0.67602 0.51839,0.45069 0.77759,1.02727 0.77759,1.72974 0,0.42318 -0.12378,0.84212 -0.37134,1.25684 -0.24756,0.41471 -0.60408,0.73844 -1.06958,0.97119 v 0.03808 c 0.55013,0.25814 0.96696,0.57129 1.25049,0.93946 0.28353,0.36816 0.42529,0.84212 0.42529,1.42187 0,0.80827 -0.29305,1.48535 -0.87915,2.031253 -0.5861,0.5458981 -1.31925,0.818847 -2.19946,0.818847 m 6.62549,-2.0249 -1.777346,4.15771 H -1.03027 L 0.0869141,-1.80908 H 1.67383 M 9.12695,-8.03613 5.03906,0 H 3.68701 l 4.3291,-8.34082 H 3.12842 v -1.11084 h 5.99853 v 1.41553 M 15.873,0 H 14.4067 L 12.6865,-2.67871 10.9155,0 H 9.56348 L 12.0264,-3.5166 9.58887,-7.09033 h 1.46633 l 1.7075,2.65332 1.7519,-2.65332 H 15.873 L 13.4229,-3.59912 15.873,0"
         fill-rule="evenodd"
         vector-effect="none" />
    </g>
    <g
       id="g48"
       font-style="normal"
       font-weight="400"
       font-size="7.8px"
       font-family="'MS Shell Dlg 2'"
       transform="matrix(5.01268,0,0,5.01268,-57,223)"
       stroke-linejoin="bevel"
       stroke-linecap="square"
       stroke-width="1"
       stroke-opacity="1"
       stroke="#000000"
       fill="none" />
    <g
       id="g50"
       font-style="normal"
       font-weight="400"
       font-size="7.8px"
       font-family="'MS Shell Dlg 2'"
       stroke-linejoin="bevel"
       stroke-linecap="square"
       stroke-width="1"
       stroke-opacity="1"
       stroke="#000000"
       fill="none" />
  </g>
</svg>
