<?xml version="1.0" encoding="UTF-8" standalone="no"?>
<svg
   xmlns:dc="http://purl.org/dc/elements/1.1/"
   xmlns:cc="http://creativecommons.org/ns#"
   xmlns:rdf="http://www.w3.org/1999/02/22-rdf-syntax-ns#"
   xmlns:svg="http://www.w3.org/2000/svg"
   xmlns="http://www.w3.org/2000/svg"
   xmlns:sodipodi="http://sodipodi.sourceforge.net/DTD/sodipodi-0.dtd"
   xmlns:inkscape="http://www.inkscape.org/namespaces/inkscape"
   inkscape:version="1.0 (4035a4fb49, 2020-05-01)"
   sodipodi:docname="s_6.first10000_lowcov.svg"
   id="svg86"
   version="1.2"
   viewBox="0 0 1342.4015 592.49295"
   height="209.01834mm"
   width="473.56921mm">
  <metadata
     id="metadata90">
    <rdf:RDF>
      <cc:Work
         rdf:about="">
        <dc:format>image/svg+xml</dc:format>
        <dc:type
           rdf:resource="http://purl.org/dc/dcmitype/StillImage" />
        <dc:title>Qt SVG Document</dc:title>
      </cc:Work>
    </rdf:RDF>
  </metadata>
  <sodipodi:namedview
     inkscape:current-layer="svg86"
     inkscape:window-maximized="1"
     inkscape:window-y="-9"
     inkscape:window-x="-9"
     inkscape:cy="730.48729"
     inkscape:cx="1265.4114"
     inkscape:zoom="0.34304208"
     fit-margin-bottom="0"
     fit-margin-right="0"
     fit-margin-left="0"
     fit-margin-top="0"
     showgrid="false"
     id="namedview88"
     inkscape:window-height="1001"
     inkscape:window-width="1920"
     inkscape:pageshadow="2"
     inkscape:pageopacity="0"
     guidetolerance="10"
     gridtolerance="10"
     objecttolerance="10"
     borderopacity="1"
     bordercolor="#666666"
     pagecolor="#ffffff" />
  <title
     id="title2">Qt SVG Document</title>
  <desc
     id="desc4">Generated with Qt</desc>
  <defs
     id="defs6">
    <clipPath
       id="clipPath98"
       clipPathUnits="userSpaceOnUse">
      <rect
         y="163.97409"
         x="0"
         height="592.49304"
         width="1342.4012"
         id="rect100"
         style="fill:none;stroke:#000000;stroke-width:0.75" />
    </clipPath>
  </defs>
  <g
     transform="translate(0,-163.97409)"
     clip-path="url(#clipPath98)"
     id="g84"
     stroke-linejoin="bevel"
     stroke-linecap="square"
     fill-rule="evenodd"
     stroke-width="1"
     stroke="#000000"
     fill="none">
    <g
       id="g10"
       font-style="normal"
       font-weight="400"
       font-size="7.8px"
       font-family="'MS Shell Dlg 2'"
       stroke="none"
       fill-opacity="1"
       fill="#ffffff">
      <rect
         id="rect8"
         height="927"
         width="1367"
         y="0"
         x="0" />
    </g>
    <g
       id="g12"
       font-style="normal"
       font-weight="400"
       font-size="7.8px"
       font-family="'MS Shell Dlg 2'"
       stroke-linejoin="bevel"
       stroke-linecap="square"
       stroke-width="1"
       stroke-opacity="1"
       stroke="#000000"
       fill="none" />
    <g
       id="g14"
       font-style="normal"
       font-weight="400"
       font-size="7.8px"
       font-family="'MS Shell Dlg 2'"
       stroke-linejoin="bevel"
       stroke-linecap="square"
       stroke-width="1"
       stroke-opacity="1"
       stroke="#000000"
       fill="none" />
    <g
       id="g16"
       font-style="normal"
       font-weight="400"
       font-size="7.8px"
       font-family="'MS Shell Dlg 2'"
       stroke-linejoin="bevel"
       stroke-linecap="square"
       stroke-width="1"
       stroke-opacity="1"
       stroke="#000000"
       fill="none" />
    <g
       id="g18"
       font-style="normal"
       font-weight="400"
       font-size="7.8px"
       font-family="'MS Shell Dlg 2'"
       transform="matrix(8.88962,0,0,8.88962,159,-521)"
       stroke-linejoin="bevel"
       stroke-linecap="square"
       stroke-width="1"
       stroke-opacity="1"
       stroke="#000000"
       fill="none" />
    <g
       id="g22"
       font-style="normal"
       font-weight="400"
       font-size="7.8px"
       font-family="'MS Shell Dlg 2'"
       transform="matrix(8.88962,0,0,8.88962,159,-521)"
       stroke="none"
       fill-opacity="1"
       fill="#62cb88">
      <path
         id="path20"
         d="m 1.70073,115.413 17.49447,-0.128 c 0.0061,-10e-4 0.0121,-10e-4 0.0181,-10e-4 1.365,0 2.4715,1.107 2.4715,2.472 0,1.365 -1.1065,2.471 -2.4715,2.471 -1.3649,0 -2.4714,-1.106 -2.4714,-2.471 0,-1.347 1.0778,-2.443 2.4179,-2.471 h 0.0706 l 18.5728,0.128 c 0.0078,0 0.0154,0 0.0229,0 v 0 l 19.4136,0.314 c 0.0062,0 0.0122,0 0.0179,0 v 0 l 19.779,0.464 c 0.0056,0 0.011,0 0.016,0 v 0 l 19.6934,0.589 c 0.0051,0 0.0098,0 0.0142,0.001 h -1e-4 l 19.4789,0.693 -0.176,4.94 -19.4788,-0.694 0.088,-2.469 -0.0739,2.47 -19.6935,-0.589 0.0739,-2.47 -0.0579,2.47 -19.779,-0.463 0.0579,-2.471 -0.04,2.471 -19.4135,-0.314 0.0399,-2.471 -0.017,2.471 -18.5728,-0.128 0.017,-2.471 0.0181,2.471 -17.49448,0.128 -0.03619,-4.942"
         fill-rule="nonzero"
         vector-effect="none" />
    </g>
    <g
       id="g26"
       font-style="normal"
       font-weight="400"
       font-size="7.8px"
       font-family="'MS Shell Dlg 2'"
       transform="matrix(1.36287,0,0,1.36287,683.006,547.289)"
       stroke-linejoin="round"
       stroke-linecap="square"
       stroke-width="3"
       stroke-opacity="1"
       stroke="#ffffff"
       fill="none">
      <path
         id="path24"
         d="m -18.2271,-16.25 h -1.1235 V -13 h -1.2187 v -3.25 h -4.1768 v -1.333 l 4.2275,-4.8687 h 1.168 v 5.1861 h 1.1235 v 1.0156 m -2.3422,-1.0156 V -20.96 l -3.1866,3.6944 h 3.1866 m 9.813,-4.2847 c -0.2286,0 -0.4571,0.0275 -0.6856,0.0825 -0.2285,0.055 -0.4528,0.127 -0.6728,0.2158 -0.2032,0.0847 -0.3798,0.1735 -0.5301,0.2666 -0.1502,0.0931 -0.2846,0.1799 -0.4031,0.2603 h -0.0761 v -1.3394 c 0.275,-0.1481 0.6485,-0.2824 1.1203,-0.403 0.4719,-0.1206 0.9215,-0.1809 1.3489,-0.1809 0.4274,0 0.80088,0.0433 1.12038,0.1301 0.31949,0.0867 0.60831,0.2211 0.86645,0.4031 0.2793,0.2031 0.48983,0.4485 0.63159,0.7363 0.14177,0.2878 0.21265,0.6242 0.21265,1.0093 0,0.5205 -0.17139,0.9775 -0.51416,1.3711 -0.34277,0.3935 -0.75326,0.6432 -1.23145,0.749 v 0.0889 c 0.1989,0.038 0.41154,0.1036 0.63794,0.1967 0.2264,0.0931 0.43693,0.2307 0.6316,0.4126 0.19466,0.182 0.35335,0.4158 0.47607,0.7014 0.12272,0.2857 0.18408,0.6338 0.18408,1.0442 0,0.4274 -0.073,0.8199 -0.21899,1.1775 -0.146,0.3576 -0.3523,0.6739 -0.6189,0.949 -0.27506,0.2878 -0.60726,0.5057 -0.99658,0.6538 -0.38932,0.1481 -0.83158,0.2222 -1.32668,0.2222 -0.4739,0 -0.9437,-0.0572 -1.4092,-0.1714 -0.4655,-0.1143 -0.8569,-0.2518 -1.1743,-0.4126 v -1.3394 h 0.0889 c 0.2666,0.1947 0.6242,0.3809 1.0727,0.5586 0.4486,0.1778 0.8972,0.2666 1.3457,0.2666 0.2582,0 0.5174,-0.0412 0.7776,-0.1237 0.26029,-0.0826 0.47717,-0.2169 0.65067,-0.4031 0.16927,-0.1862 0.29834,-0.3915 0.38721,-0.6157 0.08886,-0.2243 0.1333,-0.5079 0.1333,-0.8506 0,-0.3428 -0.04973,-0.6242 -0.14917,-0.8443 -0.09945,-0.22 -0.23804,-0.3935 -0.41577,-0.5205 -0.17774,-0.1269 -0.38827,-0.2147 -0.63164,-0.2634 -0.2433,-0.0487 -0.5067,-0.073 -0.7902,-0.073 h -0.5396 v -1.0537 h 0.419 c 0.5712,0 1.03568,-0.1354 1.39327,-0.4063 0.35758,-0.2708 0.53637,-0.6644 0.53637,-1.1806 0,-0.237 -0.04655,-0.4412 -0.13965,-0.6126 -0.09309,-0.1714 -0.21158,-0.3078 -0.35546,-0.4094 -0.16081,-0.11 -0.33855,-0.1862 -0.53323,-0.2285 -0.1946,-0.0423 -0.402,-0.0635 -0.622,-0.0635 M -0.227051,-16.25 H -1.35059 V -13 h -1.21875 v -3.25 h -4.17675 v -1.333 l 4.22754,-4.8687 h 1.16796 v 5.1861 h 1.123539 V -16.25 M -2.56934,-17.2656 V -20.96 l -3.18652,3.6944 h 3.18652 M 6.77295,-16.25 H 5.64941 V -13 H 4.43066 v -3.25 H 0.253906 v -1.333 l 4.227544,-4.8687 h 1.16796 v 5.1861 H 6.77295 V -16.25 M 4.43066,-17.2656 V -20.96 l -3.18652,3.6944 h 3.18652 m 12.14894,0.6982 c 0,-0.8463 -0.1291,-1.4885 -0.3872,-1.9265 -0.2582,-0.438 -0.6729,-0.657 -1.2442,-0.657 -0.3258,0 -0.6548,0.0762 -0.987,0.2285 -0.3322,0.1524 -0.6337,0.3449 -0.9046,0.5777 v 4.0625 c 0.3005,0.1481 0.5671,0.2528 0.7998,0.3142 0.2328,0.0613 0.4888,0.092 0.7681,0.092 0.6094,0 1.0876,-0.2158 1.4346,-0.6474 0.347,-0.4317 0.5205,-1.113 0.5205,-2.044 m 1.2314,-0.0952 c 0,1.1595 -0.2814,2.0926 -0.8442,2.7993 -0.5628,0.7067 -1.2674,1.0601 -2.1138,1.0601 -0.3851,0 -0.7141,-0.0476 -0.987,-0.1428 -0.273,-0.0953 -0.5428,-0.2233 -0.8094,-0.3841 L 12.9805,-13 h -1.1172 v -9.877 h 1.1933 v 3.5293 c 0.3005,-0.2708 0.6263,-0.4951 0.9776,-0.6728 0.3512,-0.1777 0.749,-0.2666 1.1933,-0.2666 0.7998,0 1.4304,0.3205 1.8916,0.9617 0.4613,0.6411 0.6919,1.5287 0.6919,2.6628 m 7,-0.0698 c 0,1.1806 -0.2824,2.1212 -0.8474,2.8215 -0.5649,0.7004 -1.279,1.0505 -2.1423,1.0505 -0.3512,0 -0.6623,-0.0402 -0.9331,-0.1206 -0.2708,-0.0804 -0.548,-0.2052 -0.8316,-0.3745 v 2.9707 h -1.1933 v -9.7055 h 1.1933 v 0.7426 c 0.2963,-0.2666 0.6253,-0.4898 0.9871,-0.6696 0.3618,-0.1799 0.7564,-0.2698 1.1838,-0.2698 0.8125,0 1.4462,0.3216 1.9012,0.9648 0.4549,0.6433 0.6823,1.5065 0.6823,2.5899 m -1.2314,0.1333 c 0,-0.8083 -0.1291,-1.4356 -0.3872,-1.8821 -0.2582,-0.4465 -0.6771,-0.6697 -1.2569,-0.6697 -0.3385,0 -0.6654,0.0751 -0.9807,0.2254 -0.3152,0.1502 -0.6146,0.3438 -0.8982,0.5808 v 4.018 c 0.3132,0.1524 0.5809,0.2561 0.803,0.3111 0.2222,0.055 0.4772,0.0825 0.7649,0.0825 0.6179,0 1.0982,-0.2264 1.4409,-0.6792 0.3428,-0.4528 0.5142,-1.1151 0.5142,-1.9868 m -33.7984,11.03221 c 0,-0.64323 -0.0592,-1.16692 -0.1777,-1.57105 -0.1185,-0.40413 -0.2814,-0.71623 -0.4888,-0.93628 -0.1862,-0.20312 -0.3745,-0.34277 -0.5649,-0.41894 -0.1904,-0.07618 -0.3999,-0.11426 -0.6284,-0.11426 -0.5205,0 -0.9352,0.1862 -1.2442,0.55859 -0.3089,0.3724 -0.4633,0.91195 -0.4633,1.61865 0,0.39779 0.0507,0.72575 0.1523,0.98389 0.1016,0.25814 0.2666,0.48031 0.4951,0.6665 0.1608,0.13119 0.3428,0.219 0.5459,0.26343 0.2032,0.04444 0.4211,0.06665 0.6538,0.06665 0.2709,0 0.5629,-0.0476 0.876,-0.14282 0.3132,-0.09521 0.5861,-0.22111 0.8189,-0.37768 0.0042,-0.06348 0.0095,-0.14706 0.0158,-0.25074 0.0064,-0.10368 0.0095,-0.21899 0.0095,-0.34594 m -4.8559,-0.8125 c 0,-0.48666 0.0793,-0.93099 0.238,-1.33301 0.1587,-0.40202 0.3756,-0.74903 0.6507,-1.04102 0.2623,-0.27929 0.5829,-0.49723 0.9616,-0.65381 0.3788,-0.15657 0.7628,-0.23486 1.1521,-0.23486 0.4359,0 0.8305,0.073 1.1839,0.21899 0.3533,0.146 0.6591,0.35653 0.91721,0.6316 0.32584,0.347 0.57869,0.80192 0.75854,1.36474 0.17985,0.56283 0.26978,1.27377 0.26978,2.13281 0,0.78288 -0.08781,1.5245 -0.26343,2.22486 -0.17562,0.70036 -0.43481,1.28117 -0.77759,1.74243 -0.36391,0.490885 -0.80081,0.865397 -1.31081,1.123535 -0.5099,0.258138 -1.1394,0.387207 -1.8884,0.387207 -0.1693,0 -0.3491,-0.009521 -0.5396,-0.028564 -0.1904,-0.019043 -0.3681,-0.053955 -0.5332,-0.1047367 V -1.16162 h 0.0635 c 0.1058,0.05924 0.2709,0.11637 0.4951,0.171386 0.2243,0.055013 0.4528,0.082519 0.6856,0.082519 0.8294,0 1.4811,-0.272945 1.9551,-0.818845 0.4739,-0.5459 0.7426,-1.32666 0.8061,-2.34229 -0.3385,0.22852 -0.6612,0.39567 -0.968,0.50147 -0.3068,0.10579 -0.6401,0.15869 -0.9998,0.15869 -0.3512,0 -0.6707,-0.03809 -0.9585,-0.11426 -0.2877,-0.07617 -0.5776,-0.22428 -0.8696,-0.44434 -0.3385,-0.25813 -0.5946,-0.58504 -0.7681,-0.98071 -0.1735,-0.39567 -0.2602,-0.8728 -0.2602,-1.43139 M -1.72705,-3.25 H -2.85059 V 0 h -1.21875 v -3.25 h -4.17675 v -1.33301 l 4.22754,-4.86865 h 1.16796 v 5.18603 h 1.12354 V -3.25 m -2.34229,-1.01563 v -3.69433 l -3.18652,3.69433 h 3.18652 m 5.74317,2.45655 -1.777346,4.15771 H -1.03027 L 0.0869141,-1.80908 H 1.67383 M 8.54297,0 H 3.93457 V -0.964844 H 5.64844 V -7.2998 H 3.93457 v -0.86329 c 0.64746,0 1.12459,-0.09204 1.4314,-0.27612 0.3068,-0.18408 0.47924,-0.53214 0.51733,-1.04419 h 0.98389 v 8.518556 H 8.54297 V 0 M 15.873,0 H 14.4067 L 12.6865,-2.67871 10.9155,0 H 9.56348 L 12.0264,-3.5166 9.58887,-7.09033 h 1.46633 l 1.7075,2.65332 1.7519,-2.65332 H 15.873 L 13.4229,-3.59912 15.873,0"
         fill-rule="evenodd"
         vector-effect="none" />
    </g>
    <g
       id="g30"
       font-style="normal"
       font-weight="400"
       font-size="7.8px"
       font-family="'MS Shell Dlg 2'"
       transform="matrix(1.36287,0,0,1.36287,683.006,547.289)"
       stroke="none"
       fill-opacity="1"
       fill="#000000">
      <path
         id="path28"
         d="m -18.2271,-16.25 h -1.1235 V -13 h -1.2187 v -3.25 h -4.1768 v -1.333 l 4.2275,-4.8687 h 1.168 v 5.1861 h 1.1235 v 1.0156 m -2.3422,-1.0156 V -20.96 l -3.1866,3.6944 h 3.1866 m 9.813,-4.2847 c -0.2286,0 -0.4571,0.0275 -0.6856,0.0825 -0.2285,0.055 -0.4528,0.127 -0.6728,0.2158 -0.2032,0.0847 -0.3798,0.1735 -0.5301,0.2666 -0.1502,0.0931 -0.2846,0.1799 -0.4031,0.2603 h -0.0761 v -1.3394 c 0.275,-0.1481 0.6485,-0.2824 1.1203,-0.403 0.4719,-0.1206 0.9215,-0.1809 1.3489,-0.1809 0.4274,0 0.80088,0.0433 1.12038,0.1301 0.31949,0.0867 0.60831,0.2211 0.86645,0.4031 0.2793,0.2031 0.48983,0.4485 0.63159,0.7363 0.14177,0.2878 0.21265,0.6242 0.21265,1.0093 0,0.5205 -0.17139,0.9775 -0.51416,1.3711 -0.34277,0.3935 -0.75326,0.6432 -1.23145,0.749 v 0.0889 c 0.1989,0.038 0.41154,0.1036 0.63794,0.1967 0.2264,0.0931 0.43693,0.2307 0.6316,0.4126 0.19466,0.182 0.35335,0.4158 0.47607,0.7014 0.12272,0.2857 0.18408,0.6338 0.18408,1.0442 0,0.4274 -0.073,0.8199 -0.21899,1.1775 -0.146,0.3576 -0.3523,0.6739 -0.6189,0.949 -0.27506,0.2878 -0.60726,0.5057 -0.99658,0.6538 -0.38932,0.1481 -0.83158,0.2222 -1.32668,0.2222 -0.4739,0 -0.9437,-0.0572 -1.4092,-0.1714 -0.4655,-0.1143 -0.8569,-0.2518 -1.1743,-0.4126 v -1.3394 h 0.0889 c 0.2666,0.1947 0.6242,0.3809 1.0727,0.5586 0.4486,0.1778 0.8972,0.2666 1.3457,0.2666 0.2582,0 0.5174,-0.0412 0.7776,-0.1237 0.26029,-0.0826 0.47717,-0.2169 0.65067,-0.4031 0.16927,-0.1862 0.29834,-0.3915 0.38721,-0.6157 0.08886,-0.2243 0.1333,-0.5079 0.1333,-0.8506 0,-0.3428 -0.04973,-0.6242 -0.14917,-0.8443 -0.09945,-0.22 -0.23804,-0.3935 -0.41577,-0.5205 -0.17774,-0.1269 -0.38827,-0.2147 -0.63164,-0.2634 -0.2433,-0.0487 -0.5067,-0.073 -0.7902,-0.073 h -0.5396 v -1.0537 h 0.419 c 0.5712,0 1.03568,-0.1354 1.39327,-0.4063 0.35758,-0.2708 0.53637,-0.6644 0.53637,-1.1806 0,-0.237 -0.04655,-0.4412 -0.13965,-0.6126 -0.09309,-0.1714 -0.21158,-0.3078 -0.35546,-0.4094 -0.16081,-0.11 -0.33855,-0.1862 -0.53323,-0.2285 -0.1946,-0.0423 -0.402,-0.0635 -0.622,-0.0635 M -0.227051,-16.25 H -1.35059 V -13 h -1.21875 v -3.25 h -4.17675 v -1.333 l 4.22754,-4.8687 h 1.16796 v 5.1861 h 1.123539 V -16.25 M -2.56934,-17.2656 V -20.96 l -3.18652,3.6944 h 3.18652 M 6.77295,-16.25 H 5.64941 V -13 H 4.43066 v -3.25 H 0.253906 v -1.333 l 4.227544,-4.8687 h 1.16796 v 5.1861 H 6.77295 V -16.25 M 4.43066,-17.2656 V -20.96 l -3.18652,3.6944 h 3.18652 m 12.14894,0.6982 c 0,-0.8463 -0.1291,-1.4885 -0.3872,-1.9265 -0.2582,-0.438 -0.6729,-0.657 -1.2442,-0.657 -0.3258,0 -0.6548,0.0762 -0.987,0.2285 -0.3322,0.1524 -0.6337,0.3449 -0.9046,0.5777 v 4.0625 c 0.3005,0.1481 0.5671,0.2528 0.7998,0.3142 0.2328,0.0613 0.4888,0.092 0.7681,0.092 0.6094,0 1.0876,-0.2158 1.4346,-0.6474 0.347,-0.4317 0.5205,-1.113 0.5205,-2.044 m 1.2314,-0.0952 c 0,1.1595 -0.2814,2.0926 -0.8442,2.7993 -0.5628,0.7067 -1.2674,1.0601 -2.1138,1.0601 -0.3851,0 -0.7141,-0.0476 -0.987,-0.1428 -0.273,-0.0953 -0.5428,-0.2233 -0.8094,-0.3841 L 12.9805,-13 h -1.1172 v -9.877 h 1.1933 v 3.5293 c 0.3005,-0.2708 0.6263,-0.4951 0.9776,-0.6728 0.3512,-0.1777 0.749,-0.2666 1.1933,-0.2666 0.7998,0 1.4304,0.3205 1.8916,0.9617 0.4613,0.6411 0.6919,1.5287 0.6919,2.6628 m 7,-0.0698 c 0,1.1806 -0.2824,2.1212 -0.8474,2.8215 -0.5649,0.7004 -1.279,1.0505 -2.1423,1.0505 -0.3512,0 -0.6623,-0.0402 -0.9331,-0.1206 -0.2708,-0.0804 -0.548,-0.2052 -0.8316,-0.3745 v 2.9707 h -1.1933 v -9.7055 h 1.1933 v 0.7426 c 0.2963,-0.2666 0.6253,-0.4898 0.9871,-0.6696 0.3618,-0.1799 0.7564,-0.2698 1.1838,-0.2698 0.8125,0 1.4462,0.3216 1.9012,0.9648 0.4549,0.6433 0.6823,1.5065 0.6823,2.5899 m -1.2314,0.1333 c 0,-0.8083 -0.1291,-1.4356 -0.3872,-1.8821 -0.2582,-0.4465 -0.6771,-0.6697 -1.2569,-0.6697 -0.3385,0 -0.6654,0.0751 -0.9807,0.2254 -0.3152,0.1502 -0.6146,0.3438 -0.8982,0.5808 v 4.018 c 0.3132,0.1524 0.5809,0.2561 0.803,0.3111 0.2222,0.055 0.4772,0.0825 0.7649,0.0825 0.6179,0 1.0982,-0.2264 1.4409,-0.6792 0.3428,-0.4528 0.5142,-1.1151 0.5142,-1.9868 m -33.7984,11.03221 c 0,-0.64323 -0.0592,-1.16692 -0.1777,-1.57105 -0.1185,-0.40413 -0.2814,-0.71623 -0.4888,-0.93628 -0.1862,-0.20312 -0.3745,-0.34277 -0.5649,-0.41894 -0.1904,-0.07618 -0.3999,-0.11426 -0.6284,-0.11426 -0.5205,0 -0.9352,0.1862 -1.2442,0.55859 -0.3089,0.3724 -0.4633,0.91195 -0.4633,1.61865 0,0.39779 0.0507,0.72575 0.1523,0.98389 0.1016,0.25814 0.2666,0.48031 0.4951,0.6665 0.1608,0.13119 0.3428,0.219 0.5459,0.26343 0.2032,0.04444 0.4211,0.06665 0.6538,0.06665 0.2709,0 0.5629,-0.0476 0.876,-0.14282 0.3132,-0.09521 0.5861,-0.22111 0.8189,-0.37768 0.0042,-0.06348 0.0095,-0.14706 0.0158,-0.25074 0.0064,-0.10368 0.0095,-0.21899 0.0095,-0.34594 m -4.8559,-0.8125 c 0,-0.48666 0.0793,-0.93099 0.238,-1.33301 0.1587,-0.40202 0.3756,-0.74903 0.6507,-1.04102 0.2623,-0.27929 0.5829,-0.49723 0.9616,-0.65381 0.3788,-0.15657 0.7628,-0.23486 1.1521,-0.23486 0.4359,0 0.8305,0.073 1.1839,0.21899 0.3533,0.146 0.6591,0.35653 0.91721,0.6316 0.32584,0.347 0.57869,0.80192 0.75854,1.36474 0.17985,0.56283 0.26978,1.27377 0.26978,2.13281 0,0.78288 -0.08781,1.5245 -0.26343,2.22486 -0.17562,0.70036 -0.43481,1.28117 -0.77759,1.74243 -0.36391,0.490885 -0.80081,0.865397 -1.31081,1.123535 -0.5099,0.258138 -1.1394,0.387207 -1.8884,0.387207 -0.1693,0 -0.3491,-0.009521 -0.5396,-0.028564 -0.1904,-0.019043 -0.3681,-0.053955 -0.5332,-0.1047367 V -1.16162 h 0.0635 c 0.1058,0.05924 0.2709,0.11637 0.4951,0.171386 0.2243,0.055013 0.4528,0.082519 0.6856,0.082519 0.8294,0 1.4811,-0.272945 1.9551,-0.818845 0.4739,-0.5459 0.7426,-1.32666 0.8061,-2.34229 -0.3385,0.22852 -0.6612,0.39567 -0.968,0.50147 -0.3068,0.10579 -0.6401,0.15869 -0.9998,0.15869 -0.3512,0 -0.6707,-0.03809 -0.9585,-0.11426 -0.2877,-0.07617 -0.5776,-0.22428 -0.8696,-0.44434 -0.3385,-0.25813 -0.5946,-0.58504 -0.7681,-0.98071 -0.1735,-0.39567 -0.2602,-0.8728 -0.2602,-1.43139 M -1.72705,-3.25 H -2.85059 V 0 h -1.21875 v -3.25 h -4.17675 v -1.33301 l 4.22754,-4.86865 h 1.16796 v 5.18603 h 1.12354 V -3.25 m -2.34229,-1.01563 v -3.69433 l -3.18652,3.69433 h 3.18652 m 5.74317,2.45655 -1.777346,4.15771 H -1.03027 L 0.0869141,-1.80908 H 1.67383 M 8.54297,0 H 3.93457 V -0.964844 H 5.64844 V -7.2998 H 3.93457 v -0.86329 c 0.64746,0 1.12459,-0.09204 1.4314,-0.27612 0.3068,-0.18408 0.47924,-0.53214 0.51733,-1.04419 h 0.98389 v 8.518556 H 8.54297 V 0 M 15.873,0 H 14.4067 L 12.6865,-2.67871 10.9155,0 H 9.56348 L 12.0264,-3.5166 9.58887,-7.09033 h 1.46633 l 1.7075,2.65332 1.7519,-2.65332 H 15.873 L 13.4229,-3.59912 15.873,0"
         fill-rule="evenodd"
         vector-effect="none" />
    </g>
    <g
       id="g32"
       font-style="normal"
       font-weight="400"
       font-size="7.8px"
       font-family="'MS Shell Dlg 2'"
       transform="matrix(8.88962,0,0,8.88962,159,-521)"
       stroke-linejoin="bevel"
       stroke-linecap="square"
       stroke-width="1"
       stroke-opacity="1"
       stroke="#000000"
       fill="none" />
    <g
       id="g34"
       font-style="normal"
       font-weight="400"
       font-size="7.8px"
       font-family="'MS Shell Dlg 2'"
       transform="matrix(8.88962,0,0,8.88962,159,-521)"
       stroke-linejoin="bevel"
       stroke-linecap="square"
       stroke-width="1"
       stroke-opacity="1"
       stroke="#000000"
       fill="none" />
    <g
       id="g38"
       font-style="normal"
       font-weight="400"
       font-size="7.8px"
       font-family="'MS Shell Dlg 2'"
       transform="matrix(8.88962,0,0,8.88962,159,-521)"
       stroke="none"
       fill-opacity="1"
       fill="#62cba9">
      <path
         id="path36"
         d="m -14.3049,100.892 15.253701,0.45 -0.074337,2.521 0.047323,-2.522 16.242813,0.305 -0.0473,2.522 0.0179,-2.522 17.4595,0.124 -0.0179,2.522 -0.0168,-2.522 18.647,-0.124 0.0168,2.522 -0.0398,-2.522 19.2871,-0.305 0.0398,2.522 -0.0581,-2.521 19.495,-0.45 0.0582,2.521 -0.0745,-2.521 19.3505,-0.571 0.075,2.52 -0.089,-2.52 19.236,-0.6733 0.176,5.0403 -19.235,0.674 c -0.005,0 -0.009,0 -0.014,0 v 0 l -19.3505,0.572 c -0.0054,0 -0.0109,0 -0.016,0 h -3e-4 l -19.4951,0.45 c -0.0061,0 -0.0122,0 -0.0181,0 h -2e-4 l -19.2871,0.305 c -0.0077,0 -0.0154,0.001 -0.023,0.001 h -10e-5 l -18.647,0.124 c -0.0056,0 -0.0112,0 -0.0168,0 -0.006,0 -0.0121,0 -0.018,0 v 0 L 17.0993,106.69 c -0.0099,-0.001 -0.0198,-0.001 -0.0294,-0.001 H 17.07 L 0.82714,106.384 c -0.009299,0 -0.018345,0 -0.027041,0 h 2.7e-5 l -15.253626,-0.45 0.1486,-5.042"
         fill-rule="nonzero"
         vector-effect="none" />
    </g>
    <g
       id="g42"
       font-style="normal"
       font-weight="400"
       font-size="7.8px"
       font-family="'MS Shell Dlg 2'"
       transform="matrix(1.36287,0,0,1.36287,675.617,421.514)"
       stroke-linejoin="round"
       stroke-linecap="square"
       stroke-width="3"
       stroke-opacity="1"
       stroke="#ffffff"
       fill="none">
      <path
         id="path40"
         d="m -18.5825,-16.0088 c 0,0.457 -0.073,0.8802 -0.219,1.2695 -0.146,0.3894 -0.3502,0.7258 -0.6126,1.0093 -0.2666,0.2878 -0.5977,0.5142 -0.9934,0.6792 -0.3956,0.1651 -0.8389,0.2476 -1.3298,0.2476 -0.4528,0 -0.8982,-0.0497 -1.3362,-0.1492 -0.438,-0.0994 -0.8178,-0.2296 -1.1394,-0.3904 v -1.3393 h 0.0889 c 0.0973,0.0719 0.237,0.1534 0.4189,0.2444 0.182,0.0909 0.383,0.1766 0.603,0.257 0.2497,0.0889 0.4782,0.1577 0.6856,0.2063 0.2074,0.0487 0.4401,0.073 0.6982,0.073 0.2539,0 0.5015,-0.0455 0.7427,-0.1364 0.2412,-0.091 0.4486,-0.2381 0.6221,-0.4412 0.1566,-0.1862 0.2761,-0.4041 0.3586,-0.6538 0.0825,-0.2497 0.1238,-0.5438 0.1238,-0.8823 0,-0.3343 -0.0455,-0.6094 -0.1365,-0.8252 -0.091,-0.2159 -0.2232,-0.3936 -0.3967,-0.5332 -0.182,-0.1608 -0.4052,-0.274 -0.6697,-0.3396 -0.2645,-0.0656 -0.5596,-0.0984 -0.8855,-0.0984 -0.3427,0 -0.6876,0.0264 -1.0346,0.0793 -0.347,0.0529 -0.6242,0.1026 -0.8316,0.1492 v -4.8687 h 5.1861 v 1.1109 h -3.961 v 2.5137 c 0.1524,-0.017 0.3026,-0.0297 0.4507,-0.0381 0.1481,-0.0085 0.2835,-0.0127 0.4062,-0.0127 0.4825,0 0.8908,0.0402 1.2251,0.1206 0.3344,0.0804 0.656,0.237 0.9649,0.4697 0.3131,0.237 0.5533,0.5332 0.7204,0.8887 0.1672,0.3554 0.2508,0.8188 0.2508,1.3901 m 10.99998,0 c 0,0.457 -0.073,0.8802 -0.21899,1.2695 -0.146,0.3894 -0.35018,0.7258 -0.61255,1.0093 -0.2666,0.2878 -0.59774,0.5142 -0.99341,0.6792 -0.39567,0.1651 -0.83893,0.2476 -1.32983,0.2476 -0.4528,0 -0.8982,-0.0497 -1.3362,-0.1492 -0.438,-0.0994 -0.8178,-0.2296 -1.1394,-0.3904 v -1.3393 h 0.0889 c 0.0973,0.0719 0.237,0.1534 0.4189,0.2444 0.182,0.0909 0.383,0.1766 0.603,0.257 0.2497,0.0889 0.4782,0.1577 0.6856,0.2063 0.2074,0.0487 0.4401,0.073 0.6982,0.073 0.2539,0 0.5015,-0.0455 0.74271,-0.1364 0.24121,-0.091 0.44857,-0.2381 0.62207,-0.4412 0.15658,-0.1862 0.27613,-0.4041 0.35865,-0.6538 0.08252,-0.2497 0.12378,-0.5438 0.12378,-0.8823 0,-0.3343 -0.0455,-0.6094 -0.13648,-0.8252 -0.09098,-0.2159 -0.22322,-0.3936 -0.39673,-0.5332 -0.18196,-0.1608 -0.40519,-0.274 -0.6697,-0.3396 -0.2645,-0.0656 -0.5596,-0.0984 -0.8855,-0.0984 -0.3427,0 -0.6876,0.0264 -1.0346,0.0793 -0.347,0.0529 -0.6242,0.1026 -0.8316,0.1492 v -4.8687 h 5.18605 v 1.1109 h -3.96095 v 2.5137 c 0.1524,-0.017 0.3026,-0.0297 0.4507,-0.0381 0.1481,-0.0085 0.2835,-0.0127 0.4062,-0.0127 0.4825,0 0.89084,0.0402 1.22515,0.1206 0.33431,0.0804 0.65592,0.237 0.96484,0.4697 0.31315,0.237 0.5533,0.5332 0.72046,0.8887 0.16715,0.3554 0.25073,0.8188 0.25073,1.3901 M -0.373047,-21.0361 -4.46094,-13 h -1.35205 l 4.3291,-8.3408 h -4.88769 v -1.1109 h 5.998533 v 1.4156 m 5.654297,2.4692 c 0,-0.6432 -0.05924,-1.1669 -0.17773,-1.571 -0.11849,-0.4042 -0.28142,-0.7163 -0.48877,-0.9363 -0.1862,-0.2031 -0.37452,-0.3428 -0.56495,-0.419 -0.19042,-0.0761 -0.3999,-0.1142 -0.62841,-0.1142 -0.52051,0 -0.93522,0.1862 -1.24414,0.5586 -0.30892,0.3724 -0.46338,0.9119 -0.46338,1.6186 0,0.3978 0.05078,0.7258 0.15234,0.9839 0.10156,0.2581 0.2666,0.4803 0.49512,0.6665 0.16081,0.1312 0.34277,0.219 0.5459,0.2634 0.20312,0.0445 0.42106,0.0667 0.65381,0.0667 0.27083,0 0.56282,-0.0476 0.87597,-0.1428 0.31315,-0.0952 0.5861,-0.2211 0.81885,-0.3777 0.00423,-0.0635 0.00952,-0.1471 0.01587,-0.2507 0.00635,-0.1037 0.00952,-0.219 0.00952,-0.346 m -4.855957,-0.8125 c 0,-0.4866 0.079346,-0.931 0.238037,-1.333 0.158691,-0.402 0.37557,-0.749 0.65063,-1.041 0.26237,-0.2793 0.58293,-0.4973 0.96167,-0.6538 0.37875,-0.1566 0.76278,-0.2349 1.1521,-0.2349 0.43588,0 0.83049,0.073 1.18384,0.219 0.35336,0.146 0.6591,0.3565 0.91724,0.6316 0.32584,0.347 0.57869,0.8019 0.75854,1.3647 0.17985,0.5629 0.26978,1.2738 0.26978,2.1329 0,0.7828 -0.08781,1.5245 -0.26343,2.2248 -0.17562,0.7004 -0.43481,1.2812 -0.77759,1.7424 -0.36393,0.4909 -0.80086,0.8654 -1.31079,1.1236 -0.50993,0.2581 -1.1394,0.3872 -1.88843,0.3872 -0.16927,0 -0.34912,-0.0095 -0.53955,-0.0286 -0.19043,-0.019 -0.36816,-0.0539 -0.5332,-0.1047 v -1.2124 h 0.06348 c 0.10579,0.0592 0.27083,0.1164 0.49511,0.1714 0.22429,0.055 0.4528,0.0825 0.68555,0.0825 0.82943,0 1.48112,-0.273 1.95508,-0.8189 0.47396,-0.5459 0.74268,-1.3266 0.80615,-2.3422 -0.33854,0.2285 -0.66121,0.3956 -0.96802,0.5014 -0.3068,0.1058 -0.64005,0.1587 -0.99975,0.1587 -0.35124,0 -0.67074,-0.0381 -0.9585,-0.1142 -0.28776,-0.0762 -0.57763,-0.2243 -0.86963,-0.4444 -0.33854,-0.2581 -0.594561,-0.585 -0.768063,-0.9807 -0.173503,-0.3957 -0.260254,-0.8728 -0.260254,-1.4314 m 16.154307,2.812 c 0,-0.8463 -0.1291,-1.4885 -0.3872,-1.9265 -0.2582,-0.438 -0.6729,-0.657 -1.2442,-0.657 -0.3258,0 -0.6548,0.0762 -0.987,0.2285 -0.3322,0.1524 -0.6337,0.3449 -0.9046,0.5777 v 4.0625 c 0.3005,0.1481 0.5671,0.2528 0.7998,0.3142 0.2328,0.0613 0.4888,0.092 0.7681,0.092 0.6094,0 1.0876,-0.2158 1.4346,-0.6474 0.347,-0.4317 0.5205,-1.113 0.5205,-2.044 m 1.2314,-0.0952 c 0,1.1595 -0.2814,2.0926 -0.8442,2.7993 -0.5628,0.7067 -1.2674,1.0601 -2.1138,1.0601 -0.3851,0 -0.7141,-0.0476 -0.987,-0.1428 -0.273,-0.0953 -0.5428,-0.2233 -0.8094,-0.3841 L 12.9805,-13 h -1.1172 v -9.877 h 1.1933 v 3.5293 c 0.3005,-0.2708 0.6263,-0.4951 0.9776,-0.6728 0.3512,-0.1777 0.749,-0.2666 1.1933,-0.2666 0.7998,0 1.4304,0.3205 1.8916,0.9617 0.4613,0.6411 0.6919,1.5287 0.6919,2.6628 m 7,-0.0698 c 0,1.1806 -0.2824,2.1212 -0.8474,2.8215 -0.5649,0.7004 -1.279,1.0505 -2.1423,1.0505 -0.3512,0 -0.6623,-0.0402 -0.9331,-0.1206 -0.2708,-0.0804 -0.548,-0.2052 -0.8316,-0.3745 v 2.9707 h -1.1933 v -9.7055 h 1.1933 v 0.7426 c 0.2963,-0.2666 0.6253,-0.4898 0.9871,-0.6696 0.3618,-0.1799 0.7564,-0.2698 1.1838,-0.2698 0.8125,0 1.4462,0.3216 1.9012,0.9648 0.4549,0.6433 0.6823,1.5065 0.6823,2.5899 m -1.2314,0.1333 c 0,-0.8083 -0.1291,-1.4356 -0.3872,-1.8821 -0.2582,-0.4465 -0.6771,-0.6697 -1.2569,-0.6697 -0.3385,0 -0.6654,0.0751 -0.9807,0.2254 -0.3152,0.1502 -0.6146,0.3438 -0.8982,0.5808 v 4.018 c 0.3132,0.1524 0.5809,0.2561 0.803,0.3111 0.2222,0.055 0.4772,0.0825 0.7649,0.0825 0.6179,0 1.0982,-0.2264 1.4409,-0.6792 0.3428,-0.4528 0.5142,-1.1151 0.5142,-1.9868 M -12.957,0 h -4.6084 v -0.964844 h 1.7138 V -7.2998 h -1.7138 v -0.86329 c 0.6474,0 1.1246,-0.09204 1.4314,-0.27612 0.3068,-0.18408 0.4792,-0.53214 0.5173,-1.04419 h 0.9839 v 8.518556 h 1.6758 V 0 m 7.52682,-4.729 c 0,1.69694 -0.2465,2.94213 -0.7395,3.735592 -0.493,0.793457 -1.25366,1.190185 -2.28198,1.190185 -1.04102,0 -1.80484,-0.404134 -2.29154,-1.212407 -0.4866,-0.80826 -0.7299,-2.04182 -0.7299,-3.70068 0,-1.7054 0.2465,-2.95272 0.7395,-3.74194 0.493,-0.78923 1.25362,-1.18384 2.28194,-1.18384 1.04102,0 1.80485,0.40837 2.2915,1.2251 0.48666,0.81673 0.72998,2.04606 0.72998,3.68799 m -1.625,2.88183 c 0.12273,-0.31315 0.20948,-0.70882 0.26026,-1.18701 0.05078,-0.47819 0.07617,-1.04313 0.07617,-1.69482 0,-0.64746 -0.02539,-1.21029 -0.07617,-1.68848 -0.05078,-0.47819 -0.13965,-0.87598 -0.2666,-1.19336 -0.12696,-0.32161 -0.30152,-0.566 -0.52369,-0.73315 -0.22216,-0.16716 -0.51098,-0.25074 -0.86645,-0.25074 -0.35124,0 -0.64006,0.08358 -0.86646,0.25074 -0.22639,0.16715 -0.40519,0.41577 -0.53637,0.74585 -0.12696,0.32161 -0.21371,0.72786 -0.26021,1.21875 -0.0466,0.49088 -0.0699,1.04524 -0.0699,1.66308 0,0.66016 0.0201,1.2124 0.0603,1.65674 0.0402,0.44434 0.12804,0.84212 0.26346,1.19336 0.12272,0.32585 0.29728,0.57658 0.52368,0.7522 0.2264,0.175615 0.52157,0.263424 0.8855,0.263424 0.35124,0 0.64006,-0.083577 0.86645,-0.250734 0.2264,-0.16715 0.40308,-0.41577 0.53003,-0.74585 M 1.52539,0 h -5.8335 v -1.32666 c 0.41895,-0.39779 0.81462,-0.77865 1.18702,-1.14258 0.37239,-0.36393 0.73632,-0.74267 1.09179,-1.13623 0.7194,-0.79134 1.21029,-1.42505 1.472659,-1.90112 0.26237,-0.47608 0.393555,-0.96802 0.393555,-1.47583 0,-0.26237 -0.04126,-0.493 -0.123779,-0.6919 -0.08252,-0.19889 -0.19572,-0.36393 -0.3396,-0.49511 -0.148112,-0.12696 -0.319499,-0.22217 -0.514165,-0.28565 -0.19466,-0.06347 -0.40836,-0.09521 -0.64111,-0.09521 -0.22428,0 -0.45174,0.02856 -0.68237,0.08569 -0.23063,0.05713 -0.45174,0.12801 -0.66333,0.21265 -0.17774,0.07194 -0.34912,0.15869 -0.51416,0.26025 -0.16504,0.10156 -0.29834,0.18831 -0.3999,0.26025 h -0.06983 v -1.3457 c 0.26237,-0.13118 0.62736,-0.25919 1.09497,-0.38403 0.46761,-0.12484 0.91089,-0.18726 1.32984,-0.18726 0.880205,0 1.569984,0.23381 2.069333,0.70142 0.499348,0.46761 0.749027,1.10132 0.749027,1.90112 0,0.36817 -0.04338,0.70882 -0.13013,1.02197 -0.086752,0.31316 -0.2063,0.60303 -0.358644,0.86963 -0.156575,0.27507 -0.344889,0.54802 -0.564941,0.81885 -0.220052,0.27083 -0.452799,0.53744 -0.698242,0.79981 -0.397783,0.43164 -0.841063,0.8802 -1.329833,1.3457 -0.48877,0.46549 -0.87915,0.83366 -1.17114,1.10449 H 1.52539 V 0 M 5.17383,-1.80908 3.39648,2.34863 H 2.46973 L 3.58691,-1.80908 H 5.17383 M 12.043,0 H 7.43457 V -0.964844 H 9.14844 V -7.2998 H 7.43457 v -0.86329 c 0.64746,0 1.12459,-0.09204 1.4314,-0.27612 0.3068,-0.18408 0.47924,-0.53214 0.51733,-1.04419 h 0.9839 v 8.518556 H 12.043 V 0 m 7.33,0 H 17.9067 L 16.1865,-2.67871 14.4155,0 h -1.352 l 2.4629,-3.5166 -2.4375,-3.57373 h 1.4663 l 1.7075,2.65332 1.7519,-2.65332 H 19.373 L 16.9229,-3.59912 19.373,0"
         fill-rule="evenodd"
         vector-effect="none" />
    </g>
    <g
       id="g46"
       font-style="normal"
       font-weight="400"
       font-size="7.8px"
       font-family="'MS Shell Dlg 2'"
       transform="matrix(1.36287,0,0,1.36287,675.617,421.514)"
       stroke="none"
       fill-opacity="1"
       fill="#000000">
      <path
         id="path44"
         d="m -18.5825,-16.0088 c 0,0.457 -0.073,0.8802 -0.219,1.2695 -0.146,0.3894 -0.3502,0.7258 -0.6126,1.0093 -0.2666,0.2878 -0.5977,0.5142 -0.9934,0.6792 -0.3956,0.1651 -0.8389,0.2476 -1.3298,0.2476 -0.4528,0 -0.8982,-0.0497 -1.3362,-0.1492 -0.438,-0.0994 -0.8178,-0.2296 -1.1394,-0.3904 v -1.3393 h 0.0889 c 0.0973,0.0719 0.237,0.1534 0.4189,0.2444 0.182,0.0909 0.383,0.1766 0.603,0.257 0.2497,0.0889 0.4782,0.1577 0.6856,0.2063 0.2074,0.0487 0.4401,0.073 0.6982,0.073 0.2539,0 0.5015,-0.0455 0.7427,-0.1364 0.2412,-0.091 0.4486,-0.2381 0.6221,-0.4412 0.1566,-0.1862 0.2761,-0.4041 0.3586,-0.6538 0.0825,-0.2497 0.1238,-0.5438 0.1238,-0.8823 0,-0.3343 -0.0455,-0.6094 -0.1365,-0.8252 -0.091,-0.2159 -0.2232,-0.3936 -0.3967,-0.5332 -0.182,-0.1608 -0.4052,-0.274 -0.6697,-0.3396 -0.2645,-0.0656 -0.5596,-0.0984 -0.8855,-0.0984 -0.3427,0 -0.6876,0.0264 -1.0346,0.0793 -0.347,0.0529 -0.6242,0.1026 -0.8316,0.1492 v -4.8687 h 5.1861 v 1.1109 h -3.961 v 2.5137 c 0.1524,-0.017 0.3026,-0.0297 0.4507,-0.0381 0.1481,-0.0085 0.2835,-0.0127 0.4062,-0.0127 0.4825,0 0.8908,0.0402 1.2251,0.1206 0.3344,0.0804 0.656,0.237 0.9649,0.4697 0.3131,0.237 0.5533,0.5332 0.7204,0.8887 0.1672,0.3554 0.2508,0.8188 0.2508,1.3901 m 10.99998,0 c 0,0.457 -0.073,0.8802 -0.21899,1.2695 -0.146,0.3894 -0.35018,0.7258 -0.61255,1.0093 -0.2666,0.2878 -0.59774,0.5142 -0.99341,0.6792 -0.39567,0.1651 -0.83893,0.2476 -1.32983,0.2476 -0.4528,0 -0.8982,-0.0497 -1.3362,-0.1492 -0.438,-0.0994 -0.8178,-0.2296 -1.1394,-0.3904 v -1.3393 h 0.0889 c 0.0973,0.0719 0.237,0.1534 0.4189,0.2444 0.182,0.0909 0.383,0.1766 0.603,0.257 0.2497,0.0889 0.4782,0.1577 0.6856,0.2063 0.2074,0.0487 0.4401,0.073 0.6982,0.073 0.2539,0 0.5015,-0.0455 0.74271,-0.1364 0.24121,-0.091 0.44857,-0.2381 0.62207,-0.4412 0.15658,-0.1862 0.27613,-0.4041 0.35865,-0.6538 0.08252,-0.2497 0.12378,-0.5438 0.12378,-0.8823 0,-0.3343 -0.0455,-0.6094 -0.13648,-0.8252 -0.09098,-0.2159 -0.22322,-0.3936 -0.39673,-0.5332 -0.18196,-0.1608 -0.40519,-0.274 -0.6697,-0.3396 -0.2645,-0.0656 -0.5596,-0.0984 -0.8855,-0.0984 -0.3427,0 -0.6876,0.0264 -1.0346,0.0793 -0.347,0.0529 -0.6242,0.1026 -0.8316,0.1492 v -4.8687 h 5.18605 v 1.1109 h -3.96095 v 2.5137 c 0.1524,-0.017 0.3026,-0.0297 0.4507,-0.0381 0.1481,-0.0085 0.2835,-0.0127 0.4062,-0.0127 0.4825,0 0.89084,0.0402 1.22515,0.1206 0.33431,0.0804 0.65592,0.237 0.96484,0.4697 0.31315,0.237 0.5533,0.5332 0.72046,0.8887 0.16715,0.3554 0.25073,0.8188 0.25073,1.3901 M -0.373047,-21.0361 -4.46094,-13 h -1.35205 l 4.3291,-8.3408 h -4.88769 v -1.1109 h 5.998533 v 1.4156 m 5.654297,2.4692 c 0,-0.6432 -0.05924,-1.1669 -0.17773,-1.571 -0.11849,-0.4042 -0.28142,-0.7163 -0.48877,-0.9363 -0.1862,-0.2031 -0.37452,-0.3428 -0.56495,-0.419 -0.19042,-0.0761 -0.3999,-0.1142 -0.62841,-0.1142 -0.52051,0 -0.93522,0.1862 -1.24414,0.5586 -0.30892,0.3724 -0.46338,0.9119 -0.46338,1.6186 0,0.3978 0.05078,0.7258 0.15234,0.9839 0.10156,0.2581 0.2666,0.4803 0.49512,0.6665 0.16081,0.1312 0.34277,0.219 0.5459,0.2634 0.20312,0.0445 0.42106,0.0667 0.65381,0.0667 0.27083,0 0.56282,-0.0476 0.87597,-0.1428 0.31315,-0.0952 0.5861,-0.2211 0.81885,-0.3777 0.00423,-0.0635 0.00952,-0.1471 0.01587,-0.2507 0.00635,-0.1037 0.00952,-0.219 0.00952,-0.346 m -4.855957,-0.8125 c 0,-0.4866 0.079346,-0.931 0.238037,-1.333 0.158691,-0.402 0.37557,-0.749 0.65063,-1.041 0.26237,-0.2793 0.58293,-0.4973 0.96167,-0.6538 0.37875,-0.1566 0.76278,-0.2349 1.1521,-0.2349 0.43588,0 0.83049,0.073 1.18384,0.219 0.35336,0.146 0.6591,0.3565 0.91724,0.6316 0.32584,0.347 0.57869,0.8019 0.75854,1.3647 0.17985,0.5629 0.26978,1.2738 0.26978,2.1329 0,0.7828 -0.08781,1.5245 -0.26343,2.2248 -0.17562,0.7004 -0.43481,1.2812 -0.77759,1.7424 -0.36393,0.4909 -0.80086,0.8654 -1.31079,1.1236 -0.50993,0.2581 -1.1394,0.3872 -1.88843,0.3872 -0.16927,0 -0.34912,-0.0095 -0.53955,-0.0286 -0.19043,-0.019 -0.36816,-0.0539 -0.5332,-0.1047 v -1.2124 h 0.06348 c 0.10579,0.0592 0.27083,0.1164 0.49511,0.1714 0.22429,0.055 0.4528,0.0825 0.68555,0.0825 0.82943,0 1.48112,-0.273 1.95508,-0.8189 0.47396,-0.5459 0.74268,-1.3266 0.80615,-2.3422 -0.33854,0.2285 -0.66121,0.3956 -0.96802,0.5014 -0.3068,0.1058 -0.64005,0.1587 -0.99975,0.1587 -0.35124,0 -0.67074,-0.0381 -0.9585,-0.1142 -0.28776,-0.0762 -0.57763,-0.2243 -0.86963,-0.4444 -0.33854,-0.2581 -0.594561,-0.585 -0.768063,-0.9807 -0.173503,-0.3957 -0.260254,-0.8728 -0.260254,-1.4314 m 16.154307,2.812 c 0,-0.8463 -0.1291,-1.4885 -0.3872,-1.9265 -0.2582,-0.438 -0.6729,-0.657 -1.2442,-0.657 -0.3258,0 -0.6548,0.0762 -0.987,0.2285 -0.3322,0.1524 -0.6337,0.3449 -0.9046,0.5777 v 4.0625 c 0.3005,0.1481 0.5671,0.2528 0.7998,0.3142 0.2328,0.0613 0.4888,0.092 0.7681,0.092 0.6094,0 1.0876,-0.2158 1.4346,-0.6474 0.347,-0.4317 0.5205,-1.113 0.5205,-2.044 m 1.2314,-0.0952 c 0,1.1595 -0.2814,2.0926 -0.8442,2.7993 -0.5628,0.7067 -1.2674,1.0601 -2.1138,1.0601 -0.3851,0 -0.7141,-0.0476 -0.987,-0.1428 -0.273,-0.0953 -0.5428,-0.2233 -0.8094,-0.3841 L 12.9805,-13 h -1.1172 v -9.877 h 1.1933 v 3.5293 c 0.3005,-0.2708 0.6263,-0.4951 0.9776,-0.6728 0.3512,-0.1777 0.749,-0.2666 1.1933,-0.2666 0.7998,0 1.4304,0.3205 1.8916,0.9617 0.4613,0.6411 0.6919,1.5287 0.6919,2.6628 m 7,-0.0698 c 0,1.1806 -0.2824,2.1212 -0.8474,2.8215 -0.5649,0.7004 -1.279,1.0505 -2.1423,1.0505 -0.3512,0 -0.6623,-0.0402 -0.9331,-0.1206 -0.2708,-0.0804 -0.548,-0.2052 -0.8316,-0.3745 v 2.9707 h -1.1933 v -9.7055 h 1.1933 v 0.7426 c 0.2963,-0.2666 0.6253,-0.4898 0.9871,-0.6696 0.3618,-0.1799 0.7564,-0.2698 1.1838,-0.2698 0.8125,0 1.4462,0.3216 1.9012,0.9648 0.4549,0.6433 0.6823,1.5065 0.6823,2.5899 m -1.2314,0.1333 c 0,-0.8083 -0.1291,-1.4356 -0.3872,-1.8821 -0.2582,-0.4465 -0.6771,-0.6697 -1.2569,-0.6697 -0.3385,0 -0.6654,0.0751 -0.9807,0.2254 -0.3152,0.1502 -0.6146,0.3438 -0.8982,0.5808 v 4.018 c 0.3132,0.1524 0.5809,0.2561 0.803,0.3111 0.2222,0.055 0.4772,0.0825 0.7649,0.0825 0.6179,0 1.0982,-0.2264 1.4409,-0.6792 0.3428,-0.4528 0.5142,-1.1151 0.5142,-1.9868 M -12.957,0 h -4.6084 v -0.964844 h 1.7138 V -7.2998 h -1.7138 v -0.86329 c 0.6474,0 1.1246,-0.09204 1.4314,-0.27612 0.3068,-0.18408 0.4792,-0.53214 0.5173,-1.04419 h 0.9839 v 8.518556 h 1.6758 V 0 m 7.52682,-4.729 c 0,1.69694 -0.2465,2.94213 -0.7395,3.735592 -0.493,0.793457 -1.25366,1.190185 -2.28198,1.190185 -1.04102,0 -1.80484,-0.404134 -2.29154,-1.212407 -0.4866,-0.80826 -0.7299,-2.04182 -0.7299,-3.70068 0,-1.7054 0.2465,-2.95272 0.7395,-3.74194 0.493,-0.78923 1.25362,-1.18384 2.28194,-1.18384 1.04102,0 1.80485,0.40837 2.2915,1.2251 0.48666,0.81673 0.72998,2.04606 0.72998,3.68799 m -1.625,2.88183 c 0.12273,-0.31315 0.20948,-0.70882 0.26026,-1.18701 0.05078,-0.47819 0.07617,-1.04313 0.07617,-1.69482 0,-0.64746 -0.02539,-1.21029 -0.07617,-1.68848 -0.05078,-0.47819 -0.13965,-0.87598 -0.2666,-1.19336 -0.12696,-0.32161 -0.30152,-0.566 -0.52369,-0.73315 -0.22216,-0.16716 -0.51098,-0.25074 -0.86645,-0.25074 -0.35124,0 -0.64006,0.08358 -0.86646,0.25074 -0.22639,0.16715 -0.40519,0.41577 -0.53637,0.74585 -0.12696,0.32161 -0.21371,0.72786 -0.26021,1.21875 -0.0466,0.49088 -0.0699,1.04524 -0.0699,1.66308 0,0.66016 0.0201,1.2124 0.0603,1.65674 0.0402,0.44434 0.12804,0.84212 0.26346,1.19336 0.12272,0.32585 0.29728,0.57658 0.52368,0.7522 0.2264,0.175615 0.52157,0.263424 0.8855,0.263424 0.35124,0 0.64006,-0.083577 0.86645,-0.250734 0.2264,-0.16715 0.40308,-0.41577 0.53003,-0.74585 M 1.52539,0 h -5.8335 v -1.32666 c 0.41895,-0.39779 0.81462,-0.77865 1.18702,-1.14258 0.37239,-0.36393 0.73632,-0.74267 1.09179,-1.13623 0.7194,-0.79134 1.21029,-1.42505 1.472659,-1.90112 0.26237,-0.47608 0.393555,-0.96802 0.393555,-1.47583 0,-0.26237 -0.04126,-0.493 -0.123779,-0.6919 -0.08252,-0.19889 -0.19572,-0.36393 -0.3396,-0.49511 -0.148112,-0.12696 -0.319499,-0.22217 -0.514165,-0.28565 -0.19466,-0.06347 -0.40836,-0.09521 -0.64111,-0.09521 -0.22428,0 -0.45174,0.02856 -0.68237,0.08569 -0.23063,0.05713 -0.45174,0.12801 -0.66333,0.21265 -0.17774,0.07194 -0.34912,0.15869 -0.51416,0.26025 -0.16504,0.10156 -0.29834,0.18831 -0.3999,0.26025 h -0.06983 v -1.3457 c 0.26237,-0.13118 0.62736,-0.25919 1.09497,-0.38403 0.46761,-0.12484 0.91089,-0.18726 1.32984,-0.18726 0.880205,0 1.569984,0.23381 2.069333,0.70142 0.499348,0.46761 0.749027,1.10132 0.749027,1.90112 0,0.36817 -0.04338,0.70882 -0.13013,1.02197 -0.086752,0.31316 -0.2063,0.60303 -0.358644,0.86963 -0.156575,0.27507 -0.344889,0.54802 -0.564941,0.81885 -0.220052,0.27083 -0.452799,0.53744 -0.698242,0.79981 -0.397783,0.43164 -0.841063,0.8802 -1.329833,1.3457 -0.48877,0.46549 -0.87915,0.83366 -1.17114,1.10449 H 1.52539 V 0 M 5.17383,-1.80908 3.39648,2.34863 H 2.46973 L 3.58691,-1.80908 H 5.17383 M 12.043,0 H 7.43457 V -0.964844 H 9.14844 V -7.2998 H 7.43457 v -0.86329 c 0.64746,0 1.12459,-0.09204 1.4314,-0.27612 0.3068,-0.18408 0.47924,-0.53214 0.51733,-1.04419 h 0.9839 v 8.518556 H 12.043 V 0 m 7.33,0 H 17.9067 L 16.1865,-2.67871 14.4155,0 h -1.352 l 2.4629,-3.5166 -2.4375,-3.57373 h 1.4663 l 1.7075,2.65332 1.7519,-2.65332 H 19.373 L 16.9229,-3.59912 19.373,0"
         fill-rule="evenodd"
         vector-effect="none" />
    </g>
    <g
       id="g48"
       font-style="normal"
       font-weight="400"
       font-size="7.8px"
       font-family="'MS Shell Dlg 2'"
       transform="matrix(8.88962,0,0,8.88962,159,-521)"
       stroke-linejoin="bevel"
       stroke-linecap="square"
       stroke-width="1"
       stroke-opacity="1"
       stroke="#000000"
       fill="none" />
    <g
       id="g50"
       font-style="normal"
       font-weight="400"
       font-size="7.8px"
       font-family="'MS Shell Dlg 2'"
       transform="matrix(8.88962,0,0,8.88962,159,-521)"
       stroke-linejoin="bevel"
       stroke-linecap="square"
       stroke-width="1"
       stroke-opacity="1"
       stroke="#000000"
       fill="none" />
    <g
       id="g54"
       font-style="normal"
       font-weight="400"
       font-size="7.8px"
       font-family="'MS Shell Dlg 2'"
       transform="matrix(8.88962,0,0,8.88962,159,-521)"
       stroke="none"
       fill-opacity="1"
       fill="#62cb69">
      <path
         id="path52"
         d="m -13.7094,82.8322 15.2585,1.3774 -0.22672,2.5115 0.15084,-2.5172 16.24298,0.9733 -0.1508,2.5172 0.0681,-2.5208 17.4539,0.4717 -0.0681,2.5208 -0.0286,-2.5216 18.6326,-0.2112 0.0286,2.5216 -0.0959,-2.5199 19.2685,-0.7331 0.0958,2.5199 -0.1535,-2.517 19.4757,-1.1879 0.1535,2.517 -0.2029,-2.5135 19.3299,-1.5605 0.203,2.5135 -0.244,-2.5098 19.213,-1.8691 0.488,5.0198 -19.213,1.869 c -0.014,0.0015 -0.027,0.0027 -0.04,0.0038 l -0.001,-1e-4 -19.3301,1.5605 c -0.0163,0.0014 -0.0328,0.0026 -0.0487,0.0035 h -7e-4 l -19.4756,1.1879 c -0.0191,0.0012 -0.0383,0.0021 -0.0572,0.0029 l -5e-4,-1e-4 -19.2684,0.7331 c -0.0223,9e-4 -0.0448,0.0014 -0.0672,0.0017 h -10e-5 l -18.6327,0.2112 c -0.0095,10e-5 -0.019,10e-5 -0.0285,10e-5 -0.0229,0 -0.0458,-3e-4 -0.0682,-9e-4 v 0 L 17.4973,90.2152 c -0.0281,-7e-4 -0.0558,-0.0019 -0.0828,-0.0035 l 10e-5,-10e-5 L 1.17155,89.2383 C 1.14541,89.2369 1.12004,89.235 1.09548,89.2328 l 1.9e-4,-2e-4 -15.25847,-1.3773 0.4534,-5.0231"
         fill-rule="nonzero"
         vector-effect="none" />
    </g>
    <g
       id="g58"
       font-style="normal"
       font-weight="400"
       font-size="7.8px"
       font-family="'MS Shell Dlg 2'"
       transform="matrix(1.36287,0,0,1.36287,679.492,276.418)"
       stroke-linejoin="round"
       stroke-linecap="square"
       stroke-width="3"
       stroke-opacity="1"
       stroke="#ffffff"
       fill="none">
      <path
         id="path56"
         d="m -18.5825,-16.0088 c 0,0.457 -0.073,0.8802 -0.219,1.2695 -0.146,0.3894 -0.3502,0.7258 -0.6126,1.0093 -0.2666,0.2878 -0.5977,0.5142 -0.9934,0.6792 -0.3956,0.1651 -0.8389,0.2476 -1.3298,0.2476 -0.4528,0 -0.8982,-0.0497 -1.3362,-0.1492 -0.438,-0.0994 -0.8178,-0.2296 -1.1394,-0.3904 v -1.3393 h 0.0889 c 0.0973,0.0719 0.237,0.1534 0.4189,0.2444 0.182,0.0909 0.383,0.1766 0.603,0.257 0.2497,0.0889 0.4782,0.1577 0.6856,0.2063 0.2074,0.0487 0.4401,0.073 0.6982,0.073 0.2539,0 0.5015,-0.0455 0.7427,-0.1364 0.2412,-0.091 0.4486,-0.2381 0.6221,-0.4412 0.1566,-0.1862 0.2761,-0.4041 0.3586,-0.6538 0.0825,-0.2497 0.1238,-0.5438 0.1238,-0.8823 0,-0.3343 -0.0455,-0.6094 -0.1365,-0.8252 -0.091,-0.2159 -0.2232,-0.3936 -0.3967,-0.5332 -0.182,-0.1608 -0.4052,-0.274 -0.6697,-0.3396 -0.2645,-0.0656 -0.5596,-0.0984 -0.8855,-0.0984 -0.3427,0 -0.6876,0.0264 -1.0346,0.0793 -0.347,0.0529 -0.6242,0.1026 -0.8316,0.1492 v -4.8687 h 5.1861 v 1.1109 h -3.961 v 2.5137 c 0.1524,-0.017 0.3026,-0.0297 0.4507,-0.0381 0.1481,-0.0085 0.2835,-0.0127 0.4062,-0.0127 0.4825,0 0.8908,0.0402 1.2251,0.1206 0.3344,0.0804 0.656,0.237 0.9649,0.4697 0.3131,0.237 0.5533,0.5332 0.7204,0.8887 0.1672,0.3554 0.2508,0.8188 0.2508,1.3901 m 10.99998,0 c 0,0.457 -0.073,0.8802 -0.21899,1.2695 -0.146,0.3894 -0.35018,0.7258 -0.61255,1.0093 -0.2666,0.2878 -0.59774,0.5142 -0.99341,0.6792 -0.39567,0.1651 -0.83893,0.2476 -1.32983,0.2476 -0.4528,0 -0.8982,-0.0497 -1.3362,-0.1492 -0.438,-0.0994 -0.8178,-0.2296 -1.1394,-0.3904 v -1.3393 h 0.0889 c 0.0973,0.0719 0.237,0.1534 0.4189,0.2444 0.182,0.0909 0.383,0.1766 0.603,0.257 0.2497,0.0889 0.4782,0.1577 0.6856,0.2063 0.2074,0.0487 0.4401,0.073 0.6982,0.073 0.2539,0 0.5015,-0.0455 0.74271,-0.1364 0.24121,-0.091 0.44857,-0.2381 0.62207,-0.4412 0.15658,-0.1862 0.27613,-0.4041 0.35865,-0.6538 0.08252,-0.2497 0.12378,-0.5438 0.12378,-0.8823 0,-0.3343 -0.0455,-0.6094 -0.13648,-0.8252 -0.09098,-0.2159 -0.22322,-0.3936 -0.39673,-0.5332 -0.18196,-0.1608 -0.40519,-0.274 -0.6697,-0.3396 -0.2645,-0.0656 -0.5596,-0.0984 -0.8855,-0.0984 -0.3427,0 -0.6876,0.0264 -1.0346,0.0793 -0.347,0.0529 -0.6242,0.1026 -0.8316,0.1492 v -4.8687 h 5.18605 v 1.1109 h -3.96095 v 2.5137 c 0.1524,-0.017 0.3026,-0.0297 0.4507,-0.0381 0.1481,-0.0085 0.2835,-0.0127 0.4062,-0.0127 0.4825,0 0.89084,0.0402 1.22515,0.1206 0.33431,0.0804 0.65592,0.237 0.96484,0.4697 0.31315,0.237 0.5533,0.5332 0.72046,0.8887 0.16715,0.3554 0.25073,0.8188 0.25073,1.3901 M -0.373047,-21.0361 -4.46094,-13 h -1.35205 l 4.3291,-8.3408 h -4.88769 v -1.1109 h 5.998533 v 1.4156 m 5.654297,2.4692 c 0,-0.6432 -0.05924,-1.1669 -0.17773,-1.571 -0.11849,-0.4042 -0.28142,-0.7163 -0.48877,-0.9363 -0.1862,-0.2031 -0.37452,-0.3428 -0.56495,-0.419 -0.19042,-0.0761 -0.3999,-0.1142 -0.62841,-0.1142 -0.52051,0 -0.93522,0.1862 -1.24414,0.5586 -0.30892,0.3724 -0.46338,0.9119 -0.46338,1.6186 0,0.3978 0.05078,0.7258 0.15234,0.9839 0.10156,0.2581 0.2666,0.4803 0.49512,0.6665 0.16081,0.1312 0.34277,0.219 0.5459,0.2634 0.20312,0.0445 0.42106,0.0667 0.65381,0.0667 0.27083,0 0.56282,-0.0476 0.87597,-0.1428 0.31315,-0.0952 0.5861,-0.2211 0.81885,-0.3777 0.00423,-0.0635 0.00952,-0.1471 0.01587,-0.2507 0.00635,-0.1037 0.00952,-0.219 0.00952,-0.346 m -4.855957,-0.8125 c 0,-0.4866 0.079346,-0.931 0.238037,-1.333 0.158691,-0.402 0.37557,-0.749 0.65063,-1.041 0.26237,-0.2793 0.58293,-0.4973 0.96167,-0.6538 0.37875,-0.1566 0.76278,-0.2349 1.1521,-0.2349 0.43588,0 0.83049,0.073 1.18384,0.219 0.35336,0.146 0.6591,0.3565 0.91724,0.6316 0.32584,0.347 0.57869,0.8019 0.75854,1.3647 0.17985,0.5629 0.26978,1.2738 0.26978,2.1329 0,0.7828 -0.08781,1.5245 -0.26343,2.2248 -0.17562,0.7004 -0.43481,1.2812 -0.77759,1.7424 -0.36393,0.4909 -0.80086,0.8654 -1.31079,1.1236 -0.50993,0.2581 -1.1394,0.3872 -1.88843,0.3872 -0.16927,0 -0.34912,-0.0095 -0.53955,-0.0286 -0.19043,-0.019 -0.36816,-0.0539 -0.5332,-0.1047 v -1.2124 h 0.06348 c 0.10579,0.0592 0.27083,0.1164 0.49511,0.1714 0.22429,0.055 0.4528,0.0825 0.68555,0.0825 0.82943,0 1.48112,-0.273 1.95508,-0.8189 0.47396,-0.5459 0.74268,-1.3266 0.80615,-2.3422 -0.33854,0.2285 -0.66121,0.3956 -0.96802,0.5014 -0.3068,0.1058 -0.64005,0.1587 -0.99975,0.1587 -0.35124,0 -0.67074,-0.0381 -0.9585,-0.1142 -0.28776,-0.0762 -0.57763,-0.2243 -0.86963,-0.4444 -0.33854,-0.2581 -0.594561,-0.585 -0.768063,-0.9807 -0.173503,-0.3957 -0.260254,-0.8728 -0.260254,-1.4314 m 16.154307,2.812 c 0,-0.8463 -0.1291,-1.4885 -0.3872,-1.9265 -0.2582,-0.438 -0.6729,-0.657 -1.2442,-0.657 -0.3258,0 -0.6548,0.0762 -0.987,0.2285 -0.3322,0.1524 -0.6337,0.3449 -0.9046,0.5777 v 4.0625 c 0.3005,0.1481 0.5671,0.2528 0.7998,0.3142 0.2328,0.0613 0.4888,0.092 0.7681,0.092 0.6094,0 1.0876,-0.2158 1.4346,-0.6474 0.347,-0.4317 0.5205,-1.113 0.5205,-2.044 m 1.2314,-0.0952 c 0,1.1595 -0.2814,2.0926 -0.8442,2.7993 -0.5628,0.7067 -1.2674,1.0601 -2.1138,1.0601 -0.3851,0 -0.7141,-0.0476 -0.987,-0.1428 -0.273,-0.0953 -0.5428,-0.2233 -0.8094,-0.3841 L 12.9805,-13 h -1.1172 v -9.877 h 1.1933 v 3.5293 c 0.3005,-0.2708 0.6263,-0.4951 0.9776,-0.6728 0.3512,-0.1777 0.749,-0.2666 1.1933,-0.2666 0.7998,0 1.4304,0.3205 1.8916,0.9617 0.4613,0.6411 0.6919,1.5287 0.6919,2.6628 m 7,-0.0698 c 0,1.1806 -0.2824,2.1212 -0.8474,2.8215 -0.5649,0.7004 -1.279,1.0505 -2.1423,1.0505 -0.3512,0 -0.6623,-0.0402 -0.9331,-0.1206 -0.2708,-0.0804 -0.548,-0.2052 -0.8316,-0.3745 v 2.9707 h -1.1933 v -9.7055 h 1.1933 v 0.7426 c 0.2963,-0.2666 0.6253,-0.4898 0.9871,-0.6696 0.3618,-0.1799 0.7564,-0.2698 1.1838,-0.2698 0.8125,0 1.4462,0.3216 1.9012,0.9648 0.4549,0.6433 0.6823,1.5065 0.6823,2.5899 m -1.2314,0.1333 c 0,-0.8083 -0.1291,-1.4356 -0.3872,-1.8821 -0.2582,-0.4465 -0.6771,-0.6697 -1.2569,-0.6697 -0.3385,0 -0.6654,0.0751 -0.9807,0.2254 -0.3152,0.1502 -0.6146,0.3438 -0.8982,0.5808 v 4.018 c 0.3132,0.1524 0.5809,0.2561 0.803,0.3111 0.2222,0.055 0.4772,0.0825 0.7649,0.0825 0.6179,0 1.0982,-0.2264 1.4409,-0.6792 0.3428,-0.4528 0.5142,-1.1151 0.5142,-1.9868 M -12.957,0 h -4.6084 v -0.964844 h 1.7138 V -7.2998 h -1.7138 v -0.86329 c 0.6474,0 1.1246,-0.09204 1.4314,-0.27612 0.3068,-0.18408 0.4792,-0.53214 0.5173,-1.04419 h 0.9839 v 8.518556 h 1.6758 V 0 m 7.52682,-4.729 c 0,1.69694 -0.2465,2.94213 -0.7395,3.735592 -0.493,0.793457 -1.25366,1.190185 -2.28198,1.190185 -1.04102,0 -1.80484,-0.404134 -2.29154,-1.212407 -0.4866,-0.80826 -0.7299,-2.04182 -0.7299,-3.70068 0,-1.7054 0.2465,-2.95272 0.7395,-3.74194 0.493,-0.78923 1.25362,-1.18384 2.28194,-1.18384 1.04102,0 1.80485,0.40837 2.2915,1.2251 0.48666,0.81673 0.72998,2.04606 0.72998,3.68799 m -1.625,2.88183 c 0.12273,-0.31315 0.20948,-0.70882 0.26026,-1.18701 0.05078,-0.47819 0.07617,-1.04313 0.07617,-1.69482 0,-0.64746 -0.02539,-1.21029 -0.07617,-1.68848 -0.05078,-0.47819 -0.13965,-0.87598 -0.2666,-1.19336 -0.12696,-0.32161 -0.30152,-0.566 -0.52369,-0.73315 -0.22216,-0.16716 -0.51098,-0.25074 -0.86645,-0.25074 -0.35124,0 -0.64006,0.08358 -0.86646,0.25074 -0.22639,0.16715 -0.40519,0.41577 -0.53637,0.74585 -0.12696,0.32161 -0.21371,0.72786 -0.26021,1.21875 -0.0466,0.49088 -0.0699,1.04524 -0.0699,1.66308 0,0.66016 0.0201,1.2124 0.0603,1.65674 0.0402,0.44434 0.12804,0.84212 0.26346,1.19336 0.12272,0.32585 0.29728,0.57658 0.52368,0.7522 0.2264,0.175615 0.52157,0.263424 0.8855,0.263424 0.35124,0 0.64006,-0.083577 0.86645,-0.250734 0.2264,-0.16715 0.40308,-0.41577 0.53003,-0.74585 M 1.52539,0 h -5.8335 v -1.32666 c 0.41895,-0.39779 0.81462,-0.77865 1.18702,-1.14258 0.37239,-0.36393 0.73632,-0.74267 1.09179,-1.13623 0.7194,-0.79134 1.21029,-1.42505 1.472659,-1.90112 0.26237,-0.47608 0.393555,-0.96802 0.393555,-1.47583 0,-0.26237 -0.04126,-0.493 -0.123779,-0.6919 -0.08252,-0.19889 -0.19572,-0.36393 -0.3396,-0.49511 -0.148112,-0.12696 -0.319499,-0.22217 -0.514165,-0.28565 -0.19466,-0.06347 -0.40836,-0.09521 -0.64111,-0.09521 -0.22428,0 -0.45174,0.02856 -0.68237,0.08569 -0.23063,0.05713 -0.45174,0.12801 -0.66333,0.21265 -0.17774,0.07194 -0.34912,0.15869 -0.51416,0.26025 -0.16504,0.10156 -0.29834,0.18831 -0.3999,0.26025 h -0.06983 v -1.3457 c 0.26237,-0.13118 0.62736,-0.25919 1.09497,-0.38403 0.46761,-0.12484 0.91089,-0.18726 1.32984,-0.18726 0.880205,0 1.569984,0.23381 2.069333,0.70142 0.499348,0.46761 0.749027,1.10132 0.749027,1.90112 0,0.36817 -0.04338,0.70882 -0.13013,1.02197 -0.086752,0.31316 -0.2063,0.60303 -0.358644,0.86963 -0.156575,0.27507 -0.344889,0.54802 -0.564941,0.81885 -0.220052,0.27083 -0.452799,0.53744 -0.698242,0.79981 -0.397783,0.43164 -0.841063,0.8802 -1.329833,1.3457 -0.48877,0.46549 -0.87915,0.83366 -1.17114,1.10449 H 1.52539 V 0 M 5.17383,-1.80908 3.39648,2.34863 H 2.46973 L 3.58691,-1.80908 H 5.17383 M 12.043,0 H 7.43457 V -0.964844 H 9.14844 V -7.2998 H 7.43457 v -0.86329 c 0.64746,0 1.12459,-0.09204 1.4314,-0.27612 0.3068,-0.18408 0.47924,-0.53214 0.51733,-1.04419 h 0.9839 v 8.518556 H 12.043 V 0 m 7.33,0 H 17.9067 L 16.1865,-2.67871 14.4155,0 h -1.352 l 2.4629,-3.5166 -2.4375,-3.57373 h 1.4663 l 1.7075,2.65332 1.7519,-2.65332 H 19.373 L 16.9229,-3.59912 19.373,0"
         fill-rule="evenodd"
         vector-effect="none" />
    </g>
    <g
       id="g62"
       font-style="normal"
       font-weight="400"
       font-size="7.8px"
       font-family="'MS Shell Dlg 2'"
       transform="matrix(1.36287,0,0,1.36287,679.492,276.418)"
       stroke="none"
       fill-opacity="1"
       fill="#000000">
      <path
         id="path60"
         d="m -18.5825,-16.0088 c 0,0.457 -0.073,0.8802 -0.219,1.2695 -0.146,0.3894 -0.3502,0.7258 -0.6126,1.0093 -0.2666,0.2878 -0.5977,0.5142 -0.9934,0.6792 -0.3956,0.1651 -0.8389,0.2476 -1.3298,0.2476 -0.4528,0 -0.8982,-0.0497 -1.3362,-0.1492 -0.438,-0.0994 -0.8178,-0.2296 -1.1394,-0.3904 v -1.3393 h 0.0889 c 0.0973,0.0719 0.237,0.1534 0.4189,0.2444 0.182,0.0909 0.383,0.1766 0.603,0.257 0.2497,0.0889 0.4782,0.1577 0.6856,0.2063 0.2074,0.0487 0.4401,0.073 0.6982,0.073 0.2539,0 0.5015,-0.0455 0.7427,-0.1364 0.2412,-0.091 0.4486,-0.2381 0.6221,-0.4412 0.1566,-0.1862 0.2761,-0.4041 0.3586,-0.6538 0.0825,-0.2497 0.1238,-0.5438 0.1238,-0.8823 0,-0.3343 -0.0455,-0.6094 -0.1365,-0.8252 -0.091,-0.2159 -0.2232,-0.3936 -0.3967,-0.5332 -0.182,-0.1608 -0.4052,-0.274 -0.6697,-0.3396 -0.2645,-0.0656 -0.5596,-0.0984 -0.8855,-0.0984 -0.3427,0 -0.6876,0.0264 -1.0346,0.0793 -0.347,0.0529 -0.6242,0.1026 -0.8316,0.1492 v -4.8687 h 5.1861 v 1.1109 h -3.961 v 2.5137 c 0.1524,-0.017 0.3026,-0.0297 0.4507,-0.0381 0.1481,-0.0085 0.2835,-0.0127 0.4062,-0.0127 0.4825,0 0.8908,0.0402 1.2251,0.1206 0.3344,0.0804 0.656,0.237 0.9649,0.4697 0.3131,0.237 0.5533,0.5332 0.7204,0.8887 0.1672,0.3554 0.2508,0.8188 0.2508,1.3901 m 10.99998,0 c 0,0.457 -0.073,0.8802 -0.21899,1.2695 -0.146,0.3894 -0.35018,0.7258 -0.61255,1.0093 -0.2666,0.2878 -0.59774,0.5142 -0.99341,0.6792 -0.39567,0.1651 -0.83893,0.2476 -1.32983,0.2476 -0.4528,0 -0.8982,-0.0497 -1.3362,-0.1492 -0.438,-0.0994 -0.8178,-0.2296 -1.1394,-0.3904 v -1.3393 h 0.0889 c 0.0973,0.0719 0.237,0.1534 0.4189,0.2444 0.182,0.0909 0.383,0.1766 0.603,0.257 0.2497,0.0889 0.4782,0.1577 0.6856,0.2063 0.2074,0.0487 0.4401,0.073 0.6982,0.073 0.2539,0 0.5015,-0.0455 0.74271,-0.1364 0.24121,-0.091 0.44857,-0.2381 0.62207,-0.4412 0.15658,-0.1862 0.27613,-0.4041 0.35865,-0.6538 0.08252,-0.2497 0.12378,-0.5438 0.12378,-0.8823 0,-0.3343 -0.0455,-0.6094 -0.13648,-0.8252 -0.09098,-0.2159 -0.22322,-0.3936 -0.39673,-0.5332 -0.18196,-0.1608 -0.40519,-0.274 -0.6697,-0.3396 -0.2645,-0.0656 -0.5596,-0.0984 -0.8855,-0.0984 -0.3427,0 -0.6876,0.0264 -1.0346,0.0793 -0.347,0.0529 -0.6242,0.1026 -0.8316,0.1492 v -4.8687 h 5.18605 v 1.1109 h -3.96095 v 2.5137 c 0.1524,-0.017 0.3026,-0.0297 0.4507,-0.0381 0.1481,-0.0085 0.2835,-0.0127 0.4062,-0.0127 0.4825,0 0.89084,0.0402 1.22515,0.1206 0.33431,0.0804 0.65592,0.237 0.96484,0.4697 0.31315,0.237 0.5533,0.5332 0.72046,0.8887 0.16715,0.3554 0.25073,0.8188 0.25073,1.3901 M -0.373047,-21.0361 -4.46094,-13 h -1.35205 l 4.3291,-8.3408 h -4.88769 v -1.1109 h 5.998533 v 1.4156 m 5.654297,2.4692 c 0,-0.6432 -0.05924,-1.1669 -0.17773,-1.571 -0.11849,-0.4042 -0.28142,-0.7163 -0.48877,-0.9363 -0.1862,-0.2031 -0.37452,-0.3428 -0.56495,-0.419 -0.19042,-0.0761 -0.3999,-0.1142 -0.62841,-0.1142 -0.52051,0 -0.93522,0.1862 -1.24414,0.5586 -0.30892,0.3724 -0.46338,0.9119 -0.46338,1.6186 0,0.3978 0.05078,0.7258 0.15234,0.9839 0.10156,0.2581 0.2666,0.4803 0.49512,0.6665 0.16081,0.1312 0.34277,0.219 0.5459,0.2634 0.20312,0.0445 0.42106,0.0667 0.65381,0.0667 0.27083,0 0.56282,-0.0476 0.87597,-0.1428 0.31315,-0.0952 0.5861,-0.2211 0.81885,-0.3777 0.00423,-0.0635 0.00952,-0.1471 0.01587,-0.2507 0.00635,-0.1037 0.00952,-0.219 0.00952,-0.346 m -4.855957,-0.8125 c 0,-0.4866 0.079346,-0.931 0.238037,-1.333 0.158691,-0.402 0.37557,-0.749 0.65063,-1.041 0.26237,-0.2793 0.58293,-0.4973 0.96167,-0.6538 0.37875,-0.1566 0.76278,-0.2349 1.1521,-0.2349 0.43588,0 0.83049,0.073 1.18384,0.219 0.35336,0.146 0.6591,0.3565 0.91724,0.6316 0.32584,0.347 0.57869,0.8019 0.75854,1.3647 0.17985,0.5629 0.26978,1.2738 0.26978,2.1329 0,0.7828 -0.08781,1.5245 -0.26343,2.2248 -0.17562,0.7004 -0.43481,1.2812 -0.77759,1.7424 -0.36393,0.4909 -0.80086,0.8654 -1.31079,1.1236 -0.50993,0.2581 -1.1394,0.3872 -1.88843,0.3872 -0.16927,0 -0.34912,-0.0095 -0.53955,-0.0286 -0.19043,-0.019 -0.36816,-0.0539 -0.5332,-0.1047 v -1.2124 h 0.06348 c 0.10579,0.0592 0.27083,0.1164 0.49511,0.1714 0.22429,0.055 0.4528,0.0825 0.68555,0.0825 0.82943,0 1.48112,-0.273 1.95508,-0.8189 0.47396,-0.5459 0.74268,-1.3266 0.80615,-2.3422 -0.33854,0.2285 -0.66121,0.3956 -0.96802,0.5014 -0.3068,0.1058 -0.64005,0.1587 -0.99975,0.1587 -0.35124,0 -0.67074,-0.0381 -0.9585,-0.1142 -0.28776,-0.0762 -0.57763,-0.2243 -0.86963,-0.4444 -0.33854,-0.2581 -0.594561,-0.585 -0.768063,-0.9807 -0.173503,-0.3957 -0.260254,-0.8728 -0.260254,-1.4314 m 16.154307,2.812 c 0,-0.8463 -0.1291,-1.4885 -0.3872,-1.9265 -0.2582,-0.438 -0.6729,-0.657 -1.2442,-0.657 -0.3258,0 -0.6548,0.0762 -0.987,0.2285 -0.3322,0.1524 -0.6337,0.3449 -0.9046,0.5777 v 4.0625 c 0.3005,0.1481 0.5671,0.2528 0.7998,0.3142 0.2328,0.0613 0.4888,0.092 0.7681,0.092 0.6094,0 1.0876,-0.2158 1.4346,-0.6474 0.347,-0.4317 0.5205,-1.113 0.5205,-2.044 m 1.2314,-0.0952 c 0,1.1595 -0.2814,2.0926 -0.8442,2.7993 -0.5628,0.7067 -1.2674,1.0601 -2.1138,1.0601 -0.3851,0 -0.7141,-0.0476 -0.987,-0.1428 -0.273,-0.0953 -0.5428,-0.2233 -0.8094,-0.3841 L 12.9805,-13 h -1.1172 v -9.877 h 1.1933 v 3.5293 c 0.3005,-0.2708 0.6263,-0.4951 0.9776,-0.6728 0.3512,-0.1777 0.749,-0.2666 1.1933,-0.2666 0.7998,0 1.4304,0.3205 1.8916,0.9617 0.4613,0.6411 0.6919,1.5287 0.6919,2.6628 m 7,-0.0698 c 0,1.1806 -0.2824,2.1212 -0.8474,2.8215 -0.5649,0.7004 -1.279,1.0505 -2.1423,1.0505 -0.3512,0 -0.6623,-0.0402 -0.9331,-0.1206 -0.2708,-0.0804 -0.548,-0.2052 -0.8316,-0.3745 v 2.9707 h -1.1933 v -9.7055 h 1.1933 v 0.7426 c 0.2963,-0.2666 0.6253,-0.4898 0.9871,-0.6696 0.3618,-0.1799 0.7564,-0.2698 1.1838,-0.2698 0.8125,0 1.4462,0.3216 1.9012,0.9648 0.4549,0.6433 0.6823,1.5065 0.6823,2.5899 m -1.2314,0.1333 c 0,-0.8083 -0.1291,-1.4356 -0.3872,-1.8821 -0.2582,-0.4465 -0.6771,-0.6697 -1.2569,-0.6697 -0.3385,0 -0.6654,0.0751 -0.9807,0.2254 -0.3152,0.1502 -0.6146,0.3438 -0.8982,0.5808 v 4.018 c 0.3132,0.1524 0.5809,0.2561 0.803,0.3111 0.2222,0.055 0.4772,0.0825 0.7649,0.0825 0.6179,0 1.0982,-0.2264 1.4409,-0.6792 0.3428,-0.4528 0.5142,-1.1151 0.5142,-1.9868 M -12.957,0 h -4.6084 v -0.964844 h 1.7138 V -7.2998 h -1.7138 v -0.86329 c 0.6474,0 1.1246,-0.09204 1.4314,-0.27612 0.3068,-0.18408 0.4792,-0.53214 0.5173,-1.04419 h 0.9839 v 8.518556 h 1.6758 V 0 m 7.52682,-4.729 c 0,1.69694 -0.2465,2.94213 -0.7395,3.735592 -0.493,0.793457 -1.25366,1.190185 -2.28198,1.190185 -1.04102,0 -1.80484,-0.404134 -2.29154,-1.212407 -0.4866,-0.80826 -0.7299,-2.04182 -0.7299,-3.70068 0,-1.7054 0.2465,-2.95272 0.7395,-3.74194 0.493,-0.78923 1.25362,-1.18384 2.28194,-1.18384 1.04102,0 1.80485,0.40837 2.2915,1.2251 0.48666,0.81673 0.72998,2.04606 0.72998,3.68799 m -1.625,2.88183 c 0.12273,-0.31315 0.20948,-0.70882 0.26026,-1.18701 0.05078,-0.47819 0.07617,-1.04313 0.07617,-1.69482 0,-0.64746 -0.02539,-1.21029 -0.07617,-1.68848 -0.05078,-0.47819 -0.13965,-0.87598 -0.2666,-1.19336 -0.12696,-0.32161 -0.30152,-0.566 -0.52369,-0.73315 -0.22216,-0.16716 -0.51098,-0.25074 -0.86645,-0.25074 -0.35124,0 -0.64006,0.08358 -0.86646,0.25074 -0.22639,0.16715 -0.40519,0.41577 -0.53637,0.74585 -0.12696,0.32161 -0.21371,0.72786 -0.26021,1.21875 -0.0466,0.49088 -0.0699,1.04524 -0.0699,1.66308 0,0.66016 0.0201,1.2124 0.0603,1.65674 0.0402,0.44434 0.12804,0.84212 0.26346,1.19336 0.12272,0.32585 0.29728,0.57658 0.52368,0.7522 0.2264,0.175615 0.52157,0.263424 0.8855,0.263424 0.35124,0 0.64006,-0.083577 0.86645,-0.250734 0.2264,-0.16715 0.40308,-0.41577 0.53003,-0.74585 M 1.52539,0 h -5.8335 v -1.32666 c 0.41895,-0.39779 0.81462,-0.77865 1.18702,-1.14258 0.37239,-0.36393 0.73632,-0.74267 1.09179,-1.13623 0.7194,-0.79134 1.21029,-1.42505 1.472659,-1.90112 0.26237,-0.47608 0.393555,-0.96802 0.393555,-1.47583 0,-0.26237 -0.04126,-0.493 -0.123779,-0.6919 -0.08252,-0.19889 -0.19572,-0.36393 -0.3396,-0.49511 -0.148112,-0.12696 -0.319499,-0.22217 -0.514165,-0.28565 -0.19466,-0.06347 -0.40836,-0.09521 -0.64111,-0.09521 -0.22428,0 -0.45174,0.02856 -0.68237,0.08569 -0.23063,0.05713 -0.45174,0.12801 -0.66333,0.21265 -0.17774,0.07194 -0.34912,0.15869 -0.51416,0.26025 -0.16504,0.10156 -0.29834,0.18831 -0.3999,0.26025 h -0.06983 v -1.3457 c 0.26237,-0.13118 0.62736,-0.25919 1.09497,-0.38403 0.46761,-0.12484 0.91089,-0.18726 1.32984,-0.18726 0.880205,0 1.569984,0.23381 2.069333,0.70142 0.499348,0.46761 0.749027,1.10132 0.749027,1.90112 0,0.36817 -0.04338,0.70882 -0.13013,1.02197 -0.086752,0.31316 -0.2063,0.60303 -0.358644,0.86963 -0.156575,0.27507 -0.344889,0.54802 -0.564941,0.81885 -0.220052,0.27083 -0.452799,0.53744 -0.698242,0.79981 -0.397783,0.43164 -0.841063,0.8802 -1.329833,1.3457 -0.48877,0.46549 -0.87915,0.83366 -1.17114,1.10449 H 1.52539 V 0 M 5.17383,-1.80908 3.39648,2.34863 H 2.46973 L 3.58691,-1.80908 H 5.17383 M 12.043,0 H 7.43457 V -0.964844 H 9.14844 V -7.2998 H 7.43457 v -0.86329 c 0.64746,0 1.12459,-0.09204 1.4314,-0.27612 0.3068,-0.18408 0.47924,-0.53214 0.51733,-1.04419 h 0.9839 v 8.518556 H 12.043 V 0 m 7.33,0 H 17.9067 L 16.1865,-2.67871 14.4155,0 h -1.352 l 2.4629,-3.5166 -2.4375,-3.57373 h 1.4663 l 1.7075,2.65332 1.7519,-2.65332 H 19.373 L 16.9229,-3.59912 19.373,0"
         fill-rule="evenodd"
         vector-effect="none" />
    </g>
    <g
       id="g64"
       font-style="normal"
       font-weight="400"
       font-size="7.8px"
       font-family="'MS Shell Dlg 2'"
       transform="matrix(8.88962,0,0,8.88962,159,-521)"
       stroke-linejoin="bevel"
       stroke-linecap="square"
       stroke-width="1"
       stroke-opacity="1"
       stroke="#000000"
       fill="none" />
    <g
       id="g66"
       font-style="normal"
       font-weight="400"
       font-size="7.8px"
       font-family="'MS Shell Dlg 2'"
       transform="matrix(8.88962,0,0,8.88962,159,-521)"
       stroke-linejoin="bevel"
       stroke-linecap="square"
       stroke-width="1"
       stroke-opacity="1"
       stroke="#000000"
       fill="none" />
    <g
       id="g70"
       font-style="normal"
       font-weight="400"
       font-size="7.8px"
       font-family="'MS Shell Dlg 2'"
       transform="matrix(8.88962,0,0,8.88962,159,-521)"
       stroke="none"
       fill-opacity="1"
       fill="#cba862">
      <path
         id="path68"
         d="m 1.38674,129.791 17.52696,-0.359 c 0.0169,0 0.0337,0 0.0506,0 1.3649,0 2.4714,1.106 2.4714,2.471 0,1.365 -1.1065,2.471 -2.4714,2.471 -1.3649,0 -2.4713,-1.106 -2.4713,-2.471 0,-1.313 1.0243,-2.387 2.317,-2.467 l 0.207,-0.004 18.6132,0.397 c 0.0228,0 0.0453,0.001 0.0672,0.002 h -1e-4 l 19.4458,0.944 c 0.018,0 0.0355,0.001 0.0523,0.003 h -10e-5 l 19.8089,1.381 c 0.0162,0.001 0.0316,0.002 0.0463,0.004 h -2e-4 l 19.734,1.747 c 0.0143,0.002 0.0276,0.003 0.0402,0.004 h -2e-4 l 19.5247,2.05 -0.516,4.916 -19.5248,-2.05 0.2581,-2.458 -0.2181,2.462 -19.7339,-1.748 0.218,-2.462 -0.1719,2.466 -19.809,-1.382 0.1719,-2.465 -0.1198,2.468 -19.4457,-0.943 0.1197,-2.469 -0.0526,2.471 -18.6132,-0.396 0.0526,-2.471 0.0506,2.471 -17.527,0.359 -0.10116,-4.942"
         fill-rule="nonzero"
         vector-effect="none" />
    </g>
    <g
       id="g74"
       font-style="normal"
       font-weight="400"
       font-size="7.8px"
       font-family="'MS Shell Dlg 2'"
       transform="matrix(1.36287,0,0,1.36287,682.25,681.809)"
       stroke-linejoin="round"
       stroke-linecap="square"
       stroke-width="3"
       stroke-opacity="1"
       stroke="#ffffff"
       fill="none">
      <path
         id="path72"
         d="m -18.2271,-16.25 h -1.1235 V -13 h -1.2187 v -3.25 h -4.1768 v -1.333 l 4.2275,-4.8687 h 1.168 v 5.1861 h 1.1235 v 1.0156 m -2.3422,-1.0156 V -20.96 l -3.1866,3.6944 h 3.1866 m 9.813,-4.2847 c -0.2286,0 -0.4571,0.0275 -0.6856,0.0825 -0.2285,0.055 -0.4528,0.127 -0.6728,0.2158 -0.2032,0.0847 -0.3798,0.1735 -0.5301,0.2666 -0.1502,0.0931 -0.2846,0.1799 -0.4031,0.2603 h -0.0761 v -1.3394 c 0.275,-0.1481 0.6485,-0.2824 1.1203,-0.403 0.4719,-0.1206 0.9215,-0.1809 1.3489,-0.1809 0.4274,0 0.80088,0.0433 1.12038,0.1301 0.31949,0.0867 0.60831,0.2211 0.86645,0.4031 0.2793,0.2031 0.48983,0.4485 0.63159,0.7363 0.14177,0.2878 0.21265,0.6242 0.21265,1.0093 0,0.5205 -0.17139,0.9775 -0.51416,1.3711 -0.34277,0.3935 -0.75326,0.6432 -1.23145,0.749 v 0.0889 c 0.1989,0.038 0.41154,0.1036 0.63794,0.1967 0.2264,0.0931 0.43693,0.2307 0.6316,0.4126 0.19466,0.182 0.35335,0.4158 0.47607,0.7014 0.12272,0.2857 0.18408,0.6338 0.18408,1.0442 0,0.4274 -0.073,0.8199 -0.21899,1.1775 -0.146,0.3576 -0.3523,0.6739 -0.6189,0.949 -0.27506,0.2878 -0.60726,0.5057 -0.99658,0.6538 -0.38932,0.1481 -0.83158,0.2222 -1.32668,0.2222 -0.4739,0 -0.9437,-0.0572 -1.4092,-0.1714 -0.4655,-0.1143 -0.8569,-0.2518 -1.1743,-0.4126 v -1.3394 h 0.0889 c 0.2666,0.1947 0.6242,0.3809 1.0727,0.5586 0.4486,0.1778 0.8972,0.2666 1.3457,0.2666 0.2582,0 0.5174,-0.0412 0.7776,-0.1237 0.26029,-0.0826 0.47717,-0.2169 0.65067,-0.4031 0.16927,-0.1862 0.29834,-0.3915 0.38721,-0.6157 0.08886,-0.2243 0.1333,-0.5079 0.1333,-0.8506 0,-0.3428 -0.04973,-0.6242 -0.14917,-0.8443 -0.09945,-0.22 -0.23804,-0.3935 -0.41577,-0.5205 -0.17774,-0.1269 -0.38827,-0.2147 -0.63164,-0.2634 -0.2433,-0.0487 -0.5067,-0.073 -0.7902,-0.073 h -0.5396 v -1.0537 h 0.419 c 0.5712,0 1.03568,-0.1354 1.39327,-0.4063 0.35758,-0.2708 0.53637,-0.6644 0.53637,-1.1806 0,-0.237 -0.04655,-0.4412 -0.13965,-0.6126 -0.09309,-0.1714 -0.21158,-0.3078 -0.35546,-0.4094 -0.16081,-0.11 -0.33855,-0.1862 -0.53323,-0.2285 -0.1946,-0.0423 -0.402,-0.0635 -0.622,-0.0635 M -0.227051,-16.25 H -1.35059 V -13 h -1.21875 v -3.25 h -4.17675 v -1.333 l 4.22754,-4.8687 h 1.16796 v 5.1861 h 1.123539 V -16.25 M -2.56934,-17.2656 V -20.96 l -3.18652,3.6944 h 3.18652 M 6.77295,-16.25 H 5.64941 V -13 H 4.43066 v -3.25 H 0.253906 v -1.333 l 4.227544,-4.8687 h 1.16796 v 5.1861 H 6.77295 V -16.25 M 4.43066,-17.2656 V -20.96 l -3.18652,3.6944 h 3.18652 m 12.14894,0.6982 c 0,-0.8463 -0.1291,-1.4885 -0.3872,-1.9265 -0.2582,-0.438 -0.6729,-0.657 -1.2442,-0.657 -0.3258,0 -0.6548,0.0762 -0.987,0.2285 -0.3322,0.1524 -0.6337,0.3449 -0.9046,0.5777 v 4.0625 c 0.3005,0.1481 0.5671,0.2528 0.7998,0.3142 0.2328,0.0613 0.4888,0.092 0.7681,0.092 0.6094,0 1.0876,-0.2158 1.4346,-0.6474 0.347,-0.4317 0.5205,-1.113 0.5205,-2.044 m 1.2314,-0.0952 c 0,1.1595 -0.2814,2.0926 -0.8442,2.7993 -0.5628,0.7067 -1.2674,1.0601 -2.1138,1.0601 -0.3851,0 -0.7141,-0.0476 -0.987,-0.1428 -0.273,-0.0953 -0.5428,-0.2233 -0.8094,-0.3841 L 12.9805,-13 h -1.1172 v -9.877 h 1.1933 v 3.5293 c 0.3005,-0.2708 0.6263,-0.4951 0.9776,-0.6728 0.3512,-0.1777 0.749,-0.2666 1.1933,-0.2666 0.7998,0 1.4304,0.3205 1.8916,0.9617 0.4613,0.6411 0.6919,1.5287 0.6919,2.6628 m 7,-0.0698 c 0,1.1806 -0.2824,2.1212 -0.8474,2.8215 -0.5649,0.7004 -1.279,1.0505 -2.1423,1.0505 -0.3512,0 -0.6623,-0.0402 -0.9331,-0.1206 -0.2708,-0.0804 -0.548,-0.2052 -0.8316,-0.3745 v 2.9707 h -1.1933 v -9.7055 h 1.1933 v 0.7426 c 0.2963,-0.2666 0.6253,-0.4898 0.9871,-0.6696 0.3618,-0.1799 0.7564,-0.2698 1.1838,-0.2698 0.8125,0 1.4462,0.3216 1.9012,0.9648 0.4549,0.6433 0.6823,1.5065 0.6823,2.5899 m -1.2314,0.1333 c 0,-0.8083 -0.1291,-1.4356 -0.3872,-1.8821 -0.2582,-0.4465 -0.6771,-0.6697 -1.2569,-0.6697 -0.3385,0 -0.6654,0.0751 -0.9807,0.2254 -0.3152,0.1502 -0.6146,0.3438 -0.8982,0.5808 v 4.018 c 0.3132,0.1524 0.5809,0.2561 0.803,0.3111 0.2222,0.055 0.4772,0.0825 0.7649,0.0825 0.6179,0 1.0982,-0.2264 1.4409,-0.6792 0.3428,-0.4528 0.5142,-1.1151 0.5142,-1.9868 m -33.7984,11.03221 c 0,-0.64323 -0.0592,-1.16692 -0.1777,-1.57105 -0.1185,-0.40413 -0.2814,-0.71623 -0.4888,-0.93628 -0.1862,-0.20312 -0.3745,-0.34277 -0.5649,-0.41894 -0.1904,-0.07618 -0.3999,-0.11426 -0.6284,-0.11426 -0.5205,0 -0.9352,0.1862 -1.2442,0.55859 -0.3089,0.3724 -0.4633,0.91195 -0.4633,1.61865 0,0.39779 0.0507,0.72575 0.1523,0.98389 0.1016,0.25814 0.2666,0.48031 0.4951,0.6665 0.1608,0.13119 0.3428,0.219 0.5459,0.26343 0.2032,0.04444 0.4211,0.06665 0.6538,0.06665 0.2709,0 0.5629,-0.0476 0.876,-0.14282 0.3132,-0.09521 0.5861,-0.22111 0.8189,-0.37768 0.0042,-0.06348 0.0095,-0.14706 0.0158,-0.25074 0.0064,-0.10368 0.0095,-0.21899 0.0095,-0.34594 m -4.8559,-0.8125 c 0,-0.48666 0.0793,-0.93099 0.238,-1.33301 0.1587,-0.40202 0.3756,-0.74903 0.6507,-1.04102 0.2623,-0.27929 0.5829,-0.49723 0.9616,-0.65381 0.3788,-0.15657 0.7628,-0.23486 1.1521,-0.23486 0.4359,0 0.8305,0.073 1.1839,0.21899 0.3533,0.146 0.6591,0.35653 0.91721,0.6316 0.32584,0.347 0.57869,0.80192 0.75854,1.36474 0.17985,0.56283 0.26978,1.27377 0.26978,2.13281 0,0.78288 -0.08781,1.5245 -0.26343,2.22486 -0.17562,0.70036 -0.43481,1.28117 -0.77759,1.74243 -0.36391,0.490885 -0.80081,0.865397 -1.31081,1.123535 -0.5099,0.258138 -1.1394,0.387207 -1.8884,0.387207 -0.1693,0 -0.3491,-0.009521 -0.5396,-0.028564 -0.1904,-0.019043 -0.3681,-0.053955 -0.5332,-0.1047367 V -1.16162 h 0.0635 c 0.1058,0.05924 0.2709,0.11637 0.4951,0.171386 0.2243,0.055013 0.4528,0.082519 0.6856,0.082519 0.8294,0 1.4811,-0.272945 1.9551,-0.818845 0.4739,-0.5459 0.7426,-1.32666 0.8061,-2.34229 -0.3385,0.22852 -0.6612,0.39567 -0.968,0.50147 -0.3068,0.10579 -0.6401,0.15869 -0.9998,0.15869 -0.3512,0 -0.6707,-0.03809 -0.9585,-0.11426 -0.2877,-0.07617 -0.5776,-0.22428 -0.8696,-0.44434 -0.3385,-0.25813 -0.5946,-0.58504 -0.7681,-0.98071 -0.1735,-0.39567 -0.2602,-0.8728 -0.2602,-1.43139 M -1.72705,-3.25 H -2.85059 V 0 h -1.21875 v -3.25 h -4.17675 v -1.33301 l 4.22754,-4.86865 h 1.16796 v 5.18603 h 1.12354 V -3.25 m -2.34229,-1.01563 v -3.69433 l -3.18652,3.69433 h 3.18652 m 5.74317,2.45655 -1.777346,4.15771 H -1.03027 L 0.0869141,-1.80908 H 1.67383 M 8.54297,0 H 3.93457 V -0.964844 H 5.64844 V -7.2998 H 3.93457 v -0.86329 c 0.64746,0 1.12459,-0.09204 1.4314,-0.27612 0.3068,-0.18408 0.47924,-0.53214 0.51733,-1.04419 h 0.98389 v 8.518556 H 8.54297 V 0 M 15.873,0 H 14.4067 L 12.6865,-2.67871 10.9155,0 H 9.56348 L 12.0264,-3.5166 9.58887,-7.09033 h 1.46633 l 1.7075,2.65332 1.7519,-2.65332 H 15.873 L 13.4229,-3.59912 15.873,0"
         fill-rule="evenodd"
         vector-effect="none" />
    </g>
    <g
       id="g78"
       font-style="normal"
       font-weight="400"
       font-size="7.8px"
       font-family="'MS Shell Dlg 2'"
       transform="matrix(1.36287,0,0,1.36287,682.25,681.809)"
       stroke="none"
       fill-opacity="1"
       fill="#000000">
      <path
         id="path76"
         d="m -18.2271,-16.25 h -1.1235 V -13 h -1.2187 v -3.25 h -4.1768 v -1.333 l 4.2275,-4.8687 h 1.168 v 5.1861 h 1.1235 v 1.0156 m -2.3422,-1.0156 V -20.96 l -3.1866,3.6944 h 3.1866 m 9.813,-4.2847 c -0.2286,0 -0.4571,0.0275 -0.6856,0.0825 -0.2285,0.055 -0.4528,0.127 -0.6728,0.2158 -0.2032,0.0847 -0.3798,0.1735 -0.5301,0.2666 -0.1502,0.0931 -0.2846,0.1799 -0.4031,0.2603 h -0.0761 v -1.3394 c 0.275,-0.1481 0.6485,-0.2824 1.1203,-0.403 0.4719,-0.1206 0.9215,-0.1809 1.3489,-0.1809 0.4274,0 0.80088,0.0433 1.12038,0.1301 0.31949,0.0867 0.60831,0.2211 0.86645,0.4031 0.2793,0.2031 0.48983,0.4485 0.63159,0.7363 0.14177,0.2878 0.21265,0.6242 0.21265,1.0093 0,0.5205 -0.17139,0.9775 -0.51416,1.3711 -0.34277,0.3935 -0.75326,0.6432 -1.23145,0.749 v 0.0889 c 0.1989,0.038 0.41154,0.1036 0.63794,0.1967 0.2264,0.0931 0.43693,0.2307 0.6316,0.4126 0.19466,0.182 0.35335,0.4158 0.47607,0.7014 0.12272,0.2857 0.18408,0.6338 0.18408,1.0442 0,0.4274 -0.073,0.8199 -0.21899,1.1775 -0.146,0.3576 -0.3523,0.6739 -0.6189,0.949 -0.27506,0.2878 -0.60726,0.5057 -0.99658,0.6538 -0.38932,0.1481 -0.83158,0.2222 -1.32668,0.2222 -0.4739,0 -0.9437,-0.0572 -1.4092,-0.1714 -0.4655,-0.1143 -0.8569,-0.2518 -1.1743,-0.4126 v -1.3394 h 0.0889 c 0.2666,0.1947 0.6242,0.3809 1.0727,0.5586 0.4486,0.1778 0.8972,0.2666 1.3457,0.2666 0.2582,0 0.5174,-0.0412 0.7776,-0.1237 0.26029,-0.0826 0.47717,-0.2169 0.65067,-0.4031 0.16927,-0.1862 0.29834,-0.3915 0.38721,-0.6157 0.08886,-0.2243 0.1333,-0.5079 0.1333,-0.8506 0,-0.3428 -0.04973,-0.6242 -0.14917,-0.8443 -0.09945,-0.22 -0.23804,-0.3935 -0.41577,-0.5205 -0.17774,-0.1269 -0.38827,-0.2147 -0.63164,-0.2634 -0.2433,-0.0487 -0.5067,-0.073 -0.7902,-0.073 h -0.5396 v -1.0537 h 0.419 c 0.5712,0 1.03568,-0.1354 1.39327,-0.4063 0.35758,-0.2708 0.53637,-0.6644 0.53637,-1.1806 0,-0.237 -0.04655,-0.4412 -0.13965,-0.6126 -0.09309,-0.1714 -0.21158,-0.3078 -0.35546,-0.4094 -0.16081,-0.11 -0.33855,-0.1862 -0.53323,-0.2285 -0.1946,-0.0423 -0.402,-0.0635 -0.622,-0.0635 M -0.227051,-16.25 H -1.35059 V -13 h -1.21875 v -3.25 h -4.17675 v -1.333 l 4.22754,-4.8687 h 1.16796 v 5.1861 h 1.123539 V -16.25 M -2.56934,-17.2656 V -20.96 l -3.18652,3.6944 h 3.18652 M 6.77295,-16.25 H 5.64941 V -13 H 4.43066 v -3.25 H 0.253906 v -1.333 l 4.227544,-4.8687 h 1.16796 v 5.1861 H 6.77295 V -16.25 M 4.43066,-17.2656 V -20.96 l -3.18652,3.6944 h 3.18652 m 12.14894,0.6982 c 0,-0.8463 -0.1291,-1.4885 -0.3872,-1.9265 -0.2582,-0.438 -0.6729,-0.657 -1.2442,-0.657 -0.3258,0 -0.6548,0.0762 -0.987,0.2285 -0.3322,0.1524 -0.6337,0.3449 -0.9046,0.5777 v 4.0625 c 0.3005,0.1481 0.5671,0.2528 0.7998,0.3142 0.2328,0.0613 0.4888,0.092 0.7681,0.092 0.6094,0 1.0876,-0.2158 1.4346,-0.6474 0.347,-0.4317 0.5205,-1.113 0.5205,-2.044 m 1.2314,-0.0952 c 0,1.1595 -0.2814,2.0926 -0.8442,2.7993 -0.5628,0.7067 -1.2674,1.0601 -2.1138,1.0601 -0.3851,0 -0.7141,-0.0476 -0.987,-0.1428 -0.273,-0.0953 -0.5428,-0.2233 -0.8094,-0.3841 L 12.9805,-13 h -1.1172 v -9.877 h 1.1933 v 3.5293 c 0.3005,-0.2708 0.6263,-0.4951 0.9776,-0.6728 0.3512,-0.1777 0.749,-0.2666 1.1933,-0.2666 0.7998,0 1.4304,0.3205 1.8916,0.9617 0.4613,0.6411 0.6919,1.5287 0.6919,2.6628 m 7,-0.0698 c 0,1.1806 -0.2824,2.1212 -0.8474,2.8215 -0.5649,0.7004 -1.279,1.0505 -2.1423,1.0505 -0.3512,0 -0.6623,-0.0402 -0.9331,-0.1206 -0.2708,-0.0804 -0.548,-0.2052 -0.8316,-0.3745 v 2.9707 h -1.1933 v -9.7055 h 1.1933 v 0.7426 c 0.2963,-0.2666 0.6253,-0.4898 0.9871,-0.6696 0.3618,-0.1799 0.7564,-0.2698 1.1838,-0.2698 0.8125,0 1.4462,0.3216 1.9012,0.9648 0.4549,0.6433 0.6823,1.5065 0.6823,2.5899 m -1.2314,0.1333 c 0,-0.8083 -0.1291,-1.4356 -0.3872,-1.8821 -0.2582,-0.4465 -0.6771,-0.6697 -1.2569,-0.6697 -0.3385,0 -0.6654,0.0751 -0.9807,0.2254 -0.3152,0.1502 -0.6146,0.3438 -0.8982,0.5808 v 4.018 c 0.3132,0.1524 0.5809,0.2561 0.803,0.3111 0.2222,0.055 0.4772,0.0825 0.7649,0.0825 0.6179,0 1.0982,-0.2264 1.4409,-0.6792 0.3428,-0.4528 0.5142,-1.1151 0.5142,-1.9868 m -33.7984,11.03221 c 0,-0.64323 -0.0592,-1.16692 -0.1777,-1.57105 -0.1185,-0.40413 -0.2814,-0.71623 -0.4888,-0.93628 -0.1862,-0.20312 -0.3745,-0.34277 -0.5649,-0.41894 -0.1904,-0.07618 -0.3999,-0.11426 -0.6284,-0.11426 -0.5205,0 -0.9352,0.1862 -1.2442,0.55859 -0.3089,0.3724 -0.4633,0.91195 -0.4633,1.61865 0,0.39779 0.0507,0.72575 0.1523,0.98389 0.1016,0.25814 0.2666,0.48031 0.4951,0.6665 0.1608,0.13119 0.3428,0.219 0.5459,0.26343 0.2032,0.04444 0.4211,0.06665 0.6538,0.06665 0.2709,0 0.5629,-0.0476 0.876,-0.14282 0.3132,-0.09521 0.5861,-0.22111 0.8189,-0.37768 0.0042,-0.06348 0.0095,-0.14706 0.0158,-0.25074 0.0064,-0.10368 0.0095,-0.21899 0.0095,-0.34594 m -4.8559,-0.8125 c 0,-0.48666 0.0793,-0.93099 0.238,-1.33301 0.1587,-0.40202 0.3756,-0.74903 0.6507,-1.04102 0.2623,-0.27929 0.5829,-0.49723 0.9616,-0.65381 0.3788,-0.15657 0.7628,-0.23486 1.1521,-0.23486 0.4359,0 0.8305,0.073 1.1839,0.21899 0.3533,0.146 0.6591,0.35653 0.91721,0.6316 0.32584,0.347 0.57869,0.80192 0.75854,1.36474 0.17985,0.56283 0.26978,1.27377 0.26978,2.13281 0,0.78288 -0.08781,1.5245 -0.26343,2.22486 -0.17562,0.70036 -0.43481,1.28117 -0.77759,1.74243 -0.36391,0.490885 -0.80081,0.865397 -1.31081,1.123535 -0.5099,0.258138 -1.1394,0.387207 -1.8884,0.387207 -0.1693,0 -0.3491,-0.009521 -0.5396,-0.028564 -0.1904,-0.019043 -0.3681,-0.053955 -0.5332,-0.1047367 V -1.16162 h 0.0635 c 0.1058,0.05924 0.2709,0.11637 0.4951,0.171386 0.2243,0.055013 0.4528,0.082519 0.6856,0.082519 0.8294,0 1.4811,-0.272945 1.9551,-0.818845 0.4739,-0.5459 0.7426,-1.32666 0.8061,-2.34229 -0.3385,0.22852 -0.6612,0.39567 -0.968,0.50147 -0.3068,0.10579 -0.6401,0.15869 -0.9998,0.15869 -0.3512,0 -0.6707,-0.03809 -0.9585,-0.11426 -0.2877,-0.07617 -0.5776,-0.22428 -0.8696,-0.44434 -0.3385,-0.25813 -0.5946,-0.58504 -0.7681,-0.98071 -0.1735,-0.39567 -0.2602,-0.8728 -0.2602,-1.43139 M -1.72705,-3.25 H -2.85059 V 0 h -1.21875 v -3.25 h -4.17675 v -1.33301 l 4.22754,-4.86865 h 1.16796 v 5.18603 h 1.12354 V -3.25 m -2.34229,-1.01563 v -3.69433 l -3.18652,3.69433 h 3.18652 m 5.74317,2.45655 -1.777346,4.15771 H -1.03027 L 0.0869141,-1.80908 H 1.67383 M 8.54297,0 H 3.93457 V -0.964844 H 5.64844 V -7.2998 H 3.93457 v -0.86329 c 0.64746,0 1.12459,-0.09204 1.4314,-0.27612 0.3068,-0.18408 0.47924,-0.53214 0.51733,-1.04419 h 0.98389 v 8.518556 H 8.54297 V 0 M 15.873,0 H 14.4067 L 12.6865,-2.67871 10.9155,0 H 9.56348 L 12.0264,-3.5166 9.58887,-7.09033 h 1.46633 l 1.7075,2.65332 1.7519,-2.65332 H 15.873 L 13.4229,-3.59912 15.873,0"
         fill-rule="evenodd"
         vector-effect="none" />
    </g>
    <g
       id="g80"
       font-style="normal"
       font-weight="400"
       font-size="7.8px"
       font-family="'MS Shell Dlg 2'"
       transform="matrix(8.88962,0,0,8.88962,159,-521)"
       stroke-linejoin="bevel"
       stroke-linecap="square"
       stroke-width="1"
       stroke-opacity="1"
       stroke="#000000"
       fill="none" />
    <g
       id="g82"
       font-style="normal"
       font-weight="400"
       font-size="7.8px"
       font-family="'MS Shell Dlg 2'"
       stroke-linejoin="bevel"
       stroke-linecap="square"
       stroke-width="1"
       stroke-opacity="1"
       stroke="#000000"
       fill="none" />
  </g>
</svg>
