<?xml version="1.0" encoding="UTF-8" standalone="no"?>
<svg
   xmlns:dc="http://purl.org/dc/elements/1.1/"
   xmlns:cc="http://creativecommons.org/ns#"
   xmlns:rdf="http://www.w3.org/1999/02/22-rdf-syntax-ns#"
   xmlns:svg="http://www.w3.org/2000/svg"
   xmlns="http://www.w3.org/2000/svg"
   xmlns:sodipodi="http://sodipodi.sourceforge.net/DTD/sodipodi-0.dtd"
   xmlns:inkscape="http://www.inkscape.org/namespaces/inkscape"
   inkscape:version="1.0 (4035a4fb49, 2020-05-01)"
   sodipodi:docname="s_6.first1000_lowcov.svg"
   id="svg54"
   version="1.2"
   viewBox="0 0 1305.7334 490.76887"
   height="173.13219mm"
   width="460.63416mm">
  <metadata
     id="metadata58">
    <rdf:RDF>
      <cc:Work
         rdf:about="">
        <dc:format>image/svg+xml</dc:format>
        <dc:type
           rdf:resource="http://purl.org/dc/dcmitype/StillImage" />
        <dc:title>Qt SVG Document</dc:title>
      </cc:Work>
    </rdf:RDF>
  </metadata>
  <sodipodi:namedview
     fit-margin-bottom="0"
     fit-margin-right="0"
     fit-margin-left="0"
     fit-margin-top="0"
     inkscape:current-layer="svg54"
     inkscape:window-maximized="1"
     inkscape:window-y="-9"
     inkscape:window-x="-9"
     inkscape:cy="393.81056"
     inkscape:cx="879.80351"
     inkscape:zoom="0.67088672"
     showgrid="false"
     id="namedview56"
     inkscape:window-height="1001"
     inkscape:window-width="1920"
     inkscape:pageshadow="2"
     inkscape:pageopacity="0"
     guidetolerance="10"
     gridtolerance="10"
     objecttolerance="10"
     borderopacity="1"
     bordercolor="#666666"
     pagecolor="#ffffff" />
  <title
     id="title2">Qt SVG Document</title>
  <desc
     id="desc4">Generated with Qt</desc>
  <defs
     id="defs6">
    <clipPath
       id="clipPath62"
       clipPathUnits="userSpaceOnUse">
      <rect
         y="155.39151"
         x="52.541157"
         height="490.76886"
         width="1305.7358"
         id="rect64"
         style="fill:none;stroke:#000000;stroke-width:0.750001" />
    </clipPath>
  </defs>
  <g
     transform="translate(-52.542453,-155.39151)"
     clip-path="url(#clipPath62)"
     id="g52"
     stroke-linejoin="bevel"
     stroke-linecap="square"
     fill-rule="evenodd"
     stroke-width="1"
     stroke="#000000"
     fill="none">
    <g
       id="g10"
       font-style="normal"
       font-weight="400"
       font-size="7.8px"
       font-family="'MS Shell Dlg 2'"
       stroke="none"
       fill-opacity="1"
       fill="#ffffff">
      <rect
         id="rect8"
         height="948"
         width="1388"
         y="0"
         x="0" />
    </g>
    <g
       id="g12"
       font-style="normal"
       font-weight="400"
       font-size="7.8px"
       font-family="'MS Shell Dlg 2'"
       stroke-linejoin="bevel"
       stroke-linecap="square"
       stroke-width="1"
       stroke-opacity="1"
       stroke="#000000"
       fill="none" />
    <g
       id="g14"
       font-style="normal"
       font-weight="400"
       font-size="7.8px"
       font-family="'MS Shell Dlg 2'"
       stroke-linejoin="bevel"
       stroke-linecap="square"
       stroke-width="1"
       stroke-opacity="1"
       stroke="#000000"
       fill="none" />
    <g
       id="g16"
       font-style="normal"
       font-weight="400"
       font-size="7.8px"
       font-family="'MS Shell Dlg 2'"
       stroke-linejoin="bevel"
       stroke-linecap="square"
       stroke-width="1"
       stroke-opacity="1"
       stroke="#000000"
       fill="none" />
    <g
       id="g18"
       font-style="normal"
       font-weight="400"
       font-size="7.8px"
       font-family="'MS Shell Dlg 2'"
       transform="matrix(5.14536,0,0,5.14536,-56,69)"
       stroke-linejoin="bevel"
       stroke-linecap="square"
       stroke-width="1"
       stroke-opacity="1"
       stroke="#000000"
       fill="none" />
    <g
       id="g22"
       font-style="normal"
       font-weight="400"
       font-size="7.8px"
       font-family="'MS Shell Dlg 2'"
       transform="matrix(5.14536,0,0,5.14536,-56,69)"
       stroke="none"
       fill-opacity="1"
       fill="#cb6275">
      <path
         id="path20"
         d="m 265.524,55.963 -15.981,-7.7731 1.094,-2.2481 -0.945,2.3147 -16.856,-6.8783 0.944,-2.3147 -0.768,2.3791 -18.077,-5.8362 0.768,-2.3791 -0.566,2.4351 -19.087,-4.4366 0.566,-2.4351 -0.348,2.4757 -19.796,-2.779 0.347,-2.4757 -0.125,2.4968 -20.19,-1.0117 0.125,-2.4968 0.088,2.4984 -20.283,0.719 -0.088,-2.4984 0.282,2.4839 -20.106,2.2867 -0.282,-2.484 0.449,2.4593 -19.6981,3.5973 -0.4491,-2.4593 0.5846,2.4306 -19.0898,4.5917 -0.5847,-2.4307 0.6888,2.4032 -18.2916,5.2428 -0.6888,-2.4032 0.7642,2.3803 -17.3551,5.5718 -0.7642,-2.3803 0.8161,2.363 -16.8052,5.8041 -1.6322,-4.726 16.8052,-5.8041 c 0.0166,-0.0065 0.0339,-0.0122 0.0508,-0.0177 l 0.0011,4e-4 17.3551,-5.5719 c 0.0244,-0.0085 0.0495,-0.0161 0.0742,-0.0232 l 0.0012,3e-4 18.2916,-5.2427 c 0.0339,-0.0103 0.0686,-0.0195 0.1029,-0.0277 l 0.0013,3e-4 19.0899,-4.5917 c 0.0442,-0.0112 0.0894,-0.0207 0.1343,-0.0288 l 0.0012,2e-4 19.6983,-3.5973 c 0.054,-0.0103 0.11,-0.0185 0.165,-0.0248 l 10e-4,2e-4 20.106,-2.2867 c 0.064,-0.0074 0.129,-0.0122 0.194,-0.0145 v 10e-5 l 20.283,-0.719 c 0.03,-0.0011 0.059,-0.0016 0.089,-0.0016 1.381,0 2.5,1.1193 2.5,2.5 0,1.3807 -1.119,2.5 -2.5,2.5 -1.381,0 -2.5,-1.1193 -2.5,-2.5 0,-1.2785 0.96,-2.3329 2.197,-2.4818 l 0.428,-0.015 20.19,1.0116 c 0.076,0.0037 0.151,0.0108 0.223,0.0209 v 3e-4 l 19.796,2.779 c 0.075,0.0102 0.148,0.0238 0.219,0.0402 v 5e-4 l 19.087,4.4366 c 0.07,0.0156 0.137,0.0343 0.203,0.0555 v 5e-4 l 18.076,5.8362 c 0.061,0.0189 0.12,0.0404 0.177,0.0638 l -0.001,5e-4 16.857,6.8783 c 0.052,0.0202 0.101,0.0425 0.15,0.0661 l -0.001,4e-4 15.981,7.7731 -2.187,4.4963"
         fill-rule="nonzero"
         vector-effect="none" />
    </g>
    <g
       id="g26"
       font-style="normal"
       font-weight="400"
       font-size="7.8px"
       font-family="'MS Shell Dlg 2'"
       transform="matrix(1.31873,0,0,1.31873,697.336,216.13)"
       stroke-linejoin="round"
       stroke-linecap="square"
       stroke-width="3"
       stroke-opacity="1"
       stroke="#ffffff"
       fill="none">
      <path
         id="path24"
         d="m -14.3521,-20.249 c 0,-0.4232 -0.1417,-0.7766 -0.4252,-1.0601 -0.2836,-0.2835 -0.6771,-0.4253 -1.1807,-0.4253 -0.4613,0 -0.839,0.127 -1.1331,0.3809 -0.2941,0.2539 -0.4411,0.5967 -0.4411,1.0283 0,0.3132 0.0751,0.5776 0.2253,0.7935 0.1502,0.2158 0.3756,0.4104 0.676,0.5839 0.1312,0.072 0.3312,0.1714 0.5999,0.2984 0.2687,0.1269 0.5131,0.2264 0.7331,0.2983 0.3682,-0.2835 0.6179,-0.5744 0.7491,-0.8728 0.1312,-0.2983 0.1967,-0.64 0.1967,-1.0251 m 0.1778,4.7353 c 0,-0.3893 -0.0762,-0.6982 -0.2285,-0.9267 -0.1524,-0.2285 -0.4465,-0.4613 -0.8824,-0.6983 -0.1438,-0.0804 -0.3353,-0.1671 -0.5744,-0.2602 -0.2391,-0.0931 -0.5089,-0.2032 -0.8093,-0.3301 -0.3513,0.2327 -0.62,0.5194 -0.8062,0.8601 -0.1862,0.3407 -0.2793,0.7289 -0.2793,1.1648 0,0.5713 0.1725,1.0431 0.5173,1.4155 0.3449,0.3724 0.7776,0.5586 1.2981,0.5586 0.5332,0 0.9606,-0.1597 1.2823,-0.4792 0.3216,-0.3195 0.4824,-0.7543 0.4824,-1.3045 m -1.7774,2.7295 c -0.4697,0 -0.8971,-0.0698 -1.2822,-0.2095 -0.3851,-0.1396 -0.713,-0.3406 -0.9839,-0.603 -0.2666,-0.2539 -0.4686,-0.5554 -0.6062,-0.9045 -0.1375,-0.3491 -0.2063,-0.7184 -0.2063,-1.1077 0,-0.512 0.1365,-0.9828 0.4095,-1.4123 0.2729,-0.4296 0.6696,-0.7713 1.1901,-1.0252 v -0.0381 c -0.4655,-0.2708 -0.8103,-0.567 -1.0346,-0.8886 -0.2243,-0.3217 -0.3365,-0.7237 -0.3365,-1.2061 0,-0.7109 0.2688,-1.3034 0.8062,-1.7773 0.5374,-0.474 1.2187,-0.711 2.0439,-0.711 0.8591,0 1.5478,0.2254 2.0662,0.676 0.5184,0.4507 0.7776,1.0273 0.7776,1.7298 0,0.4232 -0.1238,0.8421 -0.3713,1.2568 -0.2476,0.4147 -0.6041,0.7385 -1.0696,0.9712 v 0.0381 c 0.5501,0.2581 0.9669,0.5713 1.2505,0.9394 0.2835,0.3682 0.4253,0.8422 0.4253,1.4219 0,0.8083 -0.2931,1.4854 -0.8792,2.0313 -0.5861,0.5459 -1.3193,0.8188 -2.1995,0.8188 m 8.73295,-5.7827 c 0,-0.6432 -0.05924,-1.1669 -0.17773,-1.571 -0.11849,-0.4042 -0.28142,-0.7163 -0.48877,-0.9363 -0.1862,-0.2031 -0.37452,-0.3428 -0.56495,-0.419 -0.19043,-0.0761 -0.3999,-0.1142 -0.62841,-0.1142 -0.52051,0 -0.93519,0.1862 -1.24419,0.5586 -0.3089,0.3724 -0.4633,0.9119 -0.4633,1.6186 0,0.3978 0.0507,0.7258 0.1523,0.9839 0.1016,0.2581 0.2666,0.4803 0.4951,0.6665 0.16084,0.1312 0.3428,0.219 0.54593,0.2634 0.20312,0.0445 0.42106,0.0667 0.65381,0.0667 0.27083,0 0.56282,-0.0476 0.87597,-0.1428 0.31315,-0.0952 0.5861,-0.2211 0.81885,-0.3777 0.00423,-0.0635 0.00952,-0.1471 0.01587,-0.2507 0.00635,-0.1037 0.00952,-0.219 0.00952,-0.346 m -4.85595,-0.8125 c 0,-0.4866 0.0793,-0.931 0.238,-1.333 0.1587,-0.402 0.3756,-0.749 0.6507,-1.041 0.2623,-0.2793 0.5829,-0.4973 0.9616,-0.6538 0.37878,-0.1566 0.76281,-0.2349 1.15213,-0.2349 0.43588,0 0.83049,0.073 1.18384,0.219 0.35336,0.146 0.6591,0.3565 0.91724,0.6316 0.32584,0.347 0.57869,0.8019 0.75854,1.3647 0.17985,0.5629 0.26978,1.2738 0.26978,2.1329 0,0.7828 -0.08781,1.5245 -0.26343,2.2248 -0.17562,0.7004 -0.43481,1.2812 -0.77759,1.7424 -0.36393,0.4909 -0.80086,0.8654 -1.31079,1.1236 -0.50993,0.2581 -1.1394,0.3872 -1.88842,0.3872 -0.1693,0 -0.3491,-0.0095 -0.5396,-0.0286 -0.1904,-0.019 -0.3681,-0.0539 -0.5332,-0.1047 v -1.2124 h 0.0635 c 0.1058,0.0592 0.2709,0.1164 0.4951,0.1714 0.2243,0.055 0.4528,0.0825 0.6856,0.0825 0.82941,0 1.4811,-0.273 1.95506,-0.8189 0.47396,-0.5459 0.74268,-1.3266 0.80615,-2.3422 -0.33854,0.2285 -0.66121,0.3956 -0.96802,0.5014 -0.3068,0.1058 -0.64005,0.1587 -0.99975,0.1587 -0.35124,0 -0.67074,-0.0381 -0.95854,-0.1142 -0.2877,-0.0762 -0.5776,-0.2243 -0.8696,-0.4444 -0.3385,-0.2581 -0.5946,-0.585 -0.7681,-0.9807 -0.1735,-0.3957 -0.2602,-0.8728 -0.2602,-1.4314 m 9.81835,-2.1709 c -0.22851,0 -0.45703,0.0275 -0.68554,0.0825 -0.22852,0.055 -0.4528,0.127 -0.67286,0.2158 -0.20312,0.0847 -0.3798,0.1735 -0.53003,0.2666 -0.15022,0.0931 -0.28458,0.1799 -0.40307,0.2603 h -0.07617 v -1.3394 c 0.27506,-0.1481 0.64852,-0.2824 1.12036,-0.403 0.47184,-0.1206 0.92147,-0.1809 1.34887,-0.1809 0.42741,0 0.80087,0.0433 1.12037,0.1301 0.319495,0.0867 0.608313,0.2211 0.866451,0.4031 0.279297,0.2031 0.489828,0.4485 0.631592,0.7363 0.141764,0.2878 0.212647,0.6242 0.212647,1.0093 0,0.5205 -0.171387,0.9775 -0.514161,1.3711 -0.342773,0.3935 -0.753255,0.6432 -1.231449,0.749 v 0.0889 c 0.198897,0.038 0.411544,0.1036 0.637944,0.1967 0.226399,0.0931 0.43692985,0.2307 0.631591,0.4126 0.194662,0.182 0.353353,0.4158 0.476075,0.7014 0.122721,0.2857 0.184082,0.6338 0.184082,1.0442 0,0.4274 -0.072998,0.8199 -0.218995,1.1775 -0.145996,0.3576 -0.352294,0.6739 -0.6188961,0.949 -0.2750649,0.2878 -0.6072589,0.5057 -0.9965819,0.6538 -0.389319,0.1481 -0.831539,0.2222 -1.326659,0.2222 -0.47396,0 -0.94369,-0.0572 -1.40918,-0.1714 -0.4655,-0.1143 -0.85693,-0.2518 -1.17432,-0.4126 v -1.3394 h 0.08887 c 0.2666,0.1947 0.62419,0.3809 1.07275,0.5586 0.44857,0.1778 0.89714,0.2666 1.34571,0.2666 0.25813,0 0.51733,-0.0412 0.77758,-0.1237 0.26026,-0.0826 0.47714,-0.2169 0.65064,-0.4031 0.16927,-0.1862 0.298339,-0.3915 0.387207,-0.6157 0.088867,-0.2243 0.1333,-0.5079 0.1333,-0.8506 0,-0.3428 -0.049723,-0.6242 -0.14917,-0.8443 -0.099446,-0.22 -0.238037,-0.3935 -0.415771,-0.5205 -0.177736,-0.1269 -0.388266,-0.2147 -0.631596,-0.2634 -0.24332,-0.0487 -0.50675,-0.073 -0.79028,-0.073 h -0.53955 v -1.0537 h 0.41895 c 0.57128,0 1.03572,-0.1354 1.39331,-0.4063 0.357581,-0.2708 0.536373,-0.6644 0.536373,-1.1806 0,-0.237 -0.04655,-0.4412 -0.139648,-0.6126 -0.093099,-0.1714 -0.211589,-0.3078 -0.355465,-0.4094 -0.16081,-0.11 -0.33855,-0.1862 -0.53321,-0.2285 -0.19466,-0.0423 -0.40202,-0.0635 -0.62207,-0.0635 m 13.33595,4.9829 c 0,-0.8463 -0.1291,-1.4885 -0.3872,-1.9265 -0.2582,-0.438 -0.6729,-0.657 -1.24416,-0.657 -0.32584,0 -0.65486,0.0762 -0.98706,0.2285 -0.33219,0.1524 -0.63371,0.3449 -0.90454,0.5777 v 4.0625 c 0.30046,0.1481 0.56706,0.2528 0.79981,0.3142 0.23274,0.0613 0.48876,0.092 0.76806,0.092 0.60938,0 1.08759,-0.2158 1.43459,-0.6474 0.347,-0.4317 0.5205,-1.113 0.5205,-2.044 m 1.2314,-0.0952 c 0,1.1595 -0.2814,2.0926 -0.8442,2.7993 -0.5628,0.7067 -1.2674,1.0601 -2.11377,1.0601 -0.38509,0 -0.71411,-0.0476 -0.98706,-0.1428 -0.27295,-0.0953 -0.54273,-0.2233 -0.80933,-0.3841 L 7.48047,-13 H 6.36328 v -9.877 h 1.19336 v 3.5293 c 0.30046,-0.2708 0.6263,-0.4951 0.97754,-0.6728 0.35124,-0.1777 0.74902,-0.2666 1.19336,-0.2666 0.79976,0 1.43036,0.3205 1.89156,0.9617 0.4613,0.6411 0.6919,1.5287 0.6919,2.6628 m 7,-0.0698 c 0,1.1806 -0.2824,2.1212 -0.8474,2.8215 -0.5649,0.7004 -1.279,1.0505 -2.1423,1.0505 -0.3512,0 -0.6623,-0.0402 -0.9331,-0.1206 -0.2708,-0.0804 -0.548,-0.2052 -0.8316,-0.3745 v 2.9707 h -1.1933 v -9.7055 h 1.1933 v 0.7426 c 0.2963,-0.2666 0.6253,-0.4898 0.9871,-0.6696 0.3618,-0.1799 0.7564,-0.2698 1.1838,-0.2698 0.8125,0 1.4462,0.3216 1.9012,0.9648 0.4549,0.6433 0.6823,1.5065 0.6823,2.5899 m -1.2314,0.1333 c 0,-0.8083 -0.1291,-1.4356 -0.3872,-1.8821 -0.2582,-0.4465 -0.6771,-0.6697 -1.2569,-0.6697 -0.3385,0 -0.6654,0.0751 -0.9807,0.2254 -0.3152,0.1502 -0.6146,0.3438 -0.8982,0.5808 v 4.018 c 0.3132,0.1524 0.5809,0.2561 0.803,0.3111 0.2222,0.055 0.4772,0.0825 0.7649,0.0825 0.6179,0 1.0982,-0.2264 1.4409,-0.6792 0.3428,-0.4528 0.5142,-1.1151 0.5142,-1.9868 m -28.4317,9.35008 c 0,-0.42318 -0.1417,-0.77653 -0.4252,-1.06006 -0.2836,-0.28353 -0.6771,-0.4253 -1.1807,-0.4253 -0.4613,0 -0.839,0.12696 -1.1331,0.38086 -0.2941,0.25391 -0.4411,0.59668 -0.4411,1.02832 0,0.31316 0.0751,0.57764 0.2253,0.79346 0.1502,0.21582 0.3756,0.41048 0.676,0.58399 0.1312,0.07194 0.3312,0.17138 0.5999,0.29834 0.2687,0.12695 0.5131,0.2264 0.7331,0.29834 0.3682,-0.28353 0.6179,-0.57447 0.7491,-0.87281 0.1312,-0.29834 0.1967,-0.64005 0.1967,-1.02514 m 0.1778,4.73535 c 0,-0.38932 -0.0762,-0.69824 -0.2285,-0.92676 -0.1524,-0.22852 -0.4465,-0.46126 -0.8824,-0.69824 -0.1438,-0.08041 -0.3353,-0.16716 -0.5744,-0.26026 -0.2391,-0.09309 -0.5089,-0.20312 -0.8093,-0.33007 -0.3513,0.23274 -0.62,0.51945 -0.8062,0.8601 -0.1862,0.34066 -0.2793,0.72893 -0.2793,1.1648 0,0.57129 0.1725,1.04313 0.5173,1.41553 0.3449,0.372392 0.7776,0.55859 1.2981,0.55859 0.5332,0 0.9606,-0.15975 1.2823,-0.47925 0.3216,-0.3195 0.4824,-0.75431 0.4824,-1.30444 m -1.7774,2.72949 c -0.4697,0 -0.8971,-0.069824 -1.2822,-0.20947234 C -13.619,-0.133301 -13.9469,-0.33431 -14.2178,-0.59668 c -0.2666,-0.253906 -0.4686,-0.55542 -0.6062,-0.90454 -0.1375,-0.34912 -0.2063,-0.71834 -0.2063,-1.10767 0,-0.51204 0.1365,-0.98283 0.4095,-1.41235 0.2729,-0.42952 0.6696,-0.77124 1.1901,-1.02515 v -0.03808 c -0.4655,-0.27084 -0.8103,-0.56706 -1.0346,-0.88867 -0.2243,-0.32162 -0.3365,-0.72364 -0.3365,-1.20606 0,-0.71094 0.2688,-1.30338 0.8062,-1.77734 0.5374,-0.47396 1.2187,-0.71094 2.0439,-0.71094 0.8591,0 1.5478,0.22534 2.0662,0.67602 0.51839,0.45069 0.77759,1.02727 0.77759,1.72974 0,0.42318 -0.12378,0.84212 -0.37134,1.25684 -0.24756,0.41471 -0.60405,0.73844 -1.06955,0.97119 v 0.03808 c 0.5501,0.25814 0.96693,0.57129 1.25046,0.93946 0.28353,0.36816 0.42529,0.84212 0.42529,1.42187 0,0.80827 -0.29305,1.48535 -0.87915,2.031253 -0.5861,0.5458981 -1.3193,0.818847 -2.1995,0.818847 m 6.69535,-8.76611 c -0.22851,0 -0.45703,0.0275 -0.68554,0.08252 -0.22852,0.05501 -0.4528,0.12695 -0.67286,0.21582 -0.20312,0.08463 -0.3798,0.1735 -0.53003,0.2666 -0.15022,0.0931 -0.28458,0.17985 -0.40307,0.26025 h -0.07617 v -1.33935 c 0.27506,-0.14812 0.64852,-0.28247 1.12036,-0.40308 0.47184,-0.1206 0.92147,-0.18091 1.34887,-0.18091 0.42741,0 0.80087,0.04338 1.12037,0.13013 0.31949,0.08675 0.60831,0.22111 0.86645,0.40308 0.2793,0.20312 0.48983,0.44856 0.63159,0.73632 0.14177,0.28776 0.21265,0.62419 0.21265,1.00928 0,0.52051 -0.17139,0.97754 -0.51416,1.37109 -0.34277,0.39356 -0.75326,0.64323 -1.23145,0.74903 v 0.08887 c 0.1989,0.03808 0.41154,0.10367 0.63794,0.19677 0.2264,0.0931 0.43693,0.23063 0.6316,0.4126 0.19466,0.18197 0.35335,0.41577 0.47607,0.70142 0.12272,0.28564 0.18408,0.6337 0.18408,1.04419 0,0.4274 -0.073,0.8199 -0.21899,1.17749 -0.146,0.35758 -0.3523,0.673906 -0.6189,0.948971 -0.27506,0.28776 -0.60726,0.505696 -0.99658,0.6538084 -0.38932,0.1481116 -0.83154,0.2221676 -1.32666,0.2221676 -0.47396,0 -0.94369,-0.057129 -1.40918,-0.1713864 C -7.17546,-0.0888672 -7.56689,-0.2264 -7.88428,-0.387207 V -1.72656 h 0.08887 c 0.2666,0.19466 0.62419,0.38086 1.07275,0.55859 0.44857,0.177736 0.89714,0.266603 1.34571,0.266603 0.25813,0 0.51733,-0.04126 0.77758,-0.123783 0.26026,-0.08252 0.47714,-0.21687 0.65064,-0.40307 0.16927,-0.1862 0.29834,-0.39144 0.38721,-0.61573 0.08886,-0.22428 0.1333,-0.50781 0.1333,-0.85058 0,-0.34277 -0.04973,-0.62419 -0.14917,-0.84424 -0.09945,-0.22005 -0.23804,-0.39355 -0.41577,-0.52051 -0.17774,-0.12695 -0.38827,-0.21476 -0.6316,-0.26343 -0.24332,-0.04866 -0.50675,-0.07299 -0.79028,-0.07299 h -0.53955 v -1.05371 h 0.41895 c 0.57128,0 1.03572,-0.13542 1.39331,-0.40625 0.35758,-0.27084 0.53637,-0.66439 0.53637,-1.18067 0,-0.23698 -0.04655,-0.44116 -0.13965,-0.61255 C -3.8387,-8.02026 -3.95719,-8.15674 -4.10107,-8.2583 -4.26188,-8.36833 -4.43962,-8.4445 -4.63428,-8.48682 -4.82894,-8.52913 -5.0363,-8.55029 -5.25635,-8.55029 m 6.93018,6.74121 -1.777346,4.15771 H -1.03027 L 0.0869141,-1.80908 H 1.67383 M 9.12695,-8.03613 5.03906,0 H 3.68701 l 4.3291,-8.34082 H 3.12842 v -1.11084 h 5.99853 v 1.41553 M 15.873,0 H 14.4067 L 12.6865,-2.67871 10.9155,0 H 9.56348 L 12.0264,-3.5166 9.58887,-7.09033 h 1.46633 l 1.7075,2.65332 1.7519,-2.65332 H 15.873 L 13.4229,-3.59912 15.873,0"
         fill-rule="evenodd"
         vector-effect="none" />
    </g>
    <g
       id="g30"
       font-style="normal"
       font-weight="400"
       font-size="7.8px"
       font-family="'MS Shell Dlg 2'"
       transform="matrix(1.31873,0,0,1.31873,697.336,216.13)"
       stroke="none"
       fill-opacity="1"
       fill="#000000">
      <path
         id="path28"
         d="m -14.3521,-20.249 c 0,-0.4232 -0.1417,-0.7766 -0.4252,-1.0601 -0.2836,-0.2835 -0.6771,-0.4253 -1.1807,-0.4253 -0.4613,0 -0.839,0.127 -1.1331,0.3809 -0.2941,0.2539 -0.4411,0.5967 -0.4411,1.0283 0,0.3132 0.0751,0.5776 0.2253,0.7935 0.1502,0.2158 0.3756,0.4104 0.676,0.5839 0.1312,0.072 0.3312,0.1714 0.5999,0.2984 0.2687,0.1269 0.5131,0.2264 0.7331,0.2983 0.3682,-0.2835 0.6179,-0.5744 0.7491,-0.8728 0.1312,-0.2983 0.1967,-0.64 0.1967,-1.0251 m 0.1778,4.7353 c 0,-0.3893 -0.0762,-0.6982 -0.2285,-0.9267 -0.1524,-0.2285 -0.4465,-0.4613 -0.8824,-0.6983 -0.1438,-0.0804 -0.3353,-0.1671 -0.5744,-0.2602 -0.2391,-0.0931 -0.5089,-0.2032 -0.8093,-0.3301 -0.3513,0.2327 -0.62,0.5194 -0.8062,0.8601 -0.1862,0.3407 -0.2793,0.7289 -0.2793,1.1648 0,0.5713 0.1725,1.0431 0.5173,1.4155 0.3449,0.3724 0.7776,0.5586 1.2981,0.5586 0.5332,0 0.9606,-0.1597 1.2823,-0.4792 0.3216,-0.3195 0.4824,-0.7543 0.4824,-1.3045 m -1.7774,2.7295 c -0.4697,0 -0.8971,-0.0698 -1.2822,-0.2095 -0.3851,-0.1396 -0.713,-0.3406 -0.9839,-0.603 -0.2666,-0.2539 -0.4686,-0.5554 -0.6062,-0.9045 -0.1375,-0.3491 -0.2063,-0.7184 -0.2063,-1.1077 0,-0.512 0.1365,-0.9828 0.4095,-1.4123 0.2729,-0.4296 0.6696,-0.7713 1.1901,-1.0252 v -0.0381 c -0.4655,-0.2708 -0.8103,-0.567 -1.0346,-0.8886 -0.2243,-0.3217 -0.3365,-0.7237 -0.3365,-1.2061 0,-0.7109 0.2688,-1.3034 0.8062,-1.7773 0.5374,-0.474 1.2187,-0.711 2.0439,-0.711 0.8591,0 1.5478,0.2254 2.0662,0.676 0.5184,0.4507 0.7776,1.0273 0.7776,1.7298 0,0.4232 -0.1238,0.8421 -0.3713,1.2568 -0.2476,0.4147 -0.6041,0.7385 -1.0696,0.9712 v 0.0381 c 0.5501,0.2581 0.9669,0.5713 1.2505,0.9394 0.2835,0.3682 0.4253,0.8422 0.4253,1.4219 0,0.8083 -0.2931,1.4854 -0.8792,2.0313 -0.5861,0.5459 -1.3193,0.8188 -2.1995,0.8188 m 8.73295,-5.7827 c 0,-0.6432 -0.05924,-1.1669 -0.17773,-1.571 -0.11849,-0.4042 -0.28142,-0.7163 -0.48877,-0.9363 -0.1862,-0.2031 -0.37452,-0.3428 -0.56495,-0.419 -0.19043,-0.0761 -0.3999,-0.1142 -0.62841,-0.1142 -0.52051,0 -0.93519,0.1862 -1.24419,0.5586 -0.3089,0.3724 -0.4633,0.9119 -0.4633,1.6186 0,0.3978 0.0507,0.7258 0.1523,0.9839 0.1016,0.2581 0.2666,0.4803 0.4951,0.6665 0.16084,0.1312 0.3428,0.219 0.54593,0.2634 0.20312,0.0445 0.42106,0.0667 0.65381,0.0667 0.27083,0 0.56282,-0.0476 0.87597,-0.1428 0.31315,-0.0952 0.5861,-0.2211 0.81885,-0.3777 0.00423,-0.0635 0.00952,-0.1471 0.01587,-0.2507 0.00635,-0.1037 0.00952,-0.219 0.00952,-0.346 m -4.85595,-0.8125 c 0,-0.4866 0.0793,-0.931 0.238,-1.333 0.1587,-0.402 0.3756,-0.749 0.6507,-1.041 0.2623,-0.2793 0.5829,-0.4973 0.9616,-0.6538 0.37878,-0.1566 0.76281,-0.2349 1.15213,-0.2349 0.43588,0 0.83049,0.073 1.18384,0.219 0.35336,0.146 0.6591,0.3565 0.91724,0.6316 0.32584,0.347 0.57869,0.8019 0.75854,1.3647 0.17985,0.5629 0.26978,1.2738 0.26978,2.1329 0,0.7828 -0.08781,1.5245 -0.26343,2.2248 -0.17562,0.7004 -0.43481,1.2812 -0.77759,1.7424 -0.36393,0.4909 -0.80086,0.8654 -1.31079,1.1236 -0.50993,0.2581 -1.1394,0.3872 -1.88842,0.3872 -0.1693,0 -0.3491,-0.0095 -0.5396,-0.0286 -0.1904,-0.019 -0.3681,-0.0539 -0.5332,-0.1047 v -1.2124 h 0.0635 c 0.1058,0.0592 0.2709,0.1164 0.4951,0.1714 0.2243,0.055 0.4528,0.0825 0.6856,0.0825 0.82941,0 1.4811,-0.273 1.95506,-0.8189 0.47396,-0.5459 0.74268,-1.3266 0.80615,-2.3422 -0.33854,0.2285 -0.66121,0.3956 -0.96802,0.5014 -0.3068,0.1058 -0.64005,0.1587 -0.99975,0.1587 -0.35124,0 -0.67074,-0.0381 -0.95854,-0.1142 -0.2877,-0.0762 -0.5776,-0.2243 -0.8696,-0.4444 -0.3385,-0.2581 -0.5946,-0.585 -0.7681,-0.9807 -0.1735,-0.3957 -0.2602,-0.8728 -0.2602,-1.4314 m 9.81835,-2.1709 c -0.22851,0 -0.45703,0.0275 -0.68554,0.0825 -0.22852,0.055 -0.4528,0.127 -0.67286,0.2158 -0.20312,0.0847 -0.3798,0.1735 -0.53003,0.2666 -0.15022,0.0931 -0.28458,0.1799 -0.40307,0.2603 h -0.07617 v -1.3394 c 0.27506,-0.1481 0.64852,-0.2824 1.12036,-0.403 0.47184,-0.1206 0.92147,-0.1809 1.34887,-0.1809 0.42741,0 0.80087,0.0433 1.12037,0.1301 0.319495,0.0867 0.608313,0.2211 0.866451,0.4031 0.279297,0.2031 0.489828,0.4485 0.631592,0.7363 0.141764,0.2878 0.212647,0.6242 0.212647,1.0093 0,0.5205 -0.171387,0.9775 -0.514161,1.3711 -0.342773,0.3935 -0.753255,0.6432 -1.231449,0.749 v 0.0889 c 0.198897,0.038 0.411544,0.1036 0.637944,0.1967 0.226399,0.0931 0.43692985,0.2307 0.631591,0.4126 0.194662,0.182 0.353353,0.4158 0.476075,0.7014 0.122721,0.2857 0.184082,0.6338 0.184082,1.0442 0,0.4274 -0.072998,0.8199 -0.218995,1.1775 -0.145996,0.3576 -0.352294,0.6739 -0.6188961,0.949 -0.2750649,0.2878 -0.6072589,0.5057 -0.9965819,0.6538 -0.389319,0.1481 -0.831539,0.2222 -1.326659,0.2222 -0.47396,0 -0.94369,-0.0572 -1.40918,-0.1714 -0.4655,-0.1143 -0.85693,-0.2518 -1.17432,-0.4126 v -1.3394 h 0.08887 c 0.2666,0.1947 0.62419,0.3809 1.07275,0.5586 0.44857,0.1778 0.89714,0.2666 1.34571,0.2666 0.25813,0 0.51733,-0.0412 0.77758,-0.1237 0.26026,-0.0826 0.47714,-0.2169 0.65064,-0.4031 0.16927,-0.1862 0.298339,-0.3915 0.387207,-0.6157 0.088867,-0.2243 0.1333,-0.5079 0.1333,-0.8506 0,-0.3428 -0.049723,-0.6242 -0.14917,-0.8443 -0.099446,-0.22 -0.238037,-0.3935 -0.415771,-0.5205 -0.177736,-0.1269 -0.388266,-0.2147 -0.631596,-0.2634 -0.24332,-0.0487 -0.50675,-0.073 -0.79028,-0.073 h -0.53955 v -1.0537 h 0.41895 c 0.57128,0 1.03572,-0.1354 1.39331,-0.4063 0.357581,-0.2708 0.536373,-0.6644 0.536373,-1.1806 0,-0.237 -0.04655,-0.4412 -0.139648,-0.6126 -0.093099,-0.1714 -0.211589,-0.3078 -0.355465,-0.4094 -0.16081,-0.11 -0.33855,-0.1862 -0.53321,-0.2285 -0.19466,-0.0423 -0.40202,-0.0635 -0.62207,-0.0635 m 13.33595,4.9829 c 0,-0.8463 -0.1291,-1.4885 -0.3872,-1.9265 -0.2582,-0.438 -0.6729,-0.657 -1.24416,-0.657 -0.32584,0 -0.65486,0.0762 -0.98706,0.2285 -0.33219,0.1524 -0.63371,0.3449 -0.90454,0.5777 v 4.0625 c 0.30046,0.1481 0.56706,0.2528 0.79981,0.3142 0.23274,0.0613 0.48876,0.092 0.76806,0.092 0.60938,0 1.08759,-0.2158 1.43459,-0.6474 0.347,-0.4317 0.5205,-1.113 0.5205,-2.044 m 1.2314,-0.0952 c 0,1.1595 -0.2814,2.0926 -0.8442,2.7993 -0.5628,0.7067 -1.2674,1.0601 -2.11377,1.0601 -0.38509,0 -0.71411,-0.0476 -0.98706,-0.1428 -0.27295,-0.0953 -0.54273,-0.2233 -0.80933,-0.3841 L 7.48047,-13 H 6.36328 v -9.877 h 1.19336 v 3.5293 c 0.30046,-0.2708 0.6263,-0.4951 0.97754,-0.6728 0.35124,-0.1777 0.74902,-0.2666 1.19336,-0.2666 0.79976,0 1.43036,0.3205 1.89156,0.9617 0.4613,0.6411 0.6919,1.5287 0.6919,2.6628 m 7,-0.0698 c 0,1.1806 -0.2824,2.1212 -0.8474,2.8215 -0.5649,0.7004 -1.279,1.0505 -2.1423,1.0505 -0.3512,0 -0.6623,-0.0402 -0.9331,-0.1206 -0.2708,-0.0804 -0.548,-0.2052 -0.8316,-0.3745 v 2.9707 h -1.1933 v -9.7055 h 1.1933 v 0.7426 c 0.2963,-0.2666 0.6253,-0.4898 0.9871,-0.6696 0.3618,-0.1799 0.7564,-0.2698 1.1838,-0.2698 0.8125,0 1.4462,0.3216 1.9012,0.9648 0.4549,0.6433 0.6823,1.5065 0.6823,2.5899 m -1.2314,0.1333 c 0,-0.8083 -0.1291,-1.4356 -0.3872,-1.8821 -0.2582,-0.4465 -0.6771,-0.6697 -1.2569,-0.6697 -0.3385,0 -0.6654,0.0751 -0.9807,0.2254 -0.3152,0.1502 -0.6146,0.3438 -0.8982,0.5808 v 4.018 c 0.3132,0.1524 0.5809,0.2561 0.803,0.3111 0.2222,0.055 0.4772,0.0825 0.7649,0.0825 0.6179,0 1.0982,-0.2264 1.4409,-0.6792 0.3428,-0.4528 0.5142,-1.1151 0.5142,-1.9868 m -28.4317,9.35008 c 0,-0.42318 -0.1417,-0.77653 -0.4252,-1.06006 -0.2836,-0.28353 -0.6771,-0.4253 -1.1807,-0.4253 -0.4613,0 -0.839,0.12696 -1.1331,0.38086 -0.2941,0.25391 -0.4411,0.59668 -0.4411,1.02832 0,0.31316 0.0751,0.57764 0.2253,0.79346 0.1502,0.21582 0.3756,0.41048 0.676,0.58399 0.1312,0.07194 0.3312,0.17138 0.5999,0.29834 0.2687,0.12695 0.5131,0.2264 0.7331,0.29834 0.3682,-0.28353 0.6179,-0.57447 0.7491,-0.87281 0.1312,-0.29834 0.1967,-0.64005 0.1967,-1.02514 m 0.1778,4.73535 c 0,-0.38932 -0.0762,-0.69824 -0.2285,-0.92676 -0.1524,-0.22852 -0.4465,-0.46126 -0.8824,-0.69824 -0.1438,-0.08041 -0.3353,-0.16716 -0.5744,-0.26026 -0.2391,-0.09309 -0.5089,-0.20312 -0.8093,-0.33007 -0.3513,0.23274 -0.62,0.51945 -0.8062,0.8601 -0.1862,0.34066 -0.2793,0.72893 -0.2793,1.1648 0,0.57129 0.1725,1.04313 0.5173,1.41553 0.3449,0.372392 0.7776,0.55859 1.2981,0.55859 0.5332,0 0.9606,-0.15975 1.2823,-0.47925 0.3216,-0.3195 0.4824,-0.75431 0.4824,-1.30444 m -1.7774,2.72949 c -0.4697,0 -0.8971,-0.069824 -1.2822,-0.20947234 C -13.619,-0.133301 -13.9469,-0.33431 -14.2178,-0.59668 c -0.2666,-0.253906 -0.4686,-0.55542 -0.6062,-0.90454 -0.1375,-0.34912 -0.2063,-0.71834 -0.2063,-1.10767 0,-0.51204 0.1365,-0.98283 0.4095,-1.41235 0.2729,-0.42952 0.6696,-0.77124 1.1901,-1.02515 v -0.03808 c -0.4655,-0.27084 -0.8103,-0.56706 -1.0346,-0.88867 -0.2243,-0.32162 -0.3365,-0.72364 -0.3365,-1.20606 0,-0.71094 0.2688,-1.30338 0.8062,-1.77734 0.5374,-0.47396 1.2187,-0.71094 2.0439,-0.71094 0.8591,0 1.5478,0.22534 2.0662,0.67602 0.51839,0.45069 0.77759,1.02727 0.77759,1.72974 0,0.42318 -0.12378,0.84212 -0.37134,1.25684 -0.24756,0.41471 -0.60405,0.73844 -1.06955,0.97119 v 0.03808 c 0.5501,0.25814 0.96693,0.57129 1.25046,0.93946 0.28353,0.36816 0.42529,0.84212 0.42529,1.42187 0,0.80827 -0.29305,1.48535 -0.87915,2.031253 -0.5861,0.5458981 -1.3193,0.818847 -2.1995,0.818847 m 6.69535,-8.76611 c -0.22851,0 -0.45703,0.0275 -0.68554,0.08252 -0.22852,0.05501 -0.4528,0.12695 -0.67286,0.21582 -0.20312,0.08463 -0.3798,0.1735 -0.53003,0.2666 -0.15022,0.0931 -0.28458,0.17985 -0.40307,0.26025 h -0.07617 v -1.33935 c 0.27506,-0.14812 0.64852,-0.28247 1.12036,-0.40308 0.47184,-0.1206 0.92147,-0.18091 1.34887,-0.18091 0.42741,0 0.80087,0.04338 1.12037,0.13013 0.31949,0.08675 0.60831,0.22111 0.86645,0.40308 0.2793,0.20312 0.48983,0.44856 0.63159,0.73632 0.14177,0.28776 0.21265,0.62419 0.21265,1.00928 0,0.52051 -0.17139,0.97754 -0.51416,1.37109 -0.34277,0.39356 -0.75326,0.64323 -1.23145,0.74903 v 0.08887 c 0.1989,0.03808 0.41154,0.10367 0.63794,0.19677 0.2264,0.0931 0.43693,0.23063 0.6316,0.4126 0.19466,0.18197 0.35335,0.41577 0.47607,0.70142 0.12272,0.28564 0.18408,0.6337 0.18408,1.04419 0,0.4274 -0.073,0.8199 -0.21899,1.17749 -0.146,0.35758 -0.3523,0.673906 -0.6189,0.948971 -0.27506,0.28776 -0.60726,0.505696 -0.99658,0.6538084 -0.38932,0.1481116 -0.83154,0.2221676 -1.32666,0.2221676 -0.47396,0 -0.94369,-0.057129 -1.40918,-0.1713864 C -7.17546,-0.0888672 -7.56689,-0.2264 -7.88428,-0.387207 V -1.72656 h 0.08887 c 0.2666,0.19466 0.62419,0.38086 1.07275,0.55859 0.44857,0.177736 0.89714,0.266603 1.34571,0.266603 0.25813,0 0.51733,-0.04126 0.77758,-0.123783 0.26026,-0.08252 0.47714,-0.21687 0.65064,-0.40307 0.16927,-0.1862 0.29834,-0.39144 0.38721,-0.61573 0.08886,-0.22428 0.1333,-0.50781 0.1333,-0.85058 0,-0.34277 -0.04973,-0.62419 -0.14917,-0.84424 -0.09945,-0.22005 -0.23804,-0.39355 -0.41577,-0.52051 -0.17774,-0.12695 -0.38827,-0.21476 -0.6316,-0.26343 -0.24332,-0.04866 -0.50675,-0.07299 -0.79028,-0.07299 h -0.53955 v -1.05371 h 0.41895 c 0.57128,0 1.03572,-0.13542 1.39331,-0.40625 0.35758,-0.27084 0.53637,-0.66439 0.53637,-1.18067 0,-0.23698 -0.04655,-0.44116 -0.13965,-0.61255 C -3.8387,-8.02026 -3.95719,-8.15674 -4.10107,-8.2583 -4.26188,-8.36833 -4.43962,-8.4445 -4.63428,-8.48682 -4.82894,-8.52913 -5.0363,-8.55029 -5.25635,-8.55029 m 6.93018,6.74121 -1.777346,4.15771 H -1.03027 L 0.0869141,-1.80908 H 1.67383 M 9.12695,-8.03613 5.03906,0 H 3.68701 l 4.3291,-8.34082 H 3.12842 v -1.11084 h 5.99853 v 1.41553 M 15.873,0 H 14.4067 L 12.6865,-2.67871 10.9155,0 H 9.56348 L 12.0264,-3.5166 9.58887,-7.09033 h 1.46633 l 1.7075,2.65332 1.7519,-2.65332 H 15.873 L 13.4229,-3.59912 15.873,0"
         fill-rule="evenodd"
         vector-effect="none" />
    </g>
    <g
       id="g32"
       font-style="normal"
       font-weight="400"
       font-size="7.8px"
       font-family="'MS Shell Dlg 2'"
       transform="matrix(5.14536,0,0,5.14536,-56,69)"
       stroke-linejoin="bevel"
       stroke-linecap="square"
       stroke-width="1"
       stroke-opacity="1"
       stroke="#000000"
       fill="none" />
    <g
       id="g34"
       font-style="normal"
       font-weight="400"
       font-size="7.8px"
       font-family="'MS Shell Dlg 2'"
       transform="matrix(5.14536,0,0,5.14536,-56,69)"
       stroke-linejoin="bevel"
       stroke-linecap="square"
       stroke-width="1"
       stroke-opacity="1"
       stroke="#000000"
       fill="none" />
    <g
       id="g38"
       font-style="normal"
       font-weight="400"
       font-size="7.8px"
       font-family="'MS Shell Dlg 2'"
       transform="matrix(5.14536,0,0,5.14536,-56,69)"
       stroke="none"
       fill-opacity="1"
       fill="#cb6a62">
      <path
         id="path36"
         d="m 267.369,101.529 -15.837,-9.9232 1.327,-2.1185 -1.176,2.2059 -16.719,-8.9159 1.176,-2.206 -0.988,2.2966 -17.947,-7.7191 0.988,-2.2966 -0.768,2.3793 -18.969,-6.1195 0.767,-2.3793 -0.523,2.4446 -19.693,-4.2149 0.523,-2.4447 -0.265,2.4859 -20.105,-2.1505 0.266,-2.4859 -0.008,2.5 -20.218,-0.0663 0.008,-2.5 0.241,2.4884 -20.067,1.9403 -0.24,-2.4884 0.48,2.4535 -19.6918,3.851 -0.4799,-2.4536 0.6687,2.409 -19.1198,5.3066 -0.6686,-2.409 0.8146,2.3636 -18.3489,6.3239 -0.8146,-2.3635 0.9269,2.3218 -17.4346,6.9595 -0.9268,-2.3219 1.0079,2.2878 -16.9032,7.4473 -2.016,-4.5756 16.9033,-7.4473 c 0.0263,-0.0123 0.0533,-0.0237 0.0802,-0.0344 l 9e-4,3e-4 17.4346,-6.9594 c 0.0364,-0.0153 0.0738,-0.0292 0.1111,-0.0421 l 0.0011,4e-4 18.3489,-6.324 c 0.0474,-0.017 0.0961,-0.0322 0.1448,-0.0457 l 0.0012,4e-4 19.1197,-5.3066 c 0.0615,-0.0177 0.1245,-0.0326 0.1876,-0.0448 l 0.0012,2e-4 19.6915,-3.851 c 0.078,-0.0157 0.158,-0.0273 0.238,-0.035 l 10e-4,10e-5 20.066,-1.9402 c 0.079,-0.0077 0.16,-0.0116 0.241,-0.0116 1.381,0 2.5,1.1193 2.5,2.5 0,1.3808 -1.119,2.5001 -2.5,2.5001 -1.381,0 -2.5,-1.1193 -2.5,-2.5001 0,-1.2139 0.865,-2.2257 2.012,-2.4523 l 0.496,-0.0477 20.218,0.0663 c 0.088,3e-4 0.174,0.0051 0.258,0.014 v 2e-4 l 20.104,2.1505 c 0.089,0.0091 0.175,0.0229 0.258,0.0407 v 5e-4 l 19.693,4.2149 c 0.084,0.0175 0.165,0.0393 0.244,0.0649 v 5e-4 l 18.97,6.1195 c 0.076,0.0239 0.149,0.0515 0.22,0.0822 v 5e-4 l 17.947,7.7191 c 0.065,0.0273 0.128,0.0576 0.189,0.0903 v 4e-4 l 16.719,8.9159 c 0.052,0.0272 0.102,0.0564 0.151,0.0872 v 2e-4 l 15.837,9.9228 -2.655,4.2375"
         fill-rule="nonzero"
         vector-effect="none" />
    </g>
    <g
       id="g42"
       font-style="normal"
       font-weight="400"
       font-size="7.8px"
       font-family="'MS Shell Dlg 2'"
       transform="matrix(1.31873,0,0,1.31873,714.208,396.08)"
       stroke-linejoin="round"
       stroke-linecap="square"
       stroke-width="3"
       stroke-opacity="1"
       stroke="#ffffff"
       fill="none">
      <path
         id="path40"
         d="m -14.3521,-20.249 c 0,-0.4232 -0.1417,-0.7766 -0.4252,-1.0601 -0.2836,-0.2835 -0.6771,-0.4253 -1.1807,-0.4253 -0.4613,0 -0.839,0.127 -1.1331,0.3809 -0.2941,0.2539 -0.4411,0.5967 -0.4411,1.0283 0,0.3132 0.0751,0.5776 0.2253,0.7935 0.1502,0.2158 0.3756,0.4104 0.676,0.5839 0.1312,0.072 0.3312,0.1714 0.5999,0.2984 0.2687,0.1269 0.5131,0.2264 0.7331,0.2983 0.3682,-0.2835 0.6179,-0.5744 0.7491,-0.8728 0.1312,-0.2983 0.1967,-0.64 0.1967,-1.0251 m 0.1778,4.7353 c 0,-0.3893 -0.0762,-0.6982 -0.2285,-0.9267 -0.1524,-0.2285 -0.4465,-0.4613 -0.8824,-0.6983 -0.1438,-0.0804 -0.3353,-0.1671 -0.5744,-0.2602 -0.2391,-0.0931 -0.5089,-0.2032 -0.8093,-0.3301 -0.3513,0.2327 -0.62,0.5194 -0.8062,0.8601 -0.1862,0.3407 -0.2793,0.7289 -0.2793,1.1648 0,0.5713 0.1725,1.0431 0.5173,1.4155 0.3449,0.3724 0.7776,0.5586 1.2981,0.5586 0.5332,0 0.9606,-0.1597 1.2823,-0.4792 0.3216,-0.3195 0.4824,-0.7543 0.4824,-1.3045 m -1.7774,2.7295 c -0.4697,0 -0.8971,-0.0698 -1.2822,-0.2095 -0.3851,-0.1396 -0.713,-0.3406 -0.9839,-0.603 -0.2666,-0.2539 -0.4686,-0.5554 -0.6062,-0.9045 -0.1375,-0.3491 -0.2063,-0.7184 -0.2063,-1.1077 0,-0.512 0.1365,-0.9828 0.4095,-1.4123 0.2729,-0.4296 0.6696,-0.7713 1.1901,-1.0252 v -0.0381 c -0.4655,-0.2708 -0.8103,-0.567 -1.0346,-0.8886 -0.2243,-0.3217 -0.3365,-0.7237 -0.3365,-1.2061 0,-0.7109 0.2688,-1.3034 0.8062,-1.7773 0.5374,-0.474 1.2187,-0.711 2.0439,-0.711 0.8591,0 1.5478,0.2254 2.0662,0.676 0.5184,0.4507 0.7776,1.0273 0.7776,1.7298 0,0.4232 -0.1238,0.8421 -0.3713,1.2568 -0.2476,0.4147 -0.6041,0.7385 -1.0696,0.9712 v 0.0381 c 0.5501,0.2581 0.9669,0.5713 1.2505,0.9394 0.2835,0.3682 0.4253,0.8422 0.4253,1.4219 0,0.8083 -0.2931,1.4854 -0.8792,2.0313 -0.5861,0.5459 -1.3193,0.8188 -2.1995,0.8188 m 8.73295,-5.7827 c 0,-0.6432 -0.05924,-1.1669 -0.17773,-1.571 -0.11849,-0.4042 -0.28142,-0.7163 -0.48877,-0.9363 -0.1862,-0.2031 -0.37452,-0.3428 -0.56495,-0.419 -0.19043,-0.0761 -0.3999,-0.1142 -0.62841,-0.1142 -0.52051,0 -0.93519,0.1862 -1.24419,0.5586 -0.3089,0.3724 -0.4633,0.9119 -0.4633,1.6186 0,0.3978 0.0507,0.7258 0.1523,0.9839 0.1016,0.2581 0.2666,0.4803 0.4951,0.6665 0.16084,0.1312 0.3428,0.219 0.54593,0.2634 0.20312,0.0445 0.42106,0.0667 0.65381,0.0667 0.27083,0 0.56282,-0.0476 0.87597,-0.1428 0.31315,-0.0952 0.5861,-0.2211 0.81885,-0.3777 0.00423,-0.0635 0.00952,-0.1471 0.01587,-0.2507 0.00635,-0.1037 0.00952,-0.219 0.00952,-0.346 m -4.85595,-0.8125 c 0,-0.4866 0.0793,-0.931 0.238,-1.333 0.1587,-0.402 0.3756,-0.749 0.6507,-1.041 0.2623,-0.2793 0.5829,-0.4973 0.9616,-0.6538 0.37878,-0.1566 0.76281,-0.2349 1.15213,-0.2349 0.43588,0 0.83049,0.073 1.18384,0.219 0.35336,0.146 0.6591,0.3565 0.91724,0.6316 0.32584,0.347 0.57869,0.8019 0.75854,1.3647 0.17985,0.5629 0.26978,1.2738 0.26978,2.1329 0,0.7828 -0.08781,1.5245 -0.26343,2.2248 -0.17562,0.7004 -0.43481,1.2812 -0.77759,1.7424 -0.36393,0.4909 -0.80086,0.8654 -1.31079,1.1236 -0.50993,0.2581 -1.1394,0.3872 -1.88842,0.3872 -0.1693,0 -0.3491,-0.0095 -0.5396,-0.0286 -0.1904,-0.019 -0.3681,-0.0539 -0.5332,-0.1047 v -1.2124 h 0.0635 c 0.1058,0.0592 0.2709,0.1164 0.4951,0.1714 0.2243,0.055 0.4528,0.0825 0.6856,0.0825 0.82941,0 1.4811,-0.273 1.95506,-0.8189 0.47396,-0.5459 0.74268,-1.3266 0.80615,-2.3422 -0.33854,0.2285 -0.66121,0.3956 -0.96802,0.5014 -0.3068,0.1058 -0.64005,0.1587 -0.99975,0.1587 -0.35124,0 -0.67074,-0.0381 -0.95854,-0.1142 -0.2877,-0.0762 -0.5776,-0.2243 -0.8696,-0.4444 -0.3385,-0.2581 -0.5946,-0.585 -0.7681,-0.9807 -0.1735,-0.3957 -0.2602,-0.8728 -0.2602,-1.4314 m 9.81835,-2.1709 c -0.22851,0 -0.45703,0.0275 -0.68554,0.0825 -0.22852,0.055 -0.4528,0.127 -0.67286,0.2158 -0.20312,0.0847 -0.3798,0.1735 -0.53003,0.2666 -0.15022,0.0931 -0.28458,0.1799 -0.40307,0.2603 h -0.07617 v -1.3394 c 0.27506,-0.1481 0.64852,-0.2824 1.12036,-0.403 0.47184,-0.1206 0.92147,-0.1809 1.34887,-0.1809 0.42741,0 0.80087,0.0433 1.12037,0.1301 0.319495,0.0867 0.608313,0.2211 0.866451,0.4031 0.279297,0.2031 0.489828,0.4485 0.631592,0.7363 0.141764,0.2878 0.212647,0.6242 0.212647,1.0093 0,0.5205 -0.171387,0.9775 -0.514161,1.3711 -0.342773,0.3935 -0.753255,0.6432 -1.231449,0.749 v 0.0889 c 0.198897,0.038 0.411544,0.1036 0.637944,0.1967 0.226399,0.0931 0.43692985,0.2307 0.631591,0.4126 0.194662,0.182 0.353353,0.4158 0.476075,0.7014 0.122721,0.2857 0.184082,0.6338 0.184082,1.0442 0,0.4274 -0.072998,0.8199 -0.218995,1.1775 -0.145996,0.3576 -0.352294,0.6739 -0.6188961,0.949 -0.2750649,0.2878 -0.6072589,0.5057 -0.9965819,0.6538 -0.389319,0.1481 -0.831539,0.2222 -1.326659,0.2222 -0.47396,0 -0.94369,-0.0572 -1.40918,-0.1714 -0.4655,-0.1143 -0.85693,-0.2518 -1.17432,-0.4126 v -1.3394 h 0.08887 c 0.2666,0.1947 0.62419,0.3809 1.07275,0.5586 0.44857,0.1778 0.89714,0.2666 1.34571,0.2666 0.25813,0 0.51733,-0.0412 0.77758,-0.1237 0.26026,-0.0826 0.47714,-0.2169 0.65064,-0.4031 0.16927,-0.1862 0.298339,-0.3915 0.387207,-0.6157 0.088867,-0.2243 0.1333,-0.5079 0.1333,-0.8506 0,-0.3428 -0.049723,-0.6242 -0.14917,-0.8443 -0.099446,-0.22 -0.238037,-0.3935 -0.415771,-0.5205 -0.177736,-0.1269 -0.388266,-0.2147 -0.631596,-0.2634 -0.24332,-0.0487 -0.50675,-0.073 -0.79028,-0.073 h -0.53955 v -1.0537 h 0.41895 c 0.57128,0 1.03572,-0.1354 1.39331,-0.4063 0.357581,-0.2708 0.536373,-0.6644 0.536373,-1.1806 0,-0.237 -0.04655,-0.4412 -0.139648,-0.6126 -0.093099,-0.1714 -0.211589,-0.3078 -0.355465,-0.4094 -0.16081,-0.11 -0.33855,-0.1862 -0.53321,-0.2285 -0.19466,-0.0423 -0.40202,-0.0635 -0.62207,-0.0635 m 13.33595,4.9829 c 0,-0.8463 -0.1291,-1.4885 -0.3872,-1.9265 -0.2582,-0.438 -0.6729,-0.657 -1.24416,-0.657 -0.32584,0 -0.65486,0.0762 -0.98706,0.2285 -0.33219,0.1524 -0.63371,0.3449 -0.90454,0.5777 v 4.0625 c 0.30046,0.1481 0.56706,0.2528 0.79981,0.3142 0.23274,0.0613 0.48876,0.092 0.76806,0.092 0.60938,0 1.08759,-0.2158 1.43459,-0.6474 0.347,-0.4317 0.5205,-1.113 0.5205,-2.044 m 1.2314,-0.0952 c 0,1.1595 -0.2814,2.0926 -0.8442,2.7993 -0.5628,0.7067 -1.2674,1.0601 -2.11377,1.0601 -0.38509,0 -0.71411,-0.0476 -0.98706,-0.1428 -0.27295,-0.0953 -0.54273,-0.2233 -0.80933,-0.3841 L 7.48047,-13 H 6.36328 v -9.877 h 1.19336 v 3.5293 c 0.30046,-0.2708 0.6263,-0.4951 0.97754,-0.6728 0.35124,-0.1777 0.74902,-0.2666 1.19336,-0.2666 0.79976,0 1.43036,0.3205 1.89156,0.9617 0.4613,0.6411 0.6919,1.5287 0.6919,2.6628 m 7,-0.0698 c 0,1.1806 -0.2824,2.1212 -0.8474,2.8215 -0.5649,0.7004 -1.279,1.0505 -2.1423,1.0505 -0.3512,0 -0.6623,-0.0402 -0.9331,-0.1206 -0.2708,-0.0804 -0.548,-0.2052 -0.8316,-0.3745 v 2.9707 h -1.1933 v -9.7055 h 1.1933 v 0.7426 c 0.2963,-0.2666 0.6253,-0.4898 0.9871,-0.6696 0.3618,-0.1799 0.7564,-0.2698 1.1838,-0.2698 0.8125,0 1.4462,0.3216 1.9012,0.9648 0.4549,0.6433 0.6823,1.5065 0.6823,2.5899 m -1.2314,0.1333 c 0,-0.8083 -0.1291,-1.4356 -0.3872,-1.8821 -0.2582,-0.4465 -0.6771,-0.6697 -1.2569,-0.6697 -0.3385,0 -0.6654,0.0751 -0.9807,0.2254 -0.3152,0.1502 -0.6146,0.3438 -0.8982,0.5808 v 4.018 c 0.3132,0.1524 0.5809,0.2561 0.803,0.3111 0.2222,0.055 0.4772,0.0825 0.7649,0.0825 0.6179,0 1.0982,-0.2264 1.4409,-0.6792 0.3428,-0.4528 0.5142,-1.1151 0.5142,-1.9868 m -28.4317,9.35008 c 0,-0.42318 -0.1417,-0.77653 -0.4252,-1.06006 -0.2836,-0.28353 -0.6771,-0.4253 -1.1807,-0.4253 -0.4613,0 -0.839,0.12696 -1.1331,0.38086 -0.2941,0.25391 -0.4411,0.59668 -0.4411,1.02832 0,0.31316 0.0751,0.57764 0.2253,0.79346 0.1502,0.21582 0.3756,0.41048 0.676,0.58399 0.1312,0.07194 0.3312,0.17138 0.5999,0.29834 0.2687,0.12695 0.5131,0.2264 0.7331,0.29834 0.3682,-0.28353 0.6179,-0.57447 0.7491,-0.87281 0.1312,-0.29834 0.1967,-0.64005 0.1967,-1.02514 m 0.1778,4.73535 c 0,-0.38932 -0.0762,-0.69824 -0.2285,-0.92676 -0.1524,-0.22852 -0.4465,-0.46126 -0.8824,-0.69824 -0.1438,-0.08041 -0.3353,-0.16716 -0.5744,-0.26026 -0.2391,-0.09309 -0.5089,-0.20312 -0.8093,-0.33007 -0.3513,0.23274 -0.62,0.51945 -0.8062,0.8601 -0.1862,0.34066 -0.2793,0.72893 -0.2793,1.1648 0,0.57129 0.1725,1.04313 0.5173,1.41553 0.3449,0.372392 0.7776,0.55859 1.2981,0.55859 0.5332,0 0.9606,-0.15975 1.2823,-0.47925 0.3216,-0.3195 0.4824,-0.75431 0.4824,-1.30444 m -1.7774,2.72949 c -0.4697,0 -0.8971,-0.069824 -1.2822,-0.20947234 C -13.619,-0.133301 -13.9469,-0.33431 -14.2178,-0.59668 c -0.2666,-0.253906 -0.4686,-0.55542 -0.6062,-0.90454 -0.1375,-0.34912 -0.2063,-0.71834 -0.2063,-1.10767 0,-0.51204 0.1365,-0.98283 0.4095,-1.41235 0.2729,-0.42952 0.6696,-0.77124 1.1901,-1.02515 v -0.03808 c -0.4655,-0.27084 -0.8103,-0.56706 -1.0346,-0.88867 -0.2243,-0.32162 -0.3365,-0.72364 -0.3365,-1.20606 0,-0.71094 0.2688,-1.30338 0.8062,-1.77734 0.5374,-0.47396 1.2187,-0.71094 2.0439,-0.71094 0.8591,0 1.5478,0.22534 2.0662,0.67602 0.51839,0.45069 0.77759,1.02727 0.77759,1.72974 0,0.42318 -0.12378,0.84212 -0.37134,1.25684 -0.24756,0.41471 -0.60405,0.73844 -1.06955,0.97119 v 0.03808 c 0.5501,0.25814 0.96693,0.57129 1.25046,0.93946 0.28353,0.36816 0.42529,0.84212 0.42529,1.42187 0,0.80827 -0.29305,1.48535 -0.87915,2.031253 -0.5861,0.5458981 -1.3193,0.818847 -2.1995,0.818847 m 6.69535,-8.76611 c -0.22851,0 -0.45703,0.0275 -0.68554,0.08252 -0.22852,0.05501 -0.4528,0.12695 -0.67286,0.21582 -0.20312,0.08463 -0.3798,0.1735 -0.53003,0.2666 -0.15022,0.0931 -0.28458,0.17985 -0.40307,0.26025 h -0.07617 v -1.33935 c 0.27506,-0.14812 0.64852,-0.28247 1.12036,-0.40308 0.47184,-0.1206 0.92147,-0.18091 1.34887,-0.18091 0.42741,0 0.80087,0.04338 1.12037,0.13013 0.31949,0.08675 0.60831,0.22111 0.86645,0.40308 0.2793,0.20312 0.48983,0.44856 0.63159,0.73632 0.14177,0.28776 0.21265,0.62419 0.21265,1.00928 0,0.52051 -0.17139,0.97754 -0.51416,1.37109 -0.34277,0.39356 -0.75326,0.64323 -1.23145,0.74903 v 0.08887 c 0.1989,0.03808 0.41154,0.10367 0.63794,0.19677 0.2264,0.0931 0.43693,0.23063 0.6316,0.4126 0.19466,0.18197 0.35335,0.41577 0.47607,0.70142 0.12272,0.28564 0.18408,0.6337 0.18408,1.04419 0,0.4274 -0.073,0.8199 -0.21899,1.17749 -0.146,0.35758 -0.3523,0.673906 -0.6189,0.948971 -0.27506,0.28776 -0.60726,0.505696 -0.99658,0.6538084 -0.38932,0.1481116 -0.83154,0.2221676 -1.32666,0.2221676 -0.47396,0 -0.94369,-0.057129 -1.40918,-0.1713864 C -7.17546,-0.0888672 -7.56689,-0.2264 -7.88428,-0.387207 V -1.72656 h 0.08887 c 0.2666,0.19466 0.62419,0.38086 1.07275,0.55859 0.44857,0.177736 0.89714,0.266603 1.34571,0.266603 0.25813,0 0.51733,-0.04126 0.77758,-0.123783 0.26026,-0.08252 0.47714,-0.21687 0.65064,-0.40307 0.16927,-0.1862 0.29834,-0.39144 0.38721,-0.61573 0.08886,-0.22428 0.1333,-0.50781 0.1333,-0.85058 0,-0.34277 -0.04973,-0.62419 -0.14917,-0.84424 -0.09945,-0.22005 -0.23804,-0.39355 -0.41577,-0.52051 -0.17774,-0.12695 -0.38827,-0.21476 -0.6316,-0.26343 -0.24332,-0.04866 -0.50675,-0.07299 -0.79028,-0.07299 h -0.53955 v -1.05371 h 0.41895 c 0.57128,0 1.03572,-0.13542 1.39331,-0.40625 0.35758,-0.27084 0.53637,-0.66439 0.53637,-1.18067 0,-0.23698 -0.04655,-0.44116 -0.13965,-0.61255 C -3.8387,-8.02026 -3.95719,-8.15674 -4.10107,-8.2583 -4.26188,-8.36833 -4.43962,-8.4445 -4.63428,-8.48682 -4.82894,-8.52913 -5.0363,-8.55029 -5.25635,-8.55029 m 6.93018,6.74121 -1.777346,4.15771 H -1.03027 L 0.0869141,-1.80908 H 1.67383 M 9.12695,-8.03613 5.03906,0 H 3.68701 l 4.3291,-8.34082 H 3.12842 v -1.11084 h 5.99853 v 1.41553 M 15.873,0 H 14.4067 L 12.6865,-2.67871 10.9155,0 H 9.56348 L 12.0264,-3.5166 9.58887,-7.09033 h 1.46633 l 1.7075,2.65332 1.7519,-2.65332 H 15.873 L 13.4229,-3.59912 15.873,0"
         fill-rule="evenodd"
         vector-effect="none" />
    </g>
    <g
       id="g46"
       font-style="normal"
       font-weight="400"
       font-size="7.8px"
       font-family="'MS Shell Dlg 2'"
       transform="matrix(1.31873,0,0,1.31873,714.208,396.08)"
       stroke="none"
       fill-opacity="1"
       fill="#000000">
      <path
         id="path44"
         d="m -14.3521,-20.249 c 0,-0.4232 -0.1417,-0.7766 -0.4252,-1.0601 -0.2836,-0.2835 -0.6771,-0.4253 -1.1807,-0.4253 -0.4613,0 -0.839,0.127 -1.1331,0.3809 -0.2941,0.2539 -0.4411,0.5967 -0.4411,1.0283 0,0.3132 0.0751,0.5776 0.2253,0.7935 0.1502,0.2158 0.3756,0.4104 0.676,0.5839 0.1312,0.072 0.3312,0.1714 0.5999,0.2984 0.2687,0.1269 0.5131,0.2264 0.7331,0.2983 0.3682,-0.2835 0.6179,-0.5744 0.7491,-0.8728 0.1312,-0.2983 0.1967,-0.64 0.1967,-1.0251 m 0.1778,4.7353 c 0,-0.3893 -0.0762,-0.6982 -0.2285,-0.9267 -0.1524,-0.2285 -0.4465,-0.4613 -0.8824,-0.6983 -0.1438,-0.0804 -0.3353,-0.1671 -0.5744,-0.2602 -0.2391,-0.0931 -0.5089,-0.2032 -0.8093,-0.3301 -0.3513,0.2327 -0.62,0.5194 -0.8062,0.8601 -0.1862,0.3407 -0.2793,0.7289 -0.2793,1.1648 0,0.5713 0.1725,1.0431 0.5173,1.4155 0.3449,0.3724 0.7776,0.5586 1.2981,0.5586 0.5332,0 0.9606,-0.1597 1.2823,-0.4792 0.3216,-0.3195 0.4824,-0.7543 0.4824,-1.3045 m -1.7774,2.7295 c -0.4697,0 -0.8971,-0.0698 -1.2822,-0.2095 -0.3851,-0.1396 -0.713,-0.3406 -0.9839,-0.603 -0.2666,-0.2539 -0.4686,-0.5554 -0.6062,-0.9045 -0.1375,-0.3491 -0.2063,-0.7184 -0.2063,-1.1077 0,-0.512 0.1365,-0.9828 0.4095,-1.4123 0.2729,-0.4296 0.6696,-0.7713 1.1901,-1.0252 v -0.0381 c -0.4655,-0.2708 -0.8103,-0.567 -1.0346,-0.8886 -0.2243,-0.3217 -0.3365,-0.7237 -0.3365,-1.2061 0,-0.7109 0.2688,-1.3034 0.8062,-1.7773 0.5374,-0.474 1.2187,-0.711 2.0439,-0.711 0.8591,0 1.5478,0.2254 2.0662,0.676 0.5184,0.4507 0.7776,1.0273 0.7776,1.7298 0,0.4232 -0.1238,0.8421 -0.3713,1.2568 -0.2476,0.4147 -0.6041,0.7385 -1.0696,0.9712 v 0.0381 c 0.5501,0.2581 0.9669,0.5713 1.2505,0.9394 0.2835,0.3682 0.4253,0.8422 0.4253,1.4219 0,0.8083 -0.2931,1.4854 -0.8792,2.0313 -0.5861,0.5459 -1.3193,0.8188 -2.1995,0.8188 m 8.73295,-5.7827 c 0,-0.6432 -0.05924,-1.1669 -0.17773,-1.571 -0.11849,-0.4042 -0.28142,-0.7163 -0.48877,-0.9363 -0.1862,-0.2031 -0.37452,-0.3428 -0.56495,-0.419 -0.19043,-0.0761 -0.3999,-0.1142 -0.62841,-0.1142 -0.52051,0 -0.93519,0.1862 -1.24419,0.5586 -0.3089,0.3724 -0.4633,0.9119 -0.4633,1.6186 0,0.3978 0.0507,0.7258 0.1523,0.9839 0.1016,0.2581 0.2666,0.4803 0.4951,0.6665 0.16084,0.1312 0.3428,0.219 0.54593,0.2634 0.20312,0.0445 0.42106,0.0667 0.65381,0.0667 0.27083,0 0.56282,-0.0476 0.87597,-0.1428 0.31315,-0.0952 0.5861,-0.2211 0.81885,-0.3777 0.00423,-0.0635 0.00952,-0.1471 0.01587,-0.2507 0.00635,-0.1037 0.00952,-0.219 0.00952,-0.346 m -4.85595,-0.8125 c 0,-0.4866 0.0793,-0.931 0.238,-1.333 0.1587,-0.402 0.3756,-0.749 0.6507,-1.041 0.2623,-0.2793 0.5829,-0.4973 0.9616,-0.6538 0.37878,-0.1566 0.76281,-0.2349 1.15213,-0.2349 0.43588,0 0.83049,0.073 1.18384,0.219 0.35336,0.146 0.6591,0.3565 0.91724,0.6316 0.32584,0.347 0.57869,0.8019 0.75854,1.3647 0.17985,0.5629 0.26978,1.2738 0.26978,2.1329 0,0.7828 -0.08781,1.5245 -0.26343,2.2248 -0.17562,0.7004 -0.43481,1.2812 -0.77759,1.7424 -0.36393,0.4909 -0.80086,0.8654 -1.31079,1.1236 -0.50993,0.2581 -1.1394,0.3872 -1.88842,0.3872 -0.1693,0 -0.3491,-0.0095 -0.5396,-0.0286 -0.1904,-0.019 -0.3681,-0.0539 -0.5332,-0.1047 v -1.2124 h 0.0635 c 0.1058,0.0592 0.2709,0.1164 0.4951,0.1714 0.2243,0.055 0.4528,0.0825 0.6856,0.0825 0.82941,0 1.4811,-0.273 1.95506,-0.8189 0.47396,-0.5459 0.74268,-1.3266 0.80615,-2.3422 -0.33854,0.2285 -0.66121,0.3956 -0.96802,0.5014 -0.3068,0.1058 -0.64005,0.1587 -0.99975,0.1587 -0.35124,0 -0.67074,-0.0381 -0.95854,-0.1142 -0.2877,-0.0762 -0.5776,-0.2243 -0.8696,-0.4444 -0.3385,-0.2581 -0.5946,-0.585 -0.7681,-0.9807 -0.1735,-0.3957 -0.2602,-0.8728 -0.2602,-1.4314 m 9.81835,-2.1709 c -0.22851,0 -0.45703,0.0275 -0.68554,0.0825 -0.22852,0.055 -0.4528,0.127 -0.67286,0.2158 -0.20312,0.0847 -0.3798,0.1735 -0.53003,0.2666 -0.15022,0.0931 -0.28458,0.1799 -0.40307,0.2603 h -0.07617 v -1.3394 c 0.27506,-0.1481 0.64852,-0.2824 1.12036,-0.403 0.47184,-0.1206 0.92147,-0.1809 1.34887,-0.1809 0.42741,0 0.80087,0.0433 1.12037,0.1301 0.319495,0.0867 0.608313,0.2211 0.866451,0.4031 0.279297,0.2031 0.489828,0.4485 0.631592,0.7363 0.141764,0.2878 0.212647,0.6242 0.212647,1.0093 0,0.5205 -0.171387,0.9775 -0.514161,1.3711 -0.342773,0.3935 -0.753255,0.6432 -1.231449,0.749 v 0.0889 c 0.198897,0.038 0.411544,0.1036 0.637944,0.1967 0.226399,0.0931 0.43692985,0.2307 0.631591,0.4126 0.194662,0.182 0.353353,0.4158 0.476075,0.7014 0.122721,0.2857 0.184082,0.6338 0.184082,1.0442 0,0.4274 -0.072998,0.8199 -0.218995,1.1775 -0.145996,0.3576 -0.352294,0.6739 -0.6188961,0.949 -0.2750649,0.2878 -0.6072589,0.5057 -0.9965819,0.6538 -0.389319,0.1481 -0.831539,0.2222 -1.326659,0.2222 -0.47396,0 -0.94369,-0.0572 -1.40918,-0.1714 -0.4655,-0.1143 -0.85693,-0.2518 -1.17432,-0.4126 v -1.3394 h 0.08887 c 0.2666,0.1947 0.62419,0.3809 1.07275,0.5586 0.44857,0.1778 0.89714,0.2666 1.34571,0.2666 0.25813,0 0.51733,-0.0412 0.77758,-0.1237 0.26026,-0.0826 0.47714,-0.2169 0.65064,-0.4031 0.16927,-0.1862 0.298339,-0.3915 0.387207,-0.6157 0.088867,-0.2243 0.1333,-0.5079 0.1333,-0.8506 0,-0.3428 -0.049723,-0.6242 -0.14917,-0.8443 -0.099446,-0.22 -0.238037,-0.3935 -0.415771,-0.5205 -0.177736,-0.1269 -0.388266,-0.2147 -0.631596,-0.2634 -0.24332,-0.0487 -0.50675,-0.073 -0.79028,-0.073 h -0.53955 v -1.0537 h 0.41895 c 0.57128,0 1.03572,-0.1354 1.39331,-0.4063 0.357581,-0.2708 0.536373,-0.6644 0.536373,-1.1806 0,-0.237 -0.04655,-0.4412 -0.139648,-0.6126 -0.093099,-0.1714 -0.211589,-0.3078 -0.355465,-0.4094 -0.16081,-0.11 -0.33855,-0.1862 -0.53321,-0.2285 -0.19466,-0.0423 -0.40202,-0.0635 -0.62207,-0.0635 m 13.33595,4.9829 c 0,-0.8463 -0.1291,-1.4885 -0.3872,-1.9265 -0.2582,-0.438 -0.6729,-0.657 -1.24416,-0.657 -0.32584,0 -0.65486,0.0762 -0.98706,0.2285 -0.33219,0.1524 -0.63371,0.3449 -0.90454,0.5777 v 4.0625 c 0.30046,0.1481 0.56706,0.2528 0.79981,0.3142 0.23274,0.0613 0.48876,0.092 0.76806,0.092 0.60938,0 1.08759,-0.2158 1.43459,-0.6474 0.347,-0.4317 0.5205,-1.113 0.5205,-2.044 m 1.2314,-0.0952 c 0,1.1595 -0.2814,2.0926 -0.8442,2.7993 -0.5628,0.7067 -1.2674,1.0601 -2.11377,1.0601 -0.38509,0 -0.71411,-0.0476 -0.98706,-0.1428 -0.27295,-0.0953 -0.54273,-0.2233 -0.80933,-0.3841 L 7.48047,-13 H 6.36328 v -9.877 h 1.19336 v 3.5293 c 0.30046,-0.2708 0.6263,-0.4951 0.97754,-0.6728 0.35124,-0.1777 0.74902,-0.2666 1.19336,-0.2666 0.79976,0 1.43036,0.3205 1.89156,0.9617 0.4613,0.6411 0.6919,1.5287 0.6919,2.6628 m 7,-0.0698 c 0,1.1806 -0.2824,2.1212 -0.8474,2.8215 -0.5649,0.7004 -1.279,1.0505 -2.1423,1.0505 -0.3512,0 -0.6623,-0.0402 -0.9331,-0.1206 -0.2708,-0.0804 -0.548,-0.2052 -0.8316,-0.3745 v 2.9707 h -1.1933 v -9.7055 h 1.1933 v 0.7426 c 0.2963,-0.2666 0.6253,-0.4898 0.9871,-0.6696 0.3618,-0.1799 0.7564,-0.2698 1.1838,-0.2698 0.8125,0 1.4462,0.3216 1.9012,0.9648 0.4549,0.6433 0.6823,1.5065 0.6823,2.5899 m -1.2314,0.1333 c 0,-0.8083 -0.1291,-1.4356 -0.3872,-1.8821 -0.2582,-0.4465 -0.6771,-0.6697 -1.2569,-0.6697 -0.3385,0 -0.6654,0.0751 -0.9807,0.2254 -0.3152,0.1502 -0.6146,0.3438 -0.8982,0.5808 v 4.018 c 0.3132,0.1524 0.5809,0.2561 0.803,0.3111 0.2222,0.055 0.4772,0.0825 0.7649,0.0825 0.6179,0 1.0982,-0.2264 1.4409,-0.6792 0.3428,-0.4528 0.5142,-1.1151 0.5142,-1.9868 m -28.4317,9.35008 c 0,-0.42318 -0.1417,-0.77653 -0.4252,-1.06006 -0.2836,-0.28353 -0.6771,-0.4253 -1.1807,-0.4253 -0.4613,0 -0.839,0.12696 -1.1331,0.38086 -0.2941,0.25391 -0.4411,0.59668 -0.4411,1.02832 0,0.31316 0.0751,0.57764 0.2253,0.79346 0.1502,0.21582 0.3756,0.41048 0.676,0.58399 0.1312,0.07194 0.3312,0.17138 0.5999,0.29834 0.2687,0.12695 0.5131,0.2264 0.7331,0.29834 0.3682,-0.28353 0.6179,-0.57447 0.7491,-0.87281 0.1312,-0.29834 0.1967,-0.64005 0.1967,-1.02514 m 0.1778,4.73535 c 0,-0.38932 -0.0762,-0.69824 -0.2285,-0.92676 -0.1524,-0.22852 -0.4465,-0.46126 -0.8824,-0.69824 -0.1438,-0.08041 -0.3353,-0.16716 -0.5744,-0.26026 -0.2391,-0.09309 -0.5089,-0.20312 -0.8093,-0.33007 -0.3513,0.23274 -0.62,0.51945 -0.8062,0.8601 -0.1862,0.34066 -0.2793,0.72893 -0.2793,1.1648 0,0.57129 0.1725,1.04313 0.5173,1.41553 0.3449,0.372392 0.7776,0.55859 1.2981,0.55859 0.5332,0 0.9606,-0.15975 1.2823,-0.47925 0.3216,-0.3195 0.4824,-0.75431 0.4824,-1.30444 m -1.7774,2.72949 c -0.4697,0 -0.8971,-0.069824 -1.2822,-0.20947234 C -13.619,-0.133301 -13.9469,-0.33431 -14.2178,-0.59668 c -0.2666,-0.253906 -0.4686,-0.55542 -0.6062,-0.90454 -0.1375,-0.34912 -0.2063,-0.71834 -0.2063,-1.10767 0,-0.51204 0.1365,-0.98283 0.4095,-1.41235 0.2729,-0.42952 0.6696,-0.77124 1.1901,-1.02515 v -0.03808 c -0.4655,-0.27084 -0.8103,-0.56706 -1.0346,-0.88867 -0.2243,-0.32162 -0.3365,-0.72364 -0.3365,-1.20606 0,-0.71094 0.2688,-1.30338 0.8062,-1.77734 0.5374,-0.47396 1.2187,-0.71094 2.0439,-0.71094 0.8591,0 1.5478,0.22534 2.0662,0.67602 0.51839,0.45069 0.77759,1.02727 0.77759,1.72974 0,0.42318 -0.12378,0.84212 -0.37134,1.25684 -0.24756,0.41471 -0.60405,0.73844 -1.06955,0.97119 v 0.03808 c 0.5501,0.25814 0.96693,0.57129 1.25046,0.93946 0.28353,0.36816 0.42529,0.84212 0.42529,1.42187 0,0.80827 -0.29305,1.48535 -0.87915,2.031253 -0.5861,0.5458981 -1.3193,0.818847 -2.1995,0.818847 m 6.69535,-8.76611 c -0.22851,0 -0.45703,0.0275 -0.68554,0.08252 -0.22852,0.05501 -0.4528,0.12695 -0.67286,0.21582 -0.20312,0.08463 -0.3798,0.1735 -0.53003,0.2666 -0.15022,0.0931 -0.28458,0.17985 -0.40307,0.26025 h -0.07617 v -1.33935 c 0.27506,-0.14812 0.64852,-0.28247 1.12036,-0.40308 0.47184,-0.1206 0.92147,-0.18091 1.34887,-0.18091 0.42741,0 0.80087,0.04338 1.12037,0.13013 0.31949,0.08675 0.60831,0.22111 0.86645,0.40308 0.2793,0.20312 0.48983,0.44856 0.63159,0.73632 0.14177,0.28776 0.21265,0.62419 0.21265,1.00928 0,0.52051 -0.17139,0.97754 -0.51416,1.37109 -0.34277,0.39356 -0.75326,0.64323 -1.23145,0.74903 v 0.08887 c 0.1989,0.03808 0.41154,0.10367 0.63794,0.19677 0.2264,0.0931 0.43693,0.23063 0.6316,0.4126 0.19466,0.18197 0.35335,0.41577 0.47607,0.70142 0.12272,0.28564 0.18408,0.6337 0.18408,1.04419 0,0.4274 -0.073,0.8199 -0.21899,1.17749 -0.146,0.35758 -0.3523,0.673906 -0.6189,0.948971 -0.27506,0.28776 -0.60726,0.505696 -0.99658,0.6538084 -0.38932,0.1481116 -0.83154,0.2221676 -1.32666,0.2221676 -0.47396,0 -0.94369,-0.057129 -1.40918,-0.1713864 C -7.17546,-0.0888672 -7.56689,-0.2264 -7.88428,-0.387207 V -1.72656 h 0.08887 c 0.2666,0.19466 0.62419,0.38086 1.07275,0.55859 0.44857,0.177736 0.89714,0.266603 1.34571,0.266603 0.25813,0 0.51733,-0.04126 0.77758,-0.123783 0.26026,-0.08252 0.47714,-0.21687 0.65064,-0.40307 0.16927,-0.1862 0.29834,-0.39144 0.38721,-0.61573 0.08886,-0.22428 0.1333,-0.50781 0.1333,-0.85058 0,-0.34277 -0.04973,-0.62419 -0.14917,-0.84424 -0.09945,-0.22005 -0.23804,-0.39355 -0.41577,-0.52051 -0.17774,-0.12695 -0.38827,-0.21476 -0.6316,-0.26343 -0.24332,-0.04866 -0.50675,-0.07299 -0.79028,-0.07299 h -0.53955 v -1.05371 h 0.41895 c 0.57128,0 1.03572,-0.13542 1.39331,-0.40625 0.35758,-0.27084 0.53637,-0.66439 0.53637,-1.18067 0,-0.23698 -0.04655,-0.44116 -0.13965,-0.61255 C -3.8387,-8.02026 -3.95719,-8.15674 -4.10107,-8.2583 -4.26188,-8.36833 -4.43962,-8.4445 -4.63428,-8.48682 -4.82894,-8.52913 -5.0363,-8.55029 -5.25635,-8.55029 m 6.93018,6.74121 -1.777346,4.15771 H -1.03027 L 0.0869141,-1.80908 H 1.67383 M 9.12695,-8.03613 5.03906,0 H 3.68701 l 4.3291,-8.34082 H 3.12842 v -1.11084 h 5.99853 v 1.41553 M 15.873,0 H 14.4067 L 12.6865,-2.67871 10.9155,0 H 9.56348 L 12.0264,-3.5166 9.58887,-7.09033 h 1.46633 l 1.7075,2.65332 1.7519,-2.65332 H 15.873 L 13.4229,-3.59912 15.873,0"
         fill-rule="evenodd"
         vector-effect="none" />
    </g>
    <g
       id="g48"
       font-style="normal"
       font-weight="400"
       font-size="7.8px"
       font-family="'MS Shell Dlg 2'"
       transform="matrix(5.14536,0,0,5.14536,-56,69)"
       stroke-linejoin="bevel"
       stroke-linecap="square"
       stroke-width="1"
       stroke-opacity="1"
       stroke="#000000"
       fill="none" />
    <g
       id="g50"
       font-style="normal"
       font-weight="400"
       font-size="7.8px"
       font-family="'MS Shell Dlg 2'"
       stroke-linejoin="bevel"
       stroke-linecap="square"
       stroke-width="1"
       stroke-opacity="1"
       stroke="#000000"
       fill="none" />
  </g>
</svg>
